<svg xmlns="http://www.w3.org/2000/svg" width="840" height="859" viewBox="0 0 840 859"><defs><style>.cls-1{fill:#fff;}</style></defs><g id="Layer_2" data-name="Layer 2"><g id="Layer_1-2" data-name="Layer 1"><path class="cls-1" d="M840,859H0V0H840ZM199.28,693.09c-.87.77-1.7,1.58-2.61,2.3-7.72,6.06-8.31,8.33-4.31,17.33,4.42,9.95,12.9,16.56,20.84,23.09C225.08,745.59,238.8,753,253,759c18.79,7.93,38.08,14.7,57.26,21.68,7.48,2.73,15.23,4.7,22.86,7l.19-.73-42.38-16.37c3.45-3.16,6.35-5.34,8.63-8.05s3.79-5.81,5.65-8.75l1.34.5-.75,10.84,1.11.91c1.83-1.58,3.67-3.13,5.47-4.73s3.77-3.41,5.65-5.12l1.57.89a107.57,107.57,0,0,0-3.76,10.24,7.49,7.49,0,0,0,.86,5c.4.73,3,1.23,3.39.79.92-1.13,1.18-2.81,1.62-4.3,1.77-6,3.19-12.1,5.45-17.89.82-2.1,2.85-3.79-.09-5.11-2.44-1.1-5.33-3.16-7.67,1-1.19,2.13-3.73,3.51-5.67,5.23l-1.32-.93c-.26-2.59-.43-5.2-.79-7.78-.38-2.77-4.63-5.67-7.52-5.1-3.95.78-1.55,3-1.13,4.93a3.85,3.85,0,0,1-.35,2.38c-2.9,5.6-5.88,11.17-8.82,16.75-1.41,2.67-3.12,2.1-4.67.27-2.34-2.78-.84-10.71,2.26-12.48,5.17-3,7.91-8.82,6.14-13.12-1.59-3.87-9.52-7.78-14.05-6.73a4.12,4.12,0,0,0-2.13,2.14c-1.72,3.48-2.91,7.28-5,10.5-2.29,3.53-5.37,6.55-8.33,10.06,4.64,2,8.35.59,11.45-2.74,8.1,4,.82,13.62,7.69,18a11.94,11.94,0,0,1-5.19-.85c-12.82-5.55-25.68-11-38.38-16.8-17.12-7.79-32.23-18.47-44.46-32.83-3-3.47-4.63-8-6.9-12.09l1-1.42c2.36.15,4.82-.06,7.06.54a46.91,46.91,0,0,1,7.8,3.28c13.49,6.42,21.74,5,32.41-5.61,1.06-1,2.15-2.1,3.31-3,6.6-5.36,8.47-5.26,14.58.7a16.25,16.25,0,0,0,1.89,1.63c14.26,10.23,30,17.8,46.26,24,21.76,8.22,44.08,14.49,67.28,17.64a258.28,258.28,0,0,0,70.91-.16,353.36,353.36,0,0,0,77.17-19.43c15-5.71,29.24-12.62,42.2-22,8.58-6.2,9.8-6.38,17.3,1a14.61,14.61,0,0,0,1.32,1.49c6.55,4.89,13.32,8.74,22,6.3q11.52-3.24,23.22-5.83c1.54-.35,4,.12,4.89,1.17s.69,3.71-.14,4.86c-3.39,4.67-6.58,9.8-11,13.36a219.6,219.6,0,0,1-50.3,30.14c-21.75,9.53-43.52,19.16-65.85,27.15-17.3,6.2-35.32,10.67-53.32,14.51-12,2.55-24.42,3-36.7,3.69a211,211,0,0,1-25.88-.45c-8.25-.54-16.46-1.84-24.68-2.8,7.44,2.18,15,4.4,22.63,4.73a356.43,356.43,0,0,0,41.86-.17c21.89-1.64,43.61-5,64.36-12.65s42-14.83,62.31-23.78c18.34-8.07,36-17.82,53.47-27.7,9.65-5.45,18.38-12.58,24.41-22.34,4.08-6.6,3-10.84-3.6-14.76-4.93-2.91-9.76-6-15.86-9.73,2.2-1.58,3.39-2.47,4.62-3.29,6.34-4.27,12.88-8.26,19-12.82,18.74-14,38-27.43,55.79-42.5a277,277,0,0,0,44.38-47c10.39-14.07,18.7-28.94,23.33-45.84,5.36-19.63,8-39.68,9.58-59.91.21-2.75-.31-5.56-.49-8.35l-1.9-.33c-8.06,15.61-13.39,32.78-24.81,47.05-7.72-10.19-11.8-22.07-23-28.46a10.3,10.3,0,0,0-.25,5.38c4.78,19.18-.25,36.34-10.5,52.55-6.91,10.94-15.75,20.07-25.25,28.78-17.58,16.12-37,29.79-56.63,43.19-18,12.25-36.41,23.81-54.25,36.24a56.29,56.29,0,0,0-19.55,24.12c-1.4,3.23-1.62,6.07,1.59,8.39,3.43,2.48,6.82,5,10.82,8a78.12,78.12,0,0,1-6.35,5.53,186.32,186.32,0,0,1-46.71,23.28,389.64,389.64,0,0,1-76.76,17.32,238.65,238.65,0,0,1-75-2.69c-21.11-4.09-41.69-9.8-61.54-18.39-14.12-6.12-27.64-13-40.11-22-1.53-1.1-2.61-2.82-3.9-4.25,1.69-1.14,3.25-2.63,5.1-3.36,8.06-3.13,10.27-9.49,5.75-17.1a9,9,0,0,0-1.45-2c-6.23-5.7-11.78-12.57-18.88-16.83-23.24-13.93-44.27-30.66-64.62-48.35-8.63-7.51-17.17-15.16-25.28-23.22-12.13-12.05-27.23-20.9-37.38-35.05-13.46-18.77-19.1-39.21-13.66-62.12.68-2.9,1.2-5.83,1.8-8.75l-1.74-.66c-9.41,11.14-16,24.21-24.2,37.4a59.08,59.08,0,0,1-3.14-5.24c-3.9-8.44-7.66-16.95-11.62-25.37-.54-1.16-1.89-2-2.87-2.91a21.33,21.33,0,0,0-2.36,3.48c-.36.85-.05,2-.09,3a145.84,145.84,0,0,0,1.58,30.42c2.2,13,5.09,25.67,11.48,37.06A371,371,0,0,0,98,589.71c5.79,8,12.78,15.27,19.85,22.25,8,7.88,16.57,15.17,25.07,22.53,11.35,9.83,22.7,19.67,34.37,29.12,9.23,7.46,18.94,14.33,29.3,22.12l-7.48,7.54Zm446-415.72c-7.62-9.39-14.3-17.81-21.19-26.05-14.06-16.83-28.16-33.64-42.49-50.24a11.47,11.47,0,0,0-7.57-3.76c-7.44-.07-15.17-.31-22.28,1.51a165.18,165.18,0,0,0-52.42,23.66c-6.84,4.67-13.25,10.62-20.81,13.47-12,4.52-24.77,7.44-37.41,10.06-8.56,1.77-15.17,5.47-19.89,12.72-3.06,4.7-4.18,4.91-7.38,0-4.65-7-10.72-11.64-19-13.41-5.68-1.22-11.51-2.08-16.94-4-9.77-3.51-19.78-6.84-28.78-11.87-11.54-6.46-21.9-15-33.27-21.8a110.17,110.17,0,0,0-48.41-15.53c-5-.39-10.48-1-14.44,3.58-5.66,6.5-11.33,13-16.92,19.54-10.31,12.11-20.54,24.3-30.84,36.43-5.11,6-10.28,12-16,18.59,2.51.9,3.83,1.68,5.23,1.83a75.52,75.52,0,0,1,28.85,9c14.48,8.09,26.6,18.54,33.68,34,9.73,21.29,9.41,43.38,4.24,65.44-6.1,26.07-16.33,50.55-32,72.52-3.92,5.5-8,10.86-12.3,16.63,6.33,2.42,2.06,7.5,3.47,11.35a5.62,5.62,0,0,1-3.25-1.81c-3.62-5.22-4.33-5.17-8.68-.55-13.3,14.1-28,26.49-45.46,35.19-1.86.93-3.53,2.24-5.68,3.61,6.79,8.06,13.15,15.68,19.58,23.23,11,12.89,22.07,25.68,33,38.6,10.41,12.31,20.63,24.77,31.06,37.07,3.88,4.58,5.32,4.4,9.86.66,5.65-4.66,11.45-9.13,17.3-13.54,2.85-2.16,5.78-2.81,9.12-.35,6.81,5,13.59,10.13,20.82,14.47,21.91,13.16,44.08,25.9,66.06,39,6,3.55,12.1,7.09,17.38,11.55,10,8.47,15.24,20.29,20.18,32.09,1.22,2.91,2.29,4.71,5.93,4.45,6.31-.45,12.67-.2,19-.62a5.84,5.84,0,0,0,4-2.76c1.31-2.45,1.77-5.35,2.88-7.93,6.1-14,14.93-26.15,28.32-33.78,31.62-18,63.31-35.92,92.9-57.21,4.29-3.09,7.55-3.06,11.52.08,6,4.75,12.13,9.32,18.35,13.75,1.27.91,4.25,1.7,4.66,1.18,6.37-8.28,17.16-13.67,17.41-26,0-.54.57-1.07,1.08-2l3.52,2.89c5.69-6.63,11.27-13.22,17-19.73,13.54-15.54,27.22-31,40.65-46.58,7.24-8.42,6.87-8.25-2.9-14a195.21,195.21,0,0,1-37.82-29.54,180.48,180.48,0,0,1-31.65-41.34c-8.49-15.34-16.35-31.12-20.79-48.29-4.08-15.78-7.08-31.58-5-48.06,1.23-9.91,3.85-19.31,8.83-27.8,13.17-22.48,33.27-34.66,58.83-38.31C640.29,278.4,642.17,278,645.28,277.37Zm99.24-76.19a7.71,7.71,0,0,0,.63-2.3,7.09,7.09,0,0,0-.83-2.83c-13.55-22.24-29-42.87-50.14-59.42,1.67-1.82,2.91-3.3,4.27-4.65,10.62-10.56,9-24.16-3.82-31-12.16-6.5-24.15-13.5-36.81-18.83a581.17,581.17,0,0,0-54.6-20.31,471.81,471.81,0,0,0-81.37-17.18c-16.81-2.06-33.7-3.79-50.6-4.59-16.58-.79-33.22-.29-49.84-.23-14.48,0-29,.14-43.44.4-26.49.48-52.77,3.13-79,6.76a524.72,524.72,0,0,0-88.29,20.3,359.37,359.37,0,0,0-69.11,30.88c-9.88,5.68-12,15.75-5.35,25a51.08,51.08,0,0,0,5.31,5.91c1.73,1.76,2,3.15-.06,5-6.87,6.22-14.46,11.9-20.2,19-9.74,12.14-18.32,25.23-27.28,38-.63.9-.38,2.41-.54,3.64a17.75,17.75,0,0,0,4.08-.23c2.38-.68,4.6-2.15,7-2.48,11-1.52,22.1-2.83,33.18-4.05,5.59-.61,6.64.35,6.13,5.94-.76,8.42-2,16.79-2.79,25.21-.66,7.09-1,14.23-1.32,21.35-.05,1,1.15,2.1,1.78,3.15a18.25,18.25,0,0,0,3-2.64c3.13-4.16,5.25-9.81,9.33-12.4,13.69-8.69,28-16.48,42.21-24.24,7.73-4.2,16-7.38,23.78-11.51s9.52-9.72,6.24-18a128.12,128.12,0,0,0-5.2-11.81c-1.84-3.54,0-4.9,2.84-5.84,5.38-1.76,10.71-3.73,16.19-5.09,29.95-7.46,60.44-11.56,91.15-14.06,17.89-1.47,35.8-2.61,53.72-3.62,11.78-.67,23.63-1.72,35.37-1.07,25.23,1.4,50.49,3.11,75.6,6,26.42,3,52.77,6.95,78.95,11.6,13.18,2.34,26,7,38.85,10.89,5.21,1.55,5.58,2.87,3.56,8.1-1.38,3.56-3,7.06-4.11,10.7-2.52,8.12-1.11,11.79,6,16.47a47.62,47.62,0,0,0,4.77,2.71c13.76,7,27.74,13.6,41.26,21,12,6.6,24.71,12.74,30,27,.26.69,1.76,1.6,2.22,1.4a3.64,3.64,0,0,0,1.93-2.37,25.71,25.71,0,0,0-.13-5.47c-1.19-14.24-2.25-28.5-3.72-42.71-.48-4.61,1.72-5.9,5.37-5.52C715.27,194.75,730.29,194.15,744.52,201.18ZM421.43,775l1.5-.27c1.87,2.69,3.59,5.51,5.68,8,1,1.24,2.76,1.91,4.18,2.84.67-1.5,1.89-3,1.91-4.52.1-5.79-.34-11.59-.25-17.39,0-1.37,1.27-2.73,2-4.1,1.18,1.4,3,2.64,3.41,4.23.87,3.35.86,6.92,1.44,10.35.81,4.76,5.61,8.7,11.1,9.06,4.86.32,8.64-2.31,9-6.8a95.79,95.79,0,0,0-.74-21.2c-.61-4.12-6-4.24-10.43-.14a23.14,23.14,0,0,1,3.73,2.06c1.6,1.32,4.06,2.76,4.26,4.38a39.55,39.55,0,0,1-.37,12.38c-.38,1.95-2.84,3.49-4.37,5.22-1.79-1.67-4.53-3-5.2-5.06-1.48-4.53-1.76-9.43-2.87-14.1-.4-1.64-1.86-4.38-2.75-4.34a107.16,107.16,0,0,0-14.46,1.79c-.85.15-1.5,1.46-2.47,2.48,4.34,3,4.92,6.67,2.72,11.11-2.25-3.24-3.65-6.83-5.41-10.22-.82-1.56-2.13-3.38-3.63-3.91a5.88,5.88,0,0,0-4.9,1.15c-.71.63-.34,3.07.21,4.43,3.08,7.6,2.05,14.9-1.09,22.17-.39.92-.75,2.56-.3,3a3.92,3.92,0,0,0,3.2.66c2.71-.71,4.79-2,4.52-5.52A54.6,54.6,0,0,1,421.43,775Zm-56.76-3.85,1.8-.17c1,3.7,1.95,7.43,3.15,11.07.35,1,1.5,1.83,2.28,2.74.88-.89,2.32-1.65,2.54-2.67.66-3.08.42-6.39,1.31-9.37,1.1-3.67,3.05-7.09,4.53-10.66a37.49,37.49,0,0,0,1.15-4.09c-1.59.28-3.57.08-4.66,1-1.82,1.46-3.06,3.64-5.17,6.32a63.86,63.86,0,0,0-3-5.67c-.8-1.18-1.81-2.77-3-3.06-6.9-1.67-13.86-3.15-20.85-4.39-3.28-.58-4.9.77-4.29,4.6a19.65,19.65,0,0,1-.52,8.14c-1.23,4.4-3.08,8.63-5,13.7,5,1.16,9.55,2.53,14.23,3.14,1.48.19,3.29-1.6,4.79-2.7.32-.24-.05-1.43-.11-2.18l-4.52.82a18.64,18.64,0,0,1-2,.33c-4.37.33-5.67-1.65-4.2-5.77,1.82-5.09,5.61-2.52,8.86-2.23,1.32-3.45,2-6-3-6.4-.92-.07-2.15-2.15-2.38-3.46-.16-.87,1.28-2.92,1.86-2.86a15.51,15.51,0,0,1,5.9,1.76c2,1.1,3.68,2.79,6.67,5.14-1,4-2.51,9.38-3.73,14.83-.31,1.35.25,2.9.41,4.36,1.43-.86,3.17-1.44,4.21-2.64.9-1,1.06-2.75,1.43-4.19C363.93,774.73,364.28,772.92,364.67,771.11Zm98.47-20.2c1.23,3.35,2.54,5.83,3,8.46,1.06,5.68,1.85,11.41,2.43,17.15.36,3.52,2,4.39,5,3.18,2.79-1.12,3.4-3,2.3-6-1.44-4-4.22-8-1.45-13.39l18.5,12.84,1.63-1.14a89,89,0,0,0-2.29-9.24c-1.68-4.68-3.69-9.24-5.68-13.81-.62-1.44-2-4-2.36-3.88a26.94,26.94,0,0,0-5.06,2.58l5.5,9.79C476.67,756.13,472.35,745.7,463.14,750.91ZM577.23,727c-.4-4.84-.72-8.64-1-12.44l1.93-.83,10,12.22,5.77-3.51c-5.7-6-10.7-11.47-16-16.69a6,6,0,0,0-4.61-1.67c-.91.19-1.77,2.62-1.89,4.11-.27,3.39-.08,6.82-.08,10.36-15-3.44-15.49-3.43-18,.31,8.89,3.4,13.52,10.52,16.83,19.35a14.83,14.83,0,0,0,4-.64,21.37,21.37,0,0,0,3.82-2.78c-1-1.13-1.88-2.29-2.86-3.4-1.5-1.68-3-3.33-4.57-5l.84-.65Zm-54.64,40.56c-2.25-6.12-4-11.22-6-16.21-1.35-3.35-2.64-6.86-4.73-9.73-3.24-4.44-8-4-12.68-2.49-4.48,1.48-5.59,5-5.81,9.37-.4,7.93,3.14,14,10,16.74,5.65,2.24,12.26,2.07,18.47,2.83C522.36,768.15,523.06,767.23,522.59,767.57ZM243.32,705.75c-4.34,8.14-8.53,16.27-17,21.11a3.06,3.06,0,0,0-.78,2.84c2.62,6.21,13.38,9.44,19,5.48a36.56,36.56,0,0,0,8.23-7.86C259.2,718.84,256.2,709.28,243.32,705.75Zm300.37,48.16c3.61-2.65,8.76-2.5,6.82-8.57a2.42,2.42,0,0,1,.6-1.72c2.46-3.28,5.67-3.4,9.39-1.44,1.84,1,4.46.47,6.72.63-.82-1.91-1.21-4.23-2.55-5.65-3.5-3.72-7.35-7.13-11.18-10.51-1.61-1.42-3.4-3.11-5.34-3.51a10,10,0,0,0-6.11,1.25c-2.12,1.12-1.64,2.76-.45,4.94a21,21,0,0,1,2,8.54C543.92,742.75,543.69,747.67,543.69,753.91Zm-31.2-15.73c2.68,3.79,4.6,6.38,6.38,9.06s3.13,5.48,5,8c2.65,3.43,8.58,5.06,11.6,3.35,4.28-2.43,5.87-6.15,4.69-11-.55-2.26-1.11-4.51-1.79-6.73-.82-2.68-1.76-5.32-2.67-8-.58-1.68-1.19-3.34-1.79-5l-5,2.31c2.6,6.21,5.15,11.31,6.85,16.67,1.22,3.83-2.2,7.09-5.46,5.88-3.88-1.45-9.08-9.92-8.78-14.31.33-4.66-.59-5.44-4.82-3.51C515,735.71,513.55,737.33,512.49,738.18Zm-261,.39c-.22,6.68,4.38,10.42,10.81,8.79,7.18-1.81,14.77-12.62,13.79-19.85-.52-3.8-2.34-6.69-6.71-6.52C260.69,721.32,251.52,730.3,251.51,738.57Zm141.26,31.84,1.58,0c1-2.83,2.37-5.61,2.65-8.5.09-1-2.82-3.25-4.13-3.09-3.38.42-7.49,1-9.73,3.13-3,2.84-.32,6.22,2.27,8.5,3.61,3.17,4,6.75,1.73,10.66-.84,1.42-2.44,2.37-3.69,3.54-.54-1.43-1-2.88-1.65-4.27-.48-1.09-1.11-2.11-1.68-3.16-1,.71-2.69,1.23-2.95,2.15-.55,1.94-1.17,5.39-.33,5.9,2.46,1.52,5.83,3,8.47,2.52C392.32,786.45,395.47,778.41,392.77,770.41Zm-53.7-19.63c-1.64-.77-3.24-1.92-5-2.18-.78-.11-2.3,1.41-2.66,2.47-2.05,6.11-4,12.26-5.67,18.48-.42,1.56-.34,4.5.47,4.92,2.39,1.22,3.91.1,5-2.81,2.34-6.26,1.21-13.84,7-18.78C338.6,752.6,338.63,752,339.07,750.78Z"/><path d="M645.28,277.37c-3.11.59-5,1-6.9,1.3-25.56,3.65-45.66,15.83-58.83,38.31-5,8.49-7.6,17.89-8.83,27.8-2.05,16.48.95,32.28,5,48.06,4.44,17.17,12.3,33,20.79,48.29a180.48,180.48,0,0,0,31.65,41.34A195.21,195.21,0,0,0,666,512c9.77,5.74,10.14,5.57,2.9,14-13.43,15.63-27.11,31-40.65,46.58-5.68,6.51-11.26,13.1-17,19.73l-3.52-2.89c-.51.89-1.07,1.42-1.08,2-.25,12.35-11,17.74-17.41,26-.41.52-3.39-.27-4.66-1.18-6.22-4.43-12.36-9-18.35-13.75-4-3.14-7.23-3.17-11.52-.08-29.59,21.29-61.28,39.17-92.9,57.21-13.39,7.63-22.22,19.73-28.32,33.78-1.11,2.58-1.57,5.48-2.88,7.93a5.84,5.84,0,0,1-4,2.76c-6.31.42-12.67.17-19,.62-3.64.26-4.71-1.54-5.93-4.45-4.94-11.8-10.16-23.62-20.18-32.09-5.28-4.46-11.4-8-17.38-11.55-22-13.05-44.15-25.79-66.06-39-7.23-4.34-14-9.47-20.82-14.47-3.34-2.46-6.27-1.81-9.12.35-5.85,4.41-11.65,8.88-17.3,13.54-4.54,3.74-6,3.92-9.86-.66-10.43-12.3-20.65-24.76-31.06-37.07-10.93-12.92-22-25.71-33-38.6-6.43-7.55-12.79-15.17-19.58-23.23,2.15-1.37,3.82-2.68,5.68-3.61,17.51-8.7,32.16-21.09,45.46-35.19,4.35-4.62,5.06-4.67,8.68.55a5.62,5.62,0,0,0,3.25,1.81c-1.41-3.85,2.86-8.93-3.47-11.35,4.27-5.77,8.38-11.13,12.3-16.63,15.63-22,25.86-46.45,32-72.52,5.17-22.06,5.49-44.15-4.24-65.44-7.08-15.47-19.2-25.92-33.68-34a75.52,75.52,0,0,0-28.85-9c-1.4-.15-2.72-.93-5.23-1.83,5.68-6.61,10.85-12.57,16-18.59,10.3-12.13,20.53-24.32,30.84-36.43,5.59-6.56,11.26-13,16.92-19.54,4-4.54,9.44-4,14.44-3.58a110.17,110.17,0,0,1,48.41,15.53c11.37,6.8,21.73,15.34,33.27,21.8,9,5,19,8.36,28.78,11.87,5.43,1.95,11.26,2.81,16.94,4,8.26,1.77,14.33,6.37,19,13.41,3.2,4.87,4.32,4.66,7.38,0,4.72-7.25,11.33-11,19.89-12.72,12.64-2.62,25.37-5.54,37.41-10.06,7.56-2.85,14-8.8,20.81-13.47a165.18,165.18,0,0,1,52.42-23.66c7.11-1.82,14.84-1.58,22.28-1.51a11.47,11.47,0,0,1,7.57,3.76c14.33,16.6,28.43,33.41,42.49,50.24C631,259.56,637.66,268,645.28,277.37Zm-333,151.81,20.68,1.87c-7-.61-11.13-3.84-11.85-11.1-.09-.93-1.52-1.66-2-2.64-1.2-2.54-2.8-5.45.84-7.22,5.31-2.58,7.05-5.55,5.83-12.3.39,10-6.91,10.78-13.6,11.93-3.06.52-6.37-.38-9.43.16a57.69,57.69,0,0,0-12.67,3.66c-1.34.58-1.68,3.46-2.48,5.29a30.7,30.7,0,0,0,5,1,16.41,16.41,0,0,0,4.41-.69c10.05-2.46,14.12.22,15.41,10.15l-8.59-1.89c-.93-.21-2-.86-2.77-.58-3.32,1.27-6.55,2.8-10.28,4.44a17.08,17.08,0,0,0,3.13.29c4.92-.56,9.74-3.37,14.83-.22C309.23,431.64,311,429.94,312.26,429.18ZM337.14,586a52.92,52.92,0,0,0-5.9-5.89c-.68-.52-2.52.5-3.83.81,2.68,2.24-.94,3-1.68,5.06l6.73-1.71-4,3.6,8.83-2c-1.09.92-2.07,2.46-3.28,2.65-9.81,1.55-19.65,2.91-29.5,4.18a10,10,0,0,1-4.9-.63c-6.54-2.78-13-5.78-19.63-8.77,3-4.66,4-5,9.43-4,9.86,1.75,14.66-.69,19.25-9.1,2.54-4.64,5.67-9,8.62-13.54-6.44-3.43-14.63-3.32-22.68-2.81C277.33,554.84,266,567,253.88,577.14c-4.08,3.41-8.06,4.45-12.58,5.19-3.4-7.41,1.17-11.89,5-16.39,6-7.13,11.83-14.3,14.68-23.44,2-6.56,2-6.12-3.93-9.58-10.79-6.29-18.31-15.45-23.09-27.12-3-7.28-7-14.14-10.67-21.13-1.2-2.31-2.94-2.47-4.8-.54-2.54,2.64-4.87,5.55-7.69,7.84q-16.23,13.2-32.78,26c-2.92,2.25-3.56,3.78-.76,6.66,3.81,3.9,7.2,8.21,10.73,12.38,10,11.81,19.87,23.68,29.87,35.46,8.71,10.25,17.56,20.38,26.25,30.64,2.26,2.67,4.26,2.41,6.85.54,5.9-4.27,11.86-8.48,18-12.44,5.11-3.32,8.19-2.74,12.68,1.58A17.58,17.58,0,0,0,284,594.5c9.89,6.76,19.81,13.46,29.63,20.32,1.39,1,3.2,2.74,3.15,4.09-.11,3.35,1.89,3.77,4.23,4.43,4.37,1.23,9.05,2,13,4.06,12.34,6.54,24.19,14,36.61,20.39a80.32,80.32,0,0,1,34.32,33c1.8,3.22,3.43,6.54,5.14,9.81a7.16,7.16,0,0,0,1.42-4.51c.25-15.58.59-31.17.68-46.75.14-27.14.12-54.27.16-81.41,0-18.66,0-37.32.09-56,0-3.91-.89-5.6-5.44-5.08-13.68,1.55-27.49,2.34-40.4,7.78-2.77,1.17-4.21.62-6.14-1.88a184.78,184.78,0,0,0-14.36-16.4c-3.14-3.21-3.39-6.09-2.11-10.27,3.39-11.08,6.56-22.25,9-33.56,1.58-7.22.65-7.63-6.67-7.51q-22.19.33-44.36.53c-15.15.13-30.3.08-45.44.37-2,0-4.82,1.07-5.82,2.59-4.29,6.51-7.61,13.67-12.09,20-3.93,5.59-6.5,12.79-14.54,14.73l3.13,8.49c3-3.51,5.06-2.3,7.17.18,6.89,8.05,12.72,17.3,23.25,20.9l4.52-13.59,5.14,2.46.83-1.13c-1.39-1.21-3.08-2.21-4.08-3.68s-1.4-3.5-2.05-5.29l1.12-.28c.81,1.28,1.61,2.56,2.42,3.83l1.36-.29c0-2.18.87-5-.16-6.41-2.78-3.77-2.06-8-2.36-12-.13-1.75,1.79-4.41,3.51-5.38,3.22-1.83,7-2.63,10.47-4.06a10,10,0,0,0,2.93-2.33c.84-.85,1.36-2.47,2.3-2.72,7.9-2.12,15.52.15,23.2,2.09l-4.61.41c0,.51,0,1,0,1.54,3.61,0,7.79,1.15,10.7-.27a11.68,11.68,0,0,1,11.28.13c4.42,2.23,8.73,3.16,13.7,2.05,1.44-.32,3.41,1.73,5.13,2.7-1.55,1.43-3,3.84-4.68,4.07-3,.39-7,.49-9.25-1.11-7.45-5.22-11.4,3.12-17.45,2.53l.26,1.38L322.74,465c-.1,1.84.2,3.14-.28,4-2.57,4.76-2.23,5.67,3,5.95,3.62.2,7.26,0,10.89,0l.15,1.51c-1.85.54-3.67,1.17-5.54,1.59-5.34,1.19-10.7,2.29-16,3.44-3,.66-6.75,1.67-6.26,5.18.43,3,2.43,6.9,4.93,8.34,4.18,2.41,9.23,3.55,14.06,4.52,3.67.74,6.25,1.94,6.7,5.36l-11.82-1.47a3.48,3.48,0,0,0,1.83,2.37c5.36,3.43,12.47,3.28,17.07,8.36a2.89,2.89,0,0,0,2.57,0c2.24-4.8,4.62-1.17,6.63,0,4.59,2.62,9,5.57,13.51,8.33,2.31,1.4,5.23,2.21,6.92,4.12,2.9,3.27,5.08,7.18,7.48,10.87a2.11,2.11,0,0,1,.2,1.88c-2.68,3.4.37,5.63,1.41,8.4a41.82,41.82,0,0,1,2.28,9.44,71.54,71.54,0,0,1,.07,8.91l2.45.16c.48-3.42,1-6.83,1.43-10.25l1.62.14c0,6.39-1.12,13,.31,19.09s5.45,11.7,8.87,18.6c-3.31-.51-6.48-2.07-8.4-1.12-5.45,2.73-10.12,0-14.73-1.42-2.9-.87-3.38-.39-4.83,1.8a86.24,86.24,0,0,1-10.18,13.22c-7.78,7.91-19.48,8.37-28.63,14-2,1.2-7.16-.69-9.45-2.75-3.14-2.81.26-5.89,2.38-7.79a62.67,62.67,0,0,1,10.5-7.26C339.31,599.38,341.17,590.69,337.14,586ZM588.9,449.32c-2-3.2-2.94-5.92-4.83-7.6-2.17-1.93-5.11-4.13-7.77-4.19-29.95-.73-59.9-1-89.85-1.53-6.9-.11-6.76-.17-7.59,6.39-.15,1.23-1.81,2.27-2.78,3.39-1-.87-2.33-1.57-2.89-2.66s-.42-2.6-.46-3.93c-.66-21.27,3.19-41.58,13.26-60.48,1.26-2.36.9-3.82-.87-5.62-3.95-4-7.51-8.47-11.67-12.28a7.66,7.66,0,0,0-6.1-1.38c-7.08,1.75-14.05,4-21,6.14-25.1,7.75-49.64,4.37-73.86-3.86-12.2-4.14-12.12-4.37-21.06,5.52-6.59,7.29-6.36,7.19-2.34,16a108.84,108.84,0,0,1,10.18,42.47c.46,17.81-2.26,35.1-9.23,51.65-.58,1.39.47,4.07,1.6,5.45,3.58,4.35,8,8.08,11.23,12.63,2,2.84,3.76,2.74,6.64,2.26,14.86-2.44,29.7-5.56,44.67-6.63,16.08-1.16,32.17,1,47.82,5.31,3.77,1,6.11.2,8.38-3.08,2.43-3.53,5.23-7.13,8.67-9.55,3.74-2.62,3.47-5.13,1.91-8.44a65,65,0,0,1-6.31-27.47c6.63-2.11,13-4.73,20.16-1.46,3.75,1.72,7.28,1.86,9.15-3.22.51-1.38,2.88-3.1,4.26-3,10.67.82,19.6,4.82,24.36,15.21,2.75,6,5.25,12.12,8.06,18.1,2.18,4.64,7.68,7.93,11.55,7.26,4.64-.8,7.55-4.35,8.14-10a30.85,30.85,0,0,1,.14-3.49c1.18-4.86,1.22-10.61,4-14.33C570.55,444.65,579.26,444.53,588.9,449.32ZM375.63,327.24c5.53-6.44,14.83-7.08,18-15.11.14-.36.91-.42,1.27-.74,1.67-1.48,3.6-2.78,4.86-4.55,2.64-3.67,5.2-4.62,10.2-2.59-1.8,1-3.2,1.71-4.57,2.5-2.59,1.51-3,3.45-.93,5.71,2.39,2.69,4.81,5.34,7.74,8.6.2-2.06.5-3.75.49-5.44-.06-11.32-.1-22.65-.34-34a14.06,14.06,0,0,0-1.48-6.68,106.54,106.54,0,0,0-9.58-14,15.57,15.57,0,0,0-7.34-4.48c-8.16-2.32-16.6-3.69-24.67-6.25-10.72-3.39-21.29-7.09-30.38-14.39-21.14-17-44.2-30.18-72-32.56a10.55,10.55,0,0,0-7.58,3.11c-9.85,10.81-19.31,22-28.9,33l-20.64,23.76c2.15,1.2,3.62,2.17,5.2,2.88,6.19,2.79,12.78,4.88,18.56,8.34,26.5,15.83,39.87,39.77,41.64,70.26,1.62,27.77-6.09,53.65-17,78.78-.63,1.45-1,3-1.75,5.18H278.2c-1.35-4.58-2.89-8.72-3.69-13a10.57,10.57,0,0,1,1.17-6.53c1.42-2.56,3.74-4.62,5.63-6.94a5.07,5.07,0,0,0,.49-1.54l-3.92-1.26-.35-1.4c1.92-.84,3.76-2,5.77-2.44a21.27,21.27,0,0,1,6-.11c4.19.3,6.78-1.79,6.38-5.73-.79-7.7-2.31-15.32-3.54-23a2.24,2.24,0,0,0-.54-.83c-9.14-12.18-9.56-26.23-6.8-40.07,2.65-13.3,8.08-26,11-39.28,1.8-8.11,1.62-16.75,1.51-25.14,0-2.54-2.43-5.4-4.45-7.41-1-1-4.23-1.34-5.33-.5-1.35,1-2.25,3.65-2.1,5.48.72,8.59,2.27,17.13,2.72,25.72a25.7,25.7,0,0,1-5.06,16.8c-.94-3.31-1.37-5.37-2.1-7.32-1.15-3-.63-7.25-5.42-8-.62-.09-1.18-1.52-1.51-2.43-2-5.74-2.94-12.25-6.28-17.08-4-5.79-1.29-10.36-.12-15.51,1-4.24,3.68-6.12,7.78-7.29,7-2,12.79,1.26,18.3,4.26,3.55,1.93,7.65,5.46,8.59,9,2.12,8.07,3.89,16.55,1.51,25.06-2.77,9.93-6.21,19.74-8.14,29.84-2,10.7-2.91,21.66-3.68,32.55-.14,2.09,2.2,5.65,4.09,6.21s5.57-1.15,6.83-3c4.21-6.13,8.31-12.53,8.52-20.38.07-2.36-1-4.95-.34-7.08a121.61,121.61,0,0,1,6.28-16.77c1.59-3.35,1.1-5.06-3.11-6.08L324,282.9l-6.71-2.42c5.14-5.38,9.63-10.12,14.16-14.82,1.93-2,3.57-4.78,5.94-5.77,6.09-2.53,12.5-.9,18.11,1.52,6.33,2.74,12.18,6.73,18,10.59,2.54,1.69,5.29,4.05,6.38,6.73,1.65,4,3.28,7.31,7.47,9.4,1.29.65,2,4.5,1.43,6.35-1,2.93-3.56,1.72-5.89.81a49.72,49.72,0,0,0-7.44-1.75,48.36,48.36,0,0,0,9.57,7c1.07.58,3.2.16,4.29-.6,1.27-.87,1.82-2.71,2.89-4a8.45,8.45,0,0,1,2.38-1.4c.47.94,1.6,2.22,1.31,2.76-1.24,2.38-2.43,5.67-4.5,6.5-2.52,1-5.91,0-8.88-.41-.79-.12-1.31-1.68-2.15-2a13.5,13.5,0,0,0-4.92-.6c-.59,0-1.66,2-1.52,2.12a17.48,17.48,0,0,0,4,3.33c.94.53,2.64,0,3.34.6,1.12,1,1.69,2.67,2.49,4a13.62,13.62,0,0,1-3.63,1c-1.28,0-2.55-.74-3.85-.95-5.47-.87-7.35,1.32-5.3,6.37C372.2,320.62,373.88,323.65,375.63,327.24Zm249-57.4c-1.12-1.64-1.76-2.78-2.59-3.77C606.89,248,591.8,229.86,576.5,211.92c-1.68-2-4.66-4.24-6.88-4.09A108.6,108.6,0,0,0,548,211.19c-18.83,5.27-35.37,15.13-50.89,26.83-3.82,2.89-7.7,6.3-12.11,7.69-13.28,4.17-26.72,8-40.32,10.87-6.79,1.45-11.61,4.52-15.22,10-2.48,3.74-4.73,7.62-6.93,11.53a10,10,0,0,0-1.52,4.51c-.11,14.81-.09,29.63,0,44.45,0,3.41.29,6.83.49,11,4.9-3.2,7.44-6.22,8.15-11.51.87-6.48,3.35-12.74,5.23-19.06.42-1.41,2.05-2.93,1.74-4-1.91-6.82,3.28-8.55,6.76-10.42-.75-2-2.16-3.82-1.78-5.15,1.37-4.88,5.49-6.19,8.66-6.13-.73-1.48-2.65-3.84-2.15-4.6,4.94-7.45,9.69-15.22,20-16.41,6.83-.78,13.83-.85,19.92-5.17,2.54-1.8,6-2.29,9.69-3.6.55-3.13,3.95-4.18,8.89-2.35,1.77-1.33,2.87-2.71,4.24-3a21.39,21.39,0,0,1,6.45-.35c8,.53,16,1.31,18.86,10.94.19.66,1.25,1,1.78,1.63,1.35,1.56,3.1,3,3.84,4.82a84.9,84.9,0,0,1,3.67,11.63c2.54,10.26-.82,19.26-6.08,27.94-7,11.53-18.71,16.8-29.82,22.77-6.56,3.53-13.61,6.22-20.57,9-7.3,2.87-12.48,7.45-13.79,15.48a5.35,5.35,0,0,0,.84,3.95c4.62,5.21,9.49,10.22,14.23,15.33,2.8,3,5.16,3.24,8.91.69,8.08-5.48,16.3-11.1,25.23-14.88,10.54-4.46,21.82-5.79,32.4,1.1a6.74,6.74,0,0,0,2.19.42C559.19,311.79,582.48,283.83,624.6,269.84ZM501,589.94l-7.23,4.82V575.69c-3.23,2.24-7,3.46-8.17,5.92-4.29,9-10.25,17.08-13.26,26.82-2.25,7.26-6.31,14-9.74,20.84-.58,1.16-2.07,1.87-2.6,2.32-1.41-4.19-2.86-7.72-3.77-11.39-3.29-13.19-6.68-26.37-9.45-39.68-1.19-5.74-5.1-11.56,0-18.28l-6.52,1.68c.23-4.49.12-8.42.68-12.25q3.48-23.65,7.33-47.25c.61-3.77-.29-5.67-4.35-5.92s-8.24-1.09-12.38-1.35c-11.26-.73-11.13-.67-11.12,10.67q.06,39.91-.15,79.82c-.08,15.14-.38,30.27-.55,45.41-.2,18.46-.4,36.91-.5,55.37,0,1.59.73,3.18,1.2,5.09,1.16-.69,1.75-.83,2-1.19a40.07,40.07,0,0,0,2-4c5.19-12.14,12.66-22.74,22.89-31,9.22-7.43,19.14-13.66,30.7-17.51,6.24-2.08,11.49-7.36,16.95-11.5,2.71-2.06,4.88-2.83,8-.76,2.39,1.58,2.7,1.17,3.74-2.36l-4.95.35c.27-1.65.47-2.8.57-3.41-8.57-1-12.13,5.32-16.37,10.62a28.74,28.74,0,0,1-2.3,2.62c-2.45,2.42-5.26,2-6.73-.55-.64-1.12.82-5,2-5.36a24.09,24.09,0,0,0,12.4-9,4.35,4.35,0,0,1,2.09-1.32c4.48-1.42,5.25-4.59,5.21-8.94-.05-5.88-2-12.23,2.84-17.44C501.79,592.37,501.17,591,501,589.94ZM430.87,335.4c-2.9,1.87-5.72,3.52-8.32,5.47a4.21,4.21,0,0,0-1.23,3c-.13,5.32-.27,10.66.05,16,.08,1.23,2,3.41,2.95,3.34a124.11,124.11,0,0,0,15.21-2.2c1-.21,2.73-2.27,2.5-2.87-2.34-6.13,1.35-10.61,3.94-15.32,4.51-8.21,9.95-15.53,18.09-20.76,13.23-8.51,27.44-14.76,42.19-20,7.15-2.54,13.56-6.12,17.15-13.39a73.62,73.62,0,0,1,4.25-6.91,51.2,51.2,0,0,1-5.94-4.33c-2.05-1.9-3.31-5.56-5.55-6.18a82.35,82.35,0,0,0-17.52-2.5c-3.45-.18-6.26,1.1-5.89,6a10.79,10.79,0,0,1-3.21,7.81,31.94,31.94,0,0,1-10.73,6c-9,3-17.5,6.4-24.94,12.64-3.14,2.64-8,3.19-12,4.87a8.35,8.35,0,0,0-3.78,2.68c-4.94,8-7.09,16.41-3.38,25.59.68,1.7,1.12,3.51,1.67,5.26l-1.48.79ZM595.35,578.26l-2.19-.56q1.07-12.15,2.14-24.29l-1.44-.33-8.27,17.45-1.79-.36q-.62-12.28-1.22-24.57l-1-.47L571.85,563l-1.76-.79,2-15.31-1.39-.27-6.83,13.09-1.35-.44V543.45l-.86-.44-6.39,9.28-2.51-9.21c-1.6,2.74-2.62,4.19-3.35,5.78-3.86,8.45-7.72,16.89-11.43,25.41-1.76,4-7.74,7.55-1.87,12.77.21.19,0,1-.14,1.43-1.05,3.5,1.38,4.5,3.77,4.1a41.47,41.47,0,0,0,11.74-3.49c3.91-2,6.45-2.19,8,3.08,4.1-5.34,7.57-2.3,11,.06,4.23,2.93,8.43,5.9,12.51,9,2.78,2.11,4.71,2,7.16-.81,5-5.69,10.52-10.95,15.7-16.51.63-.68.67-2.07.7-3.13q.24-11.73.33-23.45a19.67,19.67,0,0,0-.93-3.44Zm16.79-3c3.2-3.85,6.37-7.85,9.72-11.71q17.29-19.92,34.71-39.72c2.23-2.53,1.48-3.85-1.05-5.41a94.85,94.85,0,0,1-11.5-7.86c-10.77-9.17-21.31-18.6-32.28-28.23,1.13,9.44,2.39,19,3.37,28.57.37,3.59.08,7.25.11,10.87.1,9.11.7,18.24.18,27.31C614.89,558,613.24,566.83,612.14,575.29Zm-75.3-145.11h41.35c-3.2-7.44-7-14.18-9-21.43-2.4-9-9.88-17.61-3-28.19l-6,.39c3,2.93,3.08,3.1.53,5.07-3.7,2.87-7.62,5.47-11.57,8.27,2.28,6.08,6.24,12.5.49,19.43C545.3,419,541.2,424.58,536.84,430.18ZM412.56,330c-3.14-1.64-5.15-2.52-7-3.69-2.72-1.72-5.24-2.23-7.46.62-2.43,3.12-3.26,7.12-8.09,8.73-3.95,1.32-7,5.31-10.57,7.88-3.21,2.29-3.9,6.5-.67,8.72,5.73,3.94,12,6.69,19.11,3.77,3.11-1.28,5.14-.47,6.49,2.45.55,1.2.67,2.79,1.55,3.62a6.25,6.25,0,0,0,4.06,1.8c.9,0,2.43-1.82,2.45-2.85C412.63,350.42,412.56,339.79,412.56,330Zm89.53,267.68c4.18,4.25,4.13,4.26,5.79,11.93.2.94,1.26,2.37,2,2.41a85.21,85.21,0,0,0,13,0c1.57-.15,3.24-1.75,4.41-3.08,5.85-6.65,4.41-14.58,3.68-22.38-.35-3.87-.44-6.81-5.65-8.57-4.13-1.4-5.28-.5-6.92,2.29-.75,1.27-1.39,2.61-1.54,2.91C507.52,584.76,508.51,594.88,502.09,597.68ZM321,376.23l.92,1.48c2.45-4,6.59-5.18,9.82-3.11a13.1,13.1,0,0,1,5.09,8.77c.48,5.19-1,10.52-1.14,15.81-.12,4.2-.26,8.68,1,12.57,1.93,5.86,5.1,11.31,8,17.4a24.39,24.39,0,0,1,4.68-.61c4.18.14,4.46-2.27,4.09-5.48-1.74-15.08-5.47-29.63-12.19-43.25-2.26-4.57-3.1-8.28,1.53-11.7.45-.33.4-1.34.32-1.05-5.8,2-11.76,4-17.62,6.21C323.82,373.89,322.46,375.22,321,376.23Zm200.87,55.08c1.32-1.53,2.82-3.27,4.32-5s3-3.52,4-4.65c-4.07.55-8.24.64-12.12,1.74-9.16,2.57-17.1-.7-18.76-9.93-1.36-7.54-4.68-9.67-11.68-9.57-3.6.06-5.32,1-5.88,4.34q-1.33,8.13-2.67,16.25c-.58,3.46.82,4.79,4.35,4.77,9.82-.05,19.63,0,29.44.34C515.67,429.65,518.51,430.64,521.85,431.31Zm-42,20.73c2.16,7.13,3.67,13.57,6.07,19.66,3.78,9.57,4,9.47-3.15,16.63-.2.21-.2.61-.36,1.13l3.76,2.15c2.66-3.27,5-6.24,7.45-9.16,8.49-10.22,8.31-17-.57-26.39-.86-.91-1-2.46-1.65-4Zm-19.09,80.44-1-.16L448,560.53c5.85-2.16,3-12.38,10.65-11.28Zm66.59-74.54c.27-.54.53-1.09.8-1.63L516.05,446c-1,3.25-1.7,5.33-2.41,7.56ZM269.7,514.57c-2.05,1.24-4.19,8.31-2.55,11.22.72,1.27,2.26,2.07,3.42,3.09,1.2-1.61,2.92-3.07,3.42-4.88.36-1.31-.78-3.13-1.47-4.62S270.82,516.45,269.7,514.57Zm255.14-127.8c6.12-6.56,11.19.23,16.91-.07-2.35-4.3-7.85-2.56-11.17-5.58l.56-3.81C528.24,380.61,522.84,380.62,524.84,386.77ZM281.18,474l.29,1.78,26.11-6.83c-.15-.62-.3-1.24-.46-1.86Zm-31.51,35-.07,2.13,10.85,6.17c-1-3.83-.94-7.69-2.53-8.56C255.86,507.55,252.49,508.76,249.67,509Zm20.38-23.16c0,4-.1,7.67.09,11.37,0,.69,1.13,1.58,1.93,1.89a2.33,2.33,0,0,0,2-.88C275.5,496,272.9,487.51,270.05,485.8ZM559.56,523a18.6,18.6,0,0,1,5.36-1.09c2.23.07,4.42,1.12,6.64,1.74l.83-.7-6.79-6ZM285.08,499.55l1.19-1.44c-.6-2.54-1.19-5.08-1.81-7.73-4.74,1.41-3.4,4.68-3.09,7.13C281.48,498.33,283.78,498.88,285.08,499.55Zm-15.16-30.64,1.17,1.5,8.47-6.35c-.22-.35-.44-.69-.65-1l-9.72,1.14.08,1.36h3.08Zm200.8,55.79c4.9.64,8.89-4.68,8.14-10.18Zm22.62,21.57V543.5c-4.7,5.19-5.1.09-7.09-1.21l-1.15.72,2.84,7.56ZM301.25,460.38l0,.93h18.19v-.93ZM522.51,615.09a56,56,0,0,1-7,1.62c-4.72.5-4.73.37-4.33,3.51C522.6,616.91,522.6,616.91,522.51,615.09Zm-155.6-277.3-.46,1.86c.22.44.34,1.1.69,1.29,2.46,1.3,5,2.51,7.45,3.74l-3.11-4.84c-.09-.14-.09-.41-.19-.45C369.83,338.84,368.37,338.32,366.91,337.79Zm-64.8,145.47L295.42,487c.6.77,1.52,2.29,1.76,2.19,2.46-1,4.8-2.31,7.17-3.52ZM518.63,411c.11.58.22,1.16.32,1.73,4.15-.84,8.29-1.66,12.41-2.63,0,0-.37-1.87-.45-2.31ZM342,518.39l.42-1.62-14.21-4.39-.43,1.4Zm-45.15-56.92-.06-1.77-13.54,1.8.15,1.33Zm205.67-64.7,7.36-7.84C502.09,391.19,502.09,391.19,502.5,396.77Zm-207,67.8-9,.62C289.43,470.28,291.1,470.26,295.47,464.57ZM538.28,603.24c5.76,1.19,9.38-.47,9.6-3.59ZM308.89,533.41l-.52,1.37,11.91,5,.72-1.88Zm265.68-47.74-3.64,9.21C576.13,495.32,576.44,494.68,574.57,485.67Zm-55.72-4c-1.53,2.61-2.84,4.84-4.76,8.13l7.55-3C520.62,484.92,519.81,483.42,518.85,481.66Z"/><path d="M744.52,201.18c-14.23-7-29.25-6.43-43.87-8-3.65-.38-5.85.91-5.37,5.52,1.47,14.21,2.53,28.47,3.72,42.71a25.71,25.71,0,0,1,.13,5.47,3.64,3.64,0,0,1-1.93,2.37c-.46.2-2-.71-2.22-1.4-5.24-14.28-18-20.42-30-27-13.52-7.44-27.5-14.05-41.26-21a47.62,47.62,0,0,1-4.77-2.71c-7.13-4.68-8.54-8.35-6-16.47,1.14-3.64,2.73-7.14,4.11-10.7,2-5.23,1.65-6.55-3.56-8.1C600.64,158,587.86,153.3,574.68,151c-26.18-4.65-52.53-8.59-78.95-11.6-25.11-2.87-50.37-4.58-75.6-6-11.74-.65-23.59.4-35.37,1.07-17.92,1-35.83,2.15-53.72,3.62-30.71,2.5-61.2,6.6-91.15,14.06-5.48,1.36-10.81,3.33-16.19,5.09-2.88.94-4.68,2.3-2.84,5.84a128.12,128.12,0,0,1,5.2,11.81c3.28,8.25,1.53,13.85-6.24,18s-16,7.31-23.78,11.51c-14.25,7.76-28.52,15.55-42.21,24.24-4.08,2.59-6.2,8.24-9.33,12.4a18.25,18.25,0,0,1-3,2.64c-.63-1-1.83-2.12-1.78-3.15.28-7.12.66-14.26,1.32-21.35.78-8.42,2-16.79,2.79-25.21.51-5.59-.54-6.55-6.13-5.94-11.08,1.22-22.14,2.53-33.18,4.05-2.4.33-4.62,1.8-7,2.48a17.75,17.75,0,0,1-4.08.23c.16-1.23-.09-2.74.54-3.64,9-12.77,17.54-25.86,27.28-38,5.74-7.15,13.33-12.83,20.2-19,2-1.83,1.79-3.22.06-5a51.08,51.08,0,0,1-5.31-5.91c-6.63-9.27-4.53-19.34,5.35-25a359.37,359.37,0,0,1,69.11-30.88A524.72,524.72,0,0,1,299,47c26.25-3.63,52.53-6.28,79-6.76,14.48-.26,29-.36,43.44-.4,16.62-.06,33.26-.56,49.84.23,16.9.8,33.79,2.53,50.6,4.59A471.81,471.81,0,0,1,603.22,61.8a581.17,581.17,0,0,1,54.6,20.31c12.66,5.33,24.65,12.33,36.81,18.83,12.87,6.88,14.44,20.48,3.82,31-1.36,1.35-2.6,2.83-4.27,4.65,21.11,16.55,36.59,37.18,50.14,59.42a7.09,7.09,0,0,1,.83,2.83A7.71,7.71,0,0,1,744.52,201.18ZM370.12,43.09v.44c-9.45.66-19,.76-28.33,2.09-25.36,3.62-50.73,7.26-75.92,11.83a386.21,386.21,0,0,0-91.1,28.88,336.53,336.53,0,0,0-32.57,17.25c-6.13,3.66-7,9.78-3.35,15.67,1.73,2.78,4.38,5,6.48,7.52,5.52,6.73,11.38,13.24,16.31,20.39,4.41,6.39,7.58,13.62,11.64,20.28,2.68,4.41,7,4.82,11,1.72a22.41,22.41,0,0,1,5-3.23c9.25-3.66,18.48-7.42,27.89-10.62,11.48-3.89,22.92-8.29,34.74-10.64,18.72-3.73,37.67-6.59,56.64-8.64,21.81-2.36,43.74-3.78,65.65-5,17.08-.95,34.26-1.93,51.31-1.14,22.86,1,45.65,3.67,68.45,5.87,14.87,1.43,29.79,2.68,44.51,5.12,20,3.31,39.84,7.18,59.52,11.8,9.78,2.3,19.07,6.72,28.52,10.33,9,3.43,18.11,6.52,26.69,10.75,7.13,3.53,10.34,3.25,14.11-3.9,2.56-4.85,4.52-10.12,7.71-14.5a336.25,336.25,0,0,1,21.54-27.18c9.77-10.81,5.45-18.66-4.46-24.1-10.61-5.82-21.44-11.25-32.32-16.53-30.85-15-63.39-25-96.84-32.08A570.87,570.87,0,0,0,461,43.27C430.74,42.4,400.42,43.09,370.12,43.09ZM695,237.05c0-2.26.11-3.53,0-4.76-1.4-12.87-2.69-25.75-4.35-38.58-.43-3.27.71-4.54,3.5-4.41,8.3.39,16.59.86,24.86,1.61,6,.56,12,1.6,19.24,2.6-1.8-2.85-2.87-4.62-4-6.35-10.93-16.6-23.32-31.91-38.68-44.69-3.24-2.7-5.69-3.18-8,.79-5.31,9-11,17.82-15.89,27-4.23,7.89-7.85,10.62-17,10.12-7.45-.42-14.88-1.21-22.32-1.89-5-.46-11.11,3.24-12.34,7.53-1.34,4.65.6,8.1,6.34,10.84,8.36,4,17,7.47,25.1,12,11.58,6.47,22.8,13.6,34,20.64C688.56,231.47,691.28,234.09,695,237.05Zm-551.5-7.59,1.52.64c1.06-.69,2.14-1.35,3.18-2.08,8-5.6,15.62-12,24.16-16.65,13.65-7.47,28-13.73,41.93-20.65,6-2.95,6.6-10.25.84-13.49-3.37-1.89-7.8-2.49-11.77-2.57-6.95-.12-13.92.73-20.89.94-7.19.21-12-3.17-15.45-9.61-4.51-8.5-9.58-16.71-14.72-24.85-3.7-5.86-5.23-5.92-10.56-1.63C126.3,152,114.2,167.33,103.09,183.56a35.34,35.34,0,0,0-2,4.13c2.17-.18,3.58-.29,5-.42,11.9-1.07,23.78-2.4,35.7-3.11,6.48-.38,7.24,1.34,6.33,7.88C146.38,204.49,145,217,143.49,229.46Zm46.83-59.66.43,2c9.82-.75,19.78-3.23,29.37,1.64a65.45,65.45,0,0,0-3-8.22c-1.3-3.27-3.68-4-6.83-3.11a46.27,46.27,0,0,0-5.25,1.46C200.11,165.54,195.23,167.7,190.32,169.8Zm457.42,6.71c.11-.75.21-1.49.32-2.23-7.76-2.53-15.49-5.13-23.29-7.5a3.34,3.34,0,0,0-2.91,1.39c-1.6,3.43-2.85,7-4.23,10.56l1.07,1C627.5,171.41,638,176.79,647.74,176.51Z"/><path d="M199.09,693.27l7.48-7.54c-10.36-7.79-20.07-14.66-29.3-22.12-11.67-9.45-23-19.29-34.37-29.12-8.5-7.36-17.08-14.65-25.07-22.53-7.07-7-14.06-14.23-19.85-22.25a371,371,0,0,1-22.74-35.54C68.85,542.78,66,530.1,63.76,517.11a145.84,145.84,0,0,1-1.58-30.42c0-1-.27-2.11.09-3a21.33,21.33,0,0,1,2.36-3.48c1,1,2.33,1.75,2.87,2.91,4,8.42,7.72,16.93,11.62,25.37a59.08,59.08,0,0,0,3.14,5.24c8.15-13.19,14.79-26.26,24.2-37.4l1.74.66c-.6,2.92-1.12,5.85-1.8,8.75-5.44,22.91.2,43.35,13.66,62.12,10.15,14.15,25.25,23,37.38,35.05,8.11,8.06,16.65,15.71,25.28,23.22,20.35,17.69,41.38,34.42,64.62,48.35,7.1,4.26,12.65,11.13,18.88,16.83a9,9,0,0,1,1.45,2c4.52,7.61,2.31,14-5.75,17.1-1.85.73-3.41,2.22-5.1,3.36,1.29,1.43,2.37,3.15,3.9,4.25,12.47,9,26,15.9,40.11,22,19.85,8.59,40.43,14.3,61.54,18.39a238.65,238.65,0,0,0,75,2.69,389.64,389.64,0,0,0,76.76-17.32,186.32,186.32,0,0,0,46.71-23.28,78.12,78.12,0,0,0,6.35-5.53c-4-3-7.39-5.53-10.82-8-3.21-2.32-3-5.16-1.59-8.39a56.29,56.29,0,0,1,19.55-24.12c17.84-12.43,36.28-24,54.25-36.24,19.63-13.4,39.05-27.07,56.63-43.19,9.5-8.71,18.34-17.84,25.25-28.78,10.25-16.21,15.28-33.37,10.5-52.55a10.3,10.3,0,0,1,.25-5.38c11.15,6.39,15.23,18.27,23,28.46,11.42-14.27,16.75-31.44,24.81-47.05l1.9.33c.18,2.79.7,5.6.49,8.35-1.54,20.23-4.22,40.28-9.58,59.91-4.63,16.9-12.94,31.77-23.33,45.84a277,277,0,0,1-44.38,47c-17.84,15.07-37,28.52-55.79,42.5-6.12,4.56-12.66,8.55-19,12.82-1.23.82-2.42,1.71-4.62,3.29,6.1,3.75,10.93,6.82,15.86,9.73,6.62,3.92,7.68,8.16,3.6,14.76-6,9.76-14.76,16.89-24.41,22.34-17.47,9.88-35.13,19.63-53.47,27.7-20.32,9-41.45,16.08-62.31,23.78s-42.47,11-64.36,12.65a356.43,356.43,0,0,1-41.86.17c-7.64-.33-15.19-2.55-22.63-4.73,8.22,1,16.43,2.26,24.68,2.8a211,211,0,0,0,25.88.45c12.28-.69,24.74-1.14,36.7-3.69,18-3.84,36-8.31,53.32-14.51,22.33-8,44.1-17.62,65.85-27.15a219.6,219.6,0,0,0,50.3-30.14c4.39-3.56,7.58-8.69,11-13.36.83-1.15,1-3.89.14-4.86s-3.35-1.52-4.89-1.17q-11.68,2.6-23.22,5.83c-8.73,2.44-15.5-1.41-22-6.3a14.61,14.61,0,0,1-1.32-1.49c-7.5-7.42-8.72-7.24-17.3-1-13,9.39-27.23,16.3-42.2,22a353.36,353.36,0,0,1-77.17,19.43,258.28,258.28,0,0,1-70.91.16c-23.2-3.15-45.52-9.42-67.28-17.64-16.3-6.16-32-13.73-46.26-24a16.25,16.25,0,0,1-1.89-1.63c-6.11-6-8-6.06-14.58-.7-1.16.94-2.25,2-3.31,3-10.67,10.62-18.92,12-32.41,5.61a46.91,46.91,0,0,0-7.8-3.28c-2.24-.6-4.7-.39-7.06-.54l-1,1.42c2.27,4.06,3.95,8.62,6.9,12.09,12.23,14.36,27.34,25,44.46,32.83,12.7,5.79,25.56,11.25,38.38,16.8a11.94,11.94,0,0,0,5.19.85c-6.87-4.37.41-14-7.69-18-3.1,3.33-6.81,4.73-11.45,2.74,3-3.51,6-6.53,8.33-10.06,2.09-3.22,3.28-7,5-10.5a4.12,4.12,0,0,1,2.13-2.14c4.53-1.05,12.46,2.86,14.05,6.73,1.77,4.3-1,10.14-6.14,13.12-3.1,1.77-4.6,9.7-2.26,12.48,1.55,1.83,3.26,2.4,4.67-.27,2.94-5.58,5.92-11.15,8.82-16.75a3.85,3.85,0,0,0,.35-2.38c-.42-1.88-2.82-4.15,1.13-4.93,2.89-.57,7.14,2.33,7.52,5.1.36,2.58.53,5.19.79,7.78l1.32.93c1.94-1.72,4.48-3.1,5.67-5.23,2.34-4.18,5.23-2.12,7.67-1,2.94,1.32.91,3,.09,5.11-2.26,5.79-3.68,11.91-5.45,17.89-.44,1.49-.7,3.17-1.62,4.3-.35.44-3-.06-3.39-.79a7.49,7.49,0,0,1-.86-5,107.57,107.57,0,0,1,3.76-10.24l-1.57-.89c-1.88,1.71-3.75,3.43-5.65,5.12s-3.64,3.15-5.47,4.73l-1.11-.91.75-10.84-1.34-.5c-1.86,2.94-3.43,6.12-5.65,8.75s-5.18,4.89-8.63,8.05L333.27,787l-.19.73c-7.63-2.32-15.38-4.29-22.86-7C291,773.68,271.75,766.91,253,759c-14.16-6-27.88-13.39-39.76-23.17-7.94-6.53-16.42-13.14-20.84-23.09-4-9-3.41-11.27,4.31-17.33.91-.72,1.74-1.53,2.61-2.3l-4.45,7.19c6.15,2.11,12.06,4.17,18,6.15,2.83,1,5.68,2.17,8.59,2.43,2,.19,5.07-.43,6.06-1.82s.71-4.57-.2-6.36c-3.42-6.69-10.23-9.63-16.28-13.24-1-.62-3.42.48-4.92,1.28C203.64,690,201.41,691.73,199.09,693.27Zm-133-205.59-2.66.74c.82,10,.4,20.23,2.76,29.82,3.07,12.48,7.75,24.67,12.82,36.52,6.93,16.17,17.28,30.3,29.46,42.94,8.29,8.6,17,16.84,25.9,24.82,15.2,13.62,30.39,27.3,46.2,40.2a286.54,286.54,0,0,0,31.45,21.77c8.55,5.23,17.07,10,20.86,21.16,8.49-8.74,18.33-13.92,29.09-17.72,6-2.11,6.48-5,3.68-11-4.84-10.32-13.86-16.48-22.9-22.19-19.14-12.08-37.51-25.1-54.34-40.27-10.59-9.55-21.4-18.86-32-28.36-9.76-8.73-19.31-17.69-29.15-26.32-8.94-7.83-15.11-17.48-19.68-28.28s-5.77-22.05-5.23-33.62c.15-3.35,0-6.71,0-10.07l-1.53-.56L83.1,518.93c-1-.94-2.76-1.92-3.47-3.4-3.06-6.44-5.71-13.07-8.72-19.53C69.57,493.11,67.74,490.45,66.13,487.68Zm660.37,7.85-1.57.6a16.81,16.81,0,0,0,0,2.75c2.33,13.83-1,26.87-6.48,39.26s-14.18,22.51-23.68,31.8c-18.46,18-39.14,33.42-60.58,47.73-18.64,12.45-37.65,24.37-56,37.17-8.28,5.76-15.37,13.14-19.73,22.67-1.86,4.07-1.13,6.92,2.54,9.32,9.69,6.33,19.28,12.8,29.07,19,1.05.67,4.05.33,4.53-.49,6-10.25,16.14-15.59,25.28-22.11,17.57-12.52,35.73-24.28,52.76-37.49,18.25-14.16,35.66-29.53,50.48-47.34,9.66-11.6,19.51-23.49,26.56-36.69,11.29-21.17,15.26-44.8,17.52-68.59.33-3.45.35-6.93.52-10.39a9.08,9.08,0,0,0-3.53,4.07c-5.3,10-10.31,20.1-16,29.87-3.35,5.78-5.2,5.41-8.63-.25C735.31,509.39,730.87,502.49,726.5,495.53ZM627.3,701.44c-5.58-3.46-9.82-6.19-14.19-8.71a3.09,3.09,0,0,0-2.65.6c-3.86,3.11-7.7,6.25-11.33,9.63-.92.86-1,2.6-1.5,3.94,1.46.49,3.08,1.66,4.34,1.36C609.94,706.31,617.82,704,627.3,701.44Zm-346,42.48c5.34,2.65,9.44,1.78,10.76-1.66.93-2.42.69-4.57-2.25-5.62C282.13,733.87,285.35,742.15,281.28,743.92Z"/><path d="M421.43,775a54.6,54.6,0,0,0-.42,7.74c.27,3.5-1.81,4.81-4.52,5.52a3.92,3.92,0,0,1-3.2-.66c-.45-.42-.09-2.06.3-3,3.14-7.27,4.17-14.57,1.09-22.17-.55-1.36-.92-3.8-.21-4.43a5.88,5.88,0,0,1,4.9-1.15c1.5.53,2.81,2.35,3.63,3.91,1.76,3.39,3.16,7,5.41,10.22,2.2-4.44,1.62-8.12-2.72-11.11,1-1,1.62-2.33,2.47-2.48a107.16,107.16,0,0,1,14.46-1.79c.89,0,2.35,2.7,2.75,4.34,1.11,4.67,1.39,9.57,2.87,14.1.67,2,3.41,3.39,5.2,5.06,1.53-1.73,4-3.27,4.37-5.22a39.55,39.55,0,0,0,.37-12.38c-.2-1.62-2.66-3.06-4.26-4.38a23.14,23.14,0,0,0-3.73-2.06c4.42-4.1,9.82-4,10.43.14a95.79,95.79,0,0,1,.74,21.2c-.36,4.49-4.14,7.12-9,6.8-5.49-.36-10.29-4.3-11.1-9.06-.58-3.43-.57-7-1.44-10.35-.41-1.59-2.23-2.83-3.41-4.23-.69,1.37-1.94,2.73-2,4.1-.09,5.8.35,11.6.25,17.39,0,1.52-1.24,3-1.91,4.52-1.42-.93-3.14-1.6-4.18-2.84-2.09-2.51-3.81-5.33-5.68-8Z"/><path d="M364.67,771.11c-.39,1.81-.74,3.62-1.2,5.41-.37,1.44-.53,3.15-1.43,4.19-1,1.2-2.78,1.78-4.21,2.64-.16-1.46-.72-3-.41-4.36,1.22-5.45,2.71-10.84,3.73-14.83-3-2.35-4.67-4-6.67-5.14a15.51,15.51,0,0,0-5.9-1.76c-.58-.06-2,2-1.86,2.86.23,1.31,1.46,3.39,2.38,3.46,4.94.37,4.3,2.95,3,6.4-3.25-.29-7-2.86-8.86,2.23-1.47,4.12-.17,6.1,4.2,5.77a18.64,18.64,0,0,0,2-.33l4.52-.82c.06.75.43,1.94.11,2.18-1.5,1.1-3.31,2.89-4.79,2.7-4.68-.61-9.27-2-14.23-3.14,1.88-5.07,3.73-9.3,5-13.7a19.65,19.65,0,0,0,.52-8.14c-.61-3.83,1-5.18,4.29-4.6,7,1.24,13.95,2.72,20.85,4.39,1.18.29,2.19,1.88,3,3.06a63.86,63.86,0,0,1,3,5.67c2.11-2.68,3.35-4.86,5.17-6.32,1.09-.89,3.07-.69,4.66-1a37.49,37.49,0,0,1-1.15,4.09c-1.48,3.57-3.43,7-4.53,10.66-.89,3-.65,6.29-1.31,9.37-.22,1-1.66,1.78-2.54,2.67-.78-.91-1.93-1.69-2.28-2.74-1.2-3.64-2.12-7.37-3.15-11.07Z"/><path d="M463.14,750.91c9.21-5.21,13.53,5.22,21.54,6.54l-5.5-9.79a26.94,26.94,0,0,1,5.06-2.58c.36-.11,1.74,2.44,2.36,3.88,2,4.57,4,9.13,5.68,13.81a89,89,0,0,1,2.29,9.24l-1.63,1.14-18.5-12.84c-2.77,5.39,0,9.4,1.45,13.39,1.1,3,.49,4.88-2.3,6-3,1.21-4.63.34-5-3.18-.58-5.74-1.37-11.47-2.43-17.15C465.68,756.74,464.37,754.26,463.14,750.91Z"/><path d="M577.23,727l-5.73-1.25-.84.65c1.53,1.66,3.07,3.31,4.57,5,1,1.11,1.91,2.27,2.86,3.4a21.37,21.37,0,0,1-3.82,2.78,14.83,14.83,0,0,1-4,.64c-3.31-8.83-7.94-16-16.83-19.35,2.53-3.74,3-3.75,18-.31,0-3.54-.19-7,.08-10.36.12-1.49,1-3.92,1.89-4.11a6,6,0,0,1,4.61,1.67c5.25,5.22,10.25,10.68,16,16.69L588.17,726l-10-12.22-1.93.83C576.51,718.37,576.83,722.17,577.23,727Z"/><path d="M522.59,767.57c.47-.34-.23.58-.8.51-6.21-.76-12.82-.59-18.47-2.83-6.83-2.71-10.37-8.81-10-16.74.22-4.37,1.33-7.89,5.81-9.37,4.66-1.53,9.44-1.95,12.68,2.49,2.09,2.87,3.38,6.38,4.73,9.73C518.58,756.35,520.34,761.45,522.59,767.57Zm-10.26-11.26c-2-4.46-3-8-5.05-10.91-1.08-1.51-3.95-2.31-6-2.28-.76,0-2.11,3.37-2,5.15a27.59,27.59,0,0,0,2,9.58c.63,1.47,3.5,3.19,4.84,2.84C508.31,760.11,510.14,758,512.33,756.31Z"/><path class="cls-1" d="M199.09,693.27c2.32-1.54,4.55-3.25,7-4.55,1.5-.8,3.88-1.9,4.92-1.28,6.05,3.61,12.86,6.55,16.28,13.24.91,1.79,1.2,4.94.2,6.36s-4,2-6.06,1.82c-2.91-.26-5.76-1.48-8.59-2.43-6-2-11.86-4-18-6.15l4.45-7.19Z"/><path d="M243.32,705.75c12.88,3.53,15.88,13.09,9.53,21.57a36.56,36.56,0,0,1-8.23,7.86c-5.66,4-16.42.73-19-5.48a3.06,3.06,0,0,1,.78-2.84C234.79,722,239,713.89,243.32,705.75Zm-10,25.31c4.89,2.25,8.44,1.17,10.85-1.79,3.27-4,7.35-8.1,5.62-14.08-.16-.57-3.8-1.12-4.51-.39a80.2,80.2,0,0,0-7,9C236.63,726.09,235.1,728.46,233.34,731.06Z"/><path d="M543.69,753.91c0-6.24.23-11.16-.08-16a21,21,0,0,0-2-8.54c-1.19-2.18-1.67-3.82.45-4.94a10,10,0,0,1,6.11-1.25c1.94.4,3.73,2.09,5.34,3.51,3.83,3.38,7.68,6.79,11.18,10.51,1.34,1.42,1.73,3.74,2.55,5.65-2.26-.16-4.88.34-6.72-.63-3.72-2-6.93-1.84-9.39,1.44a2.42,2.42,0,0,0-.6,1.72C552.45,751.41,547.3,751.26,543.69,753.91Zm5.77-23.46c-2.84,3-4.08,5.7-1.07,7.67.89.59,3.11-.85,4.72-1.36Z"/><path d="M512.49,738.18c1.06-.85,2.46-2.47,4.23-3.27,4.23-1.93,5.15-1.15,4.82,3.51-.3,4.39,4.9,12.86,8.78,14.31,3.26,1.21,6.68-2.05,5.46-5.88-1.7-5.36-4.25-10.46-6.85-16.67l5-2.31c.6,1.67,1.21,3.33,1.79,5,.91,2.65,1.85,5.29,2.67,8,.68,2.22,1.24,4.47,1.79,6.73,1.18,4.81-.41,8.53-4.69,11-3,1.71-9,.08-11.6-3.35-1.91-2.47-3.3-5.34-5-8S515.17,742,512.49,738.18Z"/><path d="M251.51,738.57c0-8.27,9.18-17.25,17.89-17.58,4.37-.17,6.19,2.72,6.71,6.52,1,7.23-6.61,18-13.79,19.85C255.89,749,251.29,745.25,251.51,738.57Zm20.33-9.19c-.3-.55-.71-2.44-1.7-2.82-1.49-.58-4.28-.82-5,0a83.91,83.91,0,0,0-8.62,12.94c-1.3,2.46.49,4,3.37,3.6C264.42,742.48,271.46,734.83,271.84,729.38Z"/><path d="M392.77,770.41c2.7,8-.45,16-7.46,17.35-2.64.5-6-1-8.47-2.52-.84-.51-.22-4,.33-5.9.26-.92,1.92-1.44,2.95-2.15.57,1,1.2,2.07,1.68,3.16.62,1.39,1.11,2.84,1.65,4.27,1.25-1.17,2.85-2.12,3.69-3.54,2.32-3.91,1.88-7.49-1.73-10.66-2.59-2.28-5.23-5.66-2.27-8.5,2.24-2.15,6.35-2.71,9.73-3.13,1.31-.16,4.22,2.14,4.13,3.09-.28,2.89-1.68,5.67-2.65,8.5Z"/><path d="M339.07,750.78c-.44,1.2-.47,1.82-.8,2.1-5.83,4.94-4.7,12.52-7,18.78-1.09,2.91-2.61,4-5,2.81-.81-.42-.89-3.36-.47-4.92,1.69-6.22,3.62-12.37,5.67-18.48.36-1.06,1.88-2.58,2.66-2.47C335.83,748.86,337.43,750,339.07,750.78Z"/><path class="cls-1" d="M337.16,585.93c4,4.76,2.15,13.45-3.31,16.62a62.67,62.67,0,0,0-10.5,7.26c-2.12,1.9-5.52,5-2.38,7.79,2.29,2.06,7.49,3.95,9.45,2.75,9.15-5.62,20.85-6.08,28.63-14a86.24,86.24,0,0,0,10.18-13.22c1.45-2.19,1.93-2.67,4.83-1.8,4.61,1.38,9.28,4.15,14.73,1.42,1.92-1,5.09.61,8.4,1.12-3.42-6.9-7.41-12.45-8.87-18.6s-.31-12.7-.31-19.09l-1.62-.14c-.48,3.42-.95,6.83-1.43,10.25l-2.45-.16a71.54,71.54,0,0,0-.07-8.91,41.82,41.82,0,0,0-2.28-9.44c-1-2.77-4.09-5-1.41-8.4a2.11,2.11,0,0,0-.2-1.88c-2.4-3.69-4.58-7.6-7.48-10.87-1.69-1.91-4.61-2.72-6.92-4.12-4.51-2.76-8.92-5.71-13.51-8.33-2-1.15-4.39-4.78-6.63,0a2.89,2.89,0,0,1-2.57,0c-4.6-5.08-11.71-4.93-17.07-8.36a3.48,3.48,0,0,1-1.83-2.37l11.82,1.47c-.45-3.42-3-4.62-6.7-5.36-4.83-1-9.88-2.11-14.06-4.52-2.5-1.44-4.5-5.31-4.93-8.34-.49-3.51,3.23-4.52,6.26-5.18,5.34-1.15,10.7-2.25,16-3.44,1.87-.42,3.69-1.05,5.54-1.59l-.15-1.51c-3.63,0-7.27.16-10.89,0-5.24-.28-5.58-1.19-3-5.95.48-.88.18-2.18.28-4l-10.82,2.45-.26-1.38c6,.59,10-7.75,17.45-2.53,2.29,1.6,6.22,1.5,9.25,1.11,1.71-.23,3.13-2.64,4.68-4.07-1.72-1-3.69-3-5.13-2.7-5,1.11-9.28.18-13.7-2.05a11.68,11.68,0,0,0-11.28-.13c-2.91,1.42-7.09.27-10.7.27,0-.51,0-1,0-1.54l4.61-.41c-7.68-1.94-15.3-4.21-23.2-2.09-.94.25-1.46,1.87-2.3,2.72a10,10,0,0,1-2.93,2.33c-3.47,1.43-7.25,2.23-10.47,4.06-1.72,1-3.64,3.63-3.51,5.38.3,4-.42,8.24,2.36,12,1,1.41.16,4.23.16,6.41l-1.36.29c-.81-1.27-1.61-2.55-2.42-3.83l-1.12.28c.65,1.79,1,3.76,2.05,5.29s2.69,2.47,4.08,3.68l-.83,1.13-5.14-2.46-4.52,13.59c-10.53-3.6-16.36-12.85-23.25-20.9-2.11-2.48-4.18-3.69-7.17-.18l-3.13-8.49c8-1.94,10.61-9.14,14.54-14.73,4.48-6.36,7.8-13.52,12.09-20,1-1.52,3.82-2.56,5.82-2.59,15.14-.29,30.29-.24,45.44-.37q22.17-.19,44.36-.53c7.32-.12,8.25.29,6.67,7.51-2.47,11.31-5.64,22.48-9,33.56-1.28,4.18-1,7.06,2.11,10.27a184.78,184.78,0,0,1,14.36,16.4c1.93,2.5,3.37,3,6.14,1.88,12.91-5.44,26.72-6.23,40.4-7.78,4.55-.52,5.46,1.17,5.44,5.08-.1,18.66-.06,37.32-.09,56,0,27.14,0,54.27-.16,81.41-.09,15.58-.43,31.17-.68,46.75a7.16,7.16,0,0,1-1.42,4.51c-1.71-3.27-3.34-6.59-5.14-9.81a80.32,80.32,0,0,0-34.32-33c-12.42-6.37-24.27-13.85-36.61-20.39-3.94-2.09-8.62-2.83-13-4.06-2.34-.66-4.34-1.08-4.23-4.43.05-1.35-1.76-3.12-3.15-4.09C303.83,608,293.91,601.26,284,594.5a17.58,17.58,0,0,1-2.45-1.71c-4.49-4.32-7.57-4.9-12.68-1.58-6.11,4-12.07,8.17-18,12.44-2.59,1.87-4.59,2.13-6.85-.54-8.69-10.26-17.54-20.39-26.25-30.64-10-11.78-19.91-23.65-29.87-35.46-3.53-4.17-6.92-8.48-10.73-12.38-2.8-2.88-2.16-4.41.76-6.66q16.58-12.77,32.78-26c2.82-2.29,5.15-5.2,7.69-7.84,1.86-1.93,3.6-1.77,4.8.54,3.66,7,7.68,13.85,10.67,21.13,4.78,11.67,12.3,20.83,23.09,27.12,5.94,3.46,6,3,3.93,9.58-2.85,9.14-8.65,16.31-14.68,23.44-3.79,4.5-8.36,9-5,16.39,4.52-.74,8.5-1.78,12.58-5.19C266,567,277.33,554.84,294.6,553.75c8-.51,16.24-.62,22.68,2.81-2.95,4.59-6.08,8.9-8.62,13.54-4.59,8.41-9.39,10.85-19.25,9.1-5.43-1-6.47-.62-9.43,4,6.64,3,13.09,6,19.63,8.77a10,10,0,0,0,4.9.63c9.85-1.27,19.69-2.63,29.5-4.18,1.21-.19,2.19-1.73,3.28-2.65Zm1.58-114.12.37-1.32H324.78C326.27,473.72,328.32,473.87,338.74,471.81Z"/><path class="cls-1" d="M588.9,449.32c-9.64-4.79-18.35-4.67-24.48,3.6-2.76,3.72-2.8,9.47-4,14.33a30.85,30.85,0,0,0-.14,3.49c-.59,5.65-3.5,9.2-8.14,10-3.87.67-9.37-2.62-11.55-7.26-2.81-6-5.31-12.1-8.06-18.1C527.79,445,518.86,441,508.19,440.17c-1.38-.11-3.75,1.61-4.26,3-1.87,5.08-5.4,4.94-9.15,3.22-7.12-3.27-13.53-.65-20.16,1.46a65,65,0,0,0,6.31,27.47c1.56,3.31,1.83,5.82-1.91,8.44-3.44,2.42-6.24,6-8.67,9.55-2.27,3.28-4.61,4.11-8.38,3.08-15.65-4.27-31.74-6.47-47.82-5.31-15,1.07-29.81,4.19-44.67,6.63-2.88.48-4.6.58-6.64-2.26-3.26-4.55-7.65-8.28-11.23-12.63-1.13-1.38-2.18-4.06-1.6-5.45,7-16.55,9.69-33.84,9.23-51.65a108.84,108.84,0,0,0-10.18-42.47c-4-8.82-4.25-8.72,2.34-16,8.94-9.89,8.86-9.66,21.06-5.52,24.22,8.23,48.76,11.61,73.86,3.86,7-2.16,13.95-4.39,21-6.14a7.66,7.66,0,0,1,6.1,1.38c4.16,3.81,7.72,8.25,11.67,12.28,1.77,1.8,2.13,3.26.87,5.62-10.07,18.9-13.92,39.21-13.26,60.48,0,1.33-.1,2.82.46,3.93s1.9,1.79,2.89,2.66c1-1.12,2.63-2.16,2.78-3.39.83-6.56.69-6.5,7.59-6.39,29.95.48,59.9.8,89.85,1.53,2.66.06,5.6,2.26,7.77,4.19C586,443.4,586.94,446.12,588.9,449.32Zm-224.79-68.7c3.05,3.1,5.2,5,7,7.22,2.29,2.74,5.57,5.46,6.21,8.63,1.63,8.06,2.08,16.37,2.91,24.59,1.11,11.05,1.8,22.16,3.31,33.16.87,6.32-.39,11.32-5,15.68-1.69,1.59-2.84,3.75-4.62,6.18H406c-1.42-2.24-2-3.65-3-4.69a22.25,22.25,0,0,1-6.41-18.16,138.8,138.8,0,0,0,.13-18.47c-.21-4.6,1.87-5.78,6-5.67,9.29.26,18.6.5,27.89.3,4.21-.09,5.76,1.59,5.77,5.44,0,7.83.3,15.67,0,23.48a19.16,19.16,0,0,1-2.5,7.8c-1.72,3.26-4,6.22-6.71,10.29h33c-3.34-4-6.21-7.16-8.65-10.6-1.15-1.63-2.25-3.91-2.08-5.78,1.68-18.21,3.83-36.39,5.41-54.61.66-7.57,2.9-13.77,9.57-18,1.7-1.08,2.74-3.19,4.08-4.83l-.89-1.25h-45c4.59,4.37,8.34,7.65,11.68,11.3a9.4,9.4,0,0,1,2.25,5.57,66.15,66.15,0,0,1-.74,12.89c-.25,1.52-2.31,3.89-3.6,3.92-10.32.26-20.64,0-31,0-2.72,0-3.94-1.23-3.85-4,.1-3,.56-6.09,0-9-1.24-6.1,1.44-10.29,5.74-13.91,2.36-2,4.81-3.85,7.22-5.76-.39-.59-.77-1.18-1.15-1.77Z"/><path class="cls-1" d="M375.63,327.24c-1.75-3.59-3.43-6.62-4.72-9.82-2.05-5.05-.17-7.24,5.3-6.37,1.3.21,2.57.95,3.85.95a13.62,13.62,0,0,0,3.63-1c-.8-1.38-1.37-3-2.49-4-.7-.64-2.4-.07-3.34-.6a17.48,17.48,0,0,1-4-3.33c-.14-.14.93-2.08,1.52-2.12a13.5,13.5,0,0,1,4.92.6c.84.27,1.36,1.83,2.15,2,3,.42,6.36,1.42,8.88.41,2.07-.83,3.26-4.12,4.5-6.5.29-.54-.84-1.82-1.31-2.76a8.45,8.45,0,0,0-2.38,1.4c-1.07,1.24-1.62,3.08-2.89,4-1.09.76-3.22,1.18-4.29.6a48.36,48.36,0,0,1-9.57-7,49.72,49.72,0,0,1,7.44,1.75c2.33.91,4.92,2.12,5.89-.81.61-1.85-.14-5.7-1.43-6.35-4.19-2.09-5.82-5.36-7.47-9.4-1.09-2.68-3.84-5-6.38-6.73-5.79-3.86-11.64-7.85-18-10.59-5.61-2.42-12-4.05-18.11-1.52-2.37,1-4,3.76-5.94,5.77-4.53,4.7-9,9.44-14.16,14.82L324,282.9l-9.72,14.62c4.21,1,4.7,2.73,3.11,6.08a121.61,121.61,0,0,0-6.28,16.77c-.64,2.13.41,4.72.34,7.08-.21,7.85-4.31,14.25-8.52,20.38-1.26,1.83-4.95,3.54-6.83,3s-4.23-4.12-4.09-6.21c.77-10.89,1.64-21.85,3.68-32.55,1.93-10.1,5.37-19.91,8.14-29.84,2.38-8.51.61-17-1.51-25.06-.94-3.57-5-7.1-8.59-9-5.51-3-11.27-6.26-18.3-4.26-4.1,1.17-6.81,3-7.78,7.29-1.17,5.15-3.88,9.72.12,15.51,3.34,4.83,4.24,11.34,6.28,17.08.33.91.89,2.34,1.51,2.43,4.79.73,4.27,4.93,5.42,8,.73,2,1.16,4,2.1,7.32a25.7,25.7,0,0,0,5.06-16.8c-.45-8.59-2-17.13-2.72-25.72-.15-1.83.75-4.45,2.1-5.48,1.1-.84,4.3-.53,5.33.5,2,2,4.42,4.87,4.45,7.41.11,8.39.29,17-1.51,25.14-2.95,13.26-8.38,26-11,39.28-2.76,13.84-2.34,27.89,6.8,40.07a2.24,2.24,0,0,1,.54.83c1.23,7.65,2.75,15.27,3.54,23,.4,3.94-2.19,6-6.38,5.73a21.27,21.27,0,0,0-6,.11c-2,.45-3.85,1.6-5.77,2.44l.35,1.4,3.92,1.26a5.07,5.07,0,0,1-.49,1.54c-1.89,2.32-4.21,4.38-5.63,6.94a10.57,10.57,0,0,0-1.17,6.53c.8,4.29,2.34,8.43,3.69,13H256.49c.73-2.18,1.12-3.73,1.75-5.18,10.91-25.13,18.62-51,17-78.78-1.77-30.49-15.14-54.43-41.64-70.26-5.78-3.46-12.37-5.55-18.56-8.34-1.58-.71-3-1.68-5.2-2.88l20.64-23.76c9.59-11,19.05-22.19,28.9-33a10.55,10.55,0,0,1,7.58-3.11c27.76,2.38,50.82,15.58,72,32.56,9.09,7.3,19.66,11,30.38,14.39,8.07,2.56,16.51,3.93,24.67,6.25a15.57,15.57,0,0,1,7.34,4.48,106.54,106.54,0,0,1,9.58,14,14.06,14.06,0,0,1,1.48,6.68c.24,11.32.28,22.65.34,34,0,1.69-.29,3.38-.49,5.44-2.93-3.26-5.35-5.91-7.74-8.6-2-2.26-1.66-4.2.93-5.71,1.37-.79,2.77-1.51,4.57-2.5-5-2-7.56-1.08-10.2,2.59-1.26,1.77-3.19,3.07-4.86,4.55-.36.32-1.13.38-1.27.74C390.46,320.16,381.16,320.8,375.63,327.24Z"/><path class="cls-1" d="M624.6,269.84c-42.12,14-65.41,42-65.69,87.2a6.74,6.74,0,0,1-2.19-.42c-10.58-6.89-21.86-5.56-32.4-1.1-8.93,3.78-17.15,9.4-25.23,14.88-3.75,2.55-6.11,2.33-8.91-.69-4.74-5.11-9.61-10.12-14.23-15.33a5.35,5.35,0,0,1-.84-3.95c1.31-8,6.49-12.61,13.79-15.48,7-2.74,14-5.43,20.57-9,11.11-6,22.83-11.24,29.82-22.77,5.26-8.68,8.62-17.68,6.08-27.94a84.9,84.9,0,0,0-3.67-11.63c-.74-1.83-2.49-3.26-3.84-4.82-.53-.61-1.59-1-1.78-1.63-2.85-9.63-10.81-10.41-18.86-10.94a21.39,21.39,0,0,0-6.45.35c-1.37.34-2.47,1.72-4.24,3-4.94-1.83-8.34-.78-8.89,2.35-3.68,1.31-7.15,1.8-9.69,3.6-6.09,4.32-13.09,4.39-19.92,5.17-10.28,1.19-15,9-20,16.41-.5.76,1.42,3.12,2.15,4.6-3.17-.06-7.29,1.25-8.66,6.13-.38,1.33,1,3.15,1.78,5.15-3.48,1.87-8.67,3.6-6.76,10.42.31,1.08-1.32,2.6-1.74,4-1.88,6.32-4.36,12.58-5.23,19.06-.71,5.29-3.25,8.31-8.15,11.51-.2-4.18-.48-7.6-.49-11-.06-14.82-.08-29.64,0-44.45a10,10,0,0,1,1.52-4.51c2.2-3.91,4.45-7.79,6.93-11.53,3.61-5.47,8.43-8.54,15.22-10,13.6-2.89,27-6.7,40.32-10.87,4.41-1.39,8.29-4.8,12.11-7.69,15.52-11.7,32.06-21.56,50.89-26.83a108.6,108.6,0,0,1,21.64-3.36c2.22-.15,5.2,2.12,6.88,4.09C591.8,229.86,606.89,248,622,266.07,622.84,267.06,623.48,268.2,624.6,269.84Z"/><path class="cls-1" d="M501,589.94c.19,1.1.81,2.43.44,2.83-4.8,5.21-2.89,11.56-2.84,17.44,0,4.35-.73,7.52-5.21,8.94a4.35,4.35,0,0,0-2.09,1.32,24.09,24.09,0,0,1-12.4,9c-1.22.39-2.68,4.24-2,5.36,1.47,2.56,4.28,3,6.73.55a28.74,28.74,0,0,0,2.3-2.62c4.24-5.3,7.8-11.58,16.37-10.62-.1.61-.3,1.76-.57,3.41l4.94-.35c-1,3.53-1.34,3.94-3.73,2.36-3.14-2.07-5.31-1.3-8,.76-5.46,4.14-10.71,9.42-16.95,11.5-11.56,3.85-21.48,10.08-30.7,17.51-10.23,8.25-17.7,18.85-22.89,31a40.07,40.07,0,0,1-2,4c-.2.36-.79.5-2,1.19-.47-1.91-1.21-3.5-1.2-5.09.1-18.46.3-36.91.5-55.37.17-15.14.47-30.27.55-45.41q.19-39.92.15-79.82c0-11.34-.14-11.4,11.12-10.67,4.14.26,8.24,1.1,12.38,1.35s5,2.15,4.35,5.92q-3.86,23.59-7.33,47.25c-.56,3.83-.45,7.76-.68,12.25l6.52-1.68c-5.1,6.72-1.19,12.54,0,18.28,2.77,13.31,6.16,26.49,9.45,39.68.91,3.67,2.36,7.2,3.77,11.39.53-.45,2-1.16,2.6-2.32,3.43-6.86,7.49-13.58,9.74-20.84,3-9.74,9-17.83,13.26-26.82,1.17-2.46,4.94-3.68,8.17-5.92v19.07Z"/><path class="cls-1" d="M430.87,335.4l4,5,1.48-.79c-.55-1.75-1-3.56-1.67-5.26-3.71-9.18-1.56-17.61,3.38-25.59a8.35,8.35,0,0,1,3.78-2.68c4-1.68,8.85-2.23,12-4.87,7.44-6.24,16-9.62,24.94-12.64a31.94,31.94,0,0,0,10.73-6,10.79,10.79,0,0,0,3.21-7.81c-.37-4.91,2.44-6.19,5.89-6a82.35,82.35,0,0,1,17.52,2.5c2.24.62,3.5,4.28,5.55,6.18a51.2,51.2,0,0,0,5.94,4.33,73.62,73.62,0,0,0-4.25,6.91c-3.59,7.27-10,10.85-17.15,13.39-14.75,5.23-29,11.48-42.19,20-8.14,5.23-13.58,12.55-18.09,20.76-2.59,4.71-6.28,9.19-3.94,15.32.23.6-1.46,2.66-2.5,2.87a124.11,124.11,0,0,1-15.21,2.2c-.94.07-2.87-2.11-2.95-3.34-.32-5.3-.18-10.64-.05-16a4.21,4.21,0,0,1,1.23-3C425.15,338.92,428,337.27,430.87,335.4Z"/><path class="cls-1" d="M595.35,578.26l10.56-24.37a19.67,19.67,0,0,1,.93,3.44q-.11,11.73-.33,23.45c0,1.06-.07,2.45-.7,3.13-5.18,5.56-10.68,10.82-15.7,16.51-2.45,2.78-4.38,2.92-7.16.81-4.08-3.11-8.28-6.08-12.51-9-3.42-2.36-6.89-5.4-11-.06-1.54-5.27-4.08-5.07-8-3.08a41.47,41.47,0,0,1-11.74,3.49c-2.39.4-4.82-.6-3.77-4.1.14-.47.35-1.24.14-1.43-5.87-5.22.11-8.74,1.87-12.77,3.71-8.52,7.57-17,11.43-25.41.73-1.59,1.75-3,3.35-5.78l2.51,9.21,6.39-9.28.86.44v15.79l1.35.44,6.83-13.09,1.39.27-2,15.31,1.76.79,9.75-17.83,1,.47q.61,12.28,1.22,24.57l1.79.36,8.27-17.45,1.44.33q-1.06,12.14-2.14,24.29Z"/><path class="cls-1" d="M612.14,575.29c1.1-8.46,2.75-17.29,3.26-26.18.52-9.07-.08-18.2-.18-27.31,0-3.62.26-7.28-.11-10.87-1-9.58-2.24-19.13-3.37-28.57,11,9.63,21.51,19.06,32.28,28.23a94.85,94.85,0,0,0,11.5,7.86c2.53,1.56,3.28,2.88,1.05,5.41q-17.45,19.77-34.71,39.72C618.51,567.44,615.34,571.44,612.14,575.29Z"/><path class="cls-1" d="M536.84,430.18c4.36-5.6,8.46-11.15,12.87-16.46,5.75-6.93,1.79-13.35-.49-19.43,3.95-2.8,7.87-5.4,11.57-8.27,2.55-2,2.42-2.14-.53-5.07l6-.39c-6.93,10.58.55,19.2,3,28.19,1.94,7.25,5.78,14,9,21.43Z"/><path class="cls-1" d="M412.56,330c0,9.79.07,20.42-.11,31.05,0,1-1.55,2.81-2.45,2.85a6.25,6.25,0,0,1-4.06-1.8c-.88-.83-1-2.42-1.55-3.62-1.35-2.92-3.38-3.73-6.49-2.45-7.13,2.92-13.38.17-19.11-3.77-3.23-2.22-2.54-6.43.67-8.72,3.6-2.57,6.62-6.56,10.57-7.88,4.83-1.61,5.66-5.61,8.09-8.73,2.22-2.85,4.74-2.34,7.46-.62C407.41,327.48,409.42,328.36,412.56,330Z"/><path class="cls-1" d="M502.09,597.68c6.42-2.8,5.43-12.92,14.74-14.5.15-.3.79-1.64,1.54-2.91,1.64-2.79,2.79-3.69,6.92-2.29,5.21,1.76,5.3,4.7,5.65,8.57.73,7.8,2.17,15.73-3.68,22.38-1.17,1.33-2.84,2.93-4.41,3.08a85.21,85.21,0,0,1-13,0c-.73,0-1.79-1.47-2-2.41C506.22,601.94,506.27,601.93,502.09,597.68Z"/><path class="cls-1" d="M321,376.23c1.48-1,2.84-2.34,4.48-3,5.86-2.22,11.82-4.19,17.62-6.21.08-.29.13.72-.32,1.05-4.63,3.42-3.79,7.13-1.53,11.7,6.72,13.62,10.45,28.17,12.19,43.25.37,3.21.09,5.62-4.09,5.48a24.39,24.39,0,0,0-4.68.61c-2.86-6.09-6-11.54-8-17.4-1.28-3.89-1.14-8.37-1-12.57.14-5.29,1.62-10.62,1.14-15.81a13.1,13.1,0,0,0-5.09-8.77c-3.23-2.07-7.37-.92-9.82,3.11Z"/><path class="cls-1" d="M521.85,431.31c-3.34-.67-6.18-1.66-9.05-1.74-9.81-.3-19.62-.39-29.44-.34-3.53,0-4.93-1.31-4.35-4.77q1.35-8.11,2.67-16.25c.56-3.37,2.28-4.28,5.88-4.34,7-.1,10.32,2,11.68,9.57,1.66,9.23,9.6,12.5,18.76,9.93,3.88-1.1,8-1.19,12.12-1.74-1,1.13-2.45,2.9-4,4.65S523.17,429.78,521.85,431.31Z"/><path class="cls-1" d="M312.39,429.28c-1.32-9.95-5.39-12.63-15.44-10.17a16.41,16.41,0,0,1-4.41.69,30.7,30.7,0,0,1-5-1c.8-1.83,1.14-4.71,2.48-5.29a57.69,57.69,0,0,1,12.67-3.66c3.06-.54,6.37.36,9.43-.16,6.69-1.15,14-2,13.6-11.93,1.22,6.75-.52,9.72-5.83,12.3-3.64,1.77-2,4.68-.84,7.22.47,1,1.9,1.71,2,2.64.72,7.26,4.82,10.49,11.85,11.1l-20.68-1.87Z"/><path class="cls-1" d="M479.85,452H491.4c.61,1.56.79,3.11,1.65,4,8.88,9.36,9.06,16.17.57,26.39-2.43,2.92-4.79,5.89-7.45,9.16l-3.76-2.15c.16-.52.16-.92.36-1.13,7.19-7.16,6.93-7.06,3.15-16.63C483.52,465.61,482,459.17,479.85,452Z"/><path class="cls-1" d="M460.76,532.48l-2.11,16.77c-7.65-1.1-4.8,9.12-10.65,11.28l11.78-28.21Z"/><path class="cls-1" d="M527.35,457.94l-13.71-4.41c.71-2.23,1.38-4.31,2.41-7.56l12.1,10.34C527.88,456.85,527.62,457.4,527.35,457.94Z"/><path class="cls-1" d="M269.7,514.57c1.12,1.88,2.11,3.28,2.82,4.81s1.83,3.31,1.47,4.62c-.5,1.81-2.22,3.27-3.42,4.88-1.16-1-2.7-1.82-3.42-3.09C265.51,522.88,267.65,515.81,269.7,514.57Z"/><path class="cls-1" d="M524.84,386.77c-2-6.15,3.4-6.16,6.3-9.46l-.56,3.81c3.32,3,8.82,1.28,11.17,5.58C536,387,531,380.21,524.84,386.77Z"/><path class="cls-1" d="M281.18,474l25.94-6.91c.16.62.31,1.24.46,1.86l-26.11,6.83Z"/><path class="cls-1" d="M249.67,509c2.82-.2,6.19-1.41,8.25-.26,1.59.87,1.52,4.73,2.53,8.56l-10.85-6.17Z"/><path class="cls-1" d="M270.05,485.8c2.85,1.71,5.45,10.22,4,12.38a2.33,2.33,0,0,1-2,.88c-.8-.31-1.89-1.2-1.93-1.89C270,493.47,270.05,489.76,270.05,485.8Z"/><path class="cls-1" d="M337.29,585.81l-8.83,2,4-3.6-6.73,1.71c.74-2.06,4.36-2.82,1.68-5.06,1.31-.31,3.15-1.33,3.83-.81a54.67,54.67,0,0,1,5.91,5.88Z"/><path class="cls-1" d="M312.26,429.18c-1.22.76-3,2.46-3.58,2.12-5.09-3.15-9.91-.34-14.83.22a17.08,17.08,0,0,1-3.13-.29c3.73-1.64,7-3.17,10.28-4.44.75-.28,1.84.37,2.77.58l8.6,1.9Z"/><path class="cls-1" d="M559.56,523l6-6.07,6.79,6-.83.7c-2.22-.62-4.41-1.67-6.64-1.74A18.6,18.6,0,0,0,559.56,523Z"/><path class="cls-1" d="M285.08,499.55c-1.3-.67-3.6-1.22-3.71-2-.31-2.45-1.65-5.72,3.09-7.13.62,2.65,1.21,5.19,1.81,7.73Z"/><path class="cls-1" d="M269.92,468.91l2.43-3.39h-3.08l-.08-1.36,9.72-1.14c.21.35.43.69.65,1l-8.47,6.35Z"/><path class="cls-1" d="M470.72,524.7l8.14-10.18C479.61,520,475.62,525.34,470.72,524.7Z"/><path class="cls-1" d="M493.34,546.27l-5.4,4.3L485.1,543l1.15-.72c2,1.3,2.39,6.4,7.09,1.21Z"/><path class="cls-1" d="M301.25,460.38h18.23v.93H301.29Z"/><path class="cls-1" d="M522.51,615.09c.09,1.82.09,1.82-11.28,5.13-.4-3.14-.39-3,4.33-3.51A56,56,0,0,0,522.51,615.09Z"/><path class="cls-1" d="M366.91,337.79c1.46.53,2.92,1,4.38,1.6.1,0,.1.31.19.45l3.11,4.84c-2.48-1.23-5-2.44-7.45-3.74-.35-.19-.47-.85-.69-1.29Z"/><path class="cls-1" d="M302.11,483.26l2.24,2.43c-2.37,1.21-4.71,2.5-7.17,3.52-.24.1-1.16-1.42-1.76-2.19Z"/><path class="cls-1" d="M518.63,411l12.28-3.21c.08.44.48,2.3.45,2.31-4.12,1-8.26,1.79-12.41,2.63C518.85,412.13,518.74,411.55,518.63,411Z"/><path class="cls-1" d="M342,518.39l-14.22-4.61.43-1.4,14.21,4.39Z"/><path class="cls-1" d="M296.83,461.47l-13.45,1.36-.15-1.33,13.54-1.8Z"/><path class="cls-1" d="M502.5,396.77c-.41-5.58-.41-5.58,7.36-7.84Z"/><path class="cls-1" d="M295.47,464.57c-4.37,5.69-6,5.71-9,.62Z"/><path class="cls-1" d="M538.28,603.24l9.6-3.59C547.66,602.77,544,604.43,538.28,603.24Z"/><path class="cls-1" d="M308.89,533.41l12.11,4.5-.72,1.88-11.91-5Z"/><path class="cls-1" d="M574.57,485.67c1.87,9,1.56,9.65-3.64,9.21Z"/><path class="cls-1" d="M518.85,481.66c1,1.76,1.77,3.26,2.79,5.15l-7.55,3C516,486.5,517.32,484.27,518.85,481.66Z"/><path class="cls-1" d="M370.12,43.09c30.3,0,60.62-.69,90.9.18A570.87,570.87,0,0,1,563,55.48c33.45,7.08,66,17.11,96.84,32.08,10.88,5.28,21.71,10.71,32.32,16.53,9.91,5.44,14.23,13.29,4.46,24.1a336.25,336.25,0,0,0-21.54,27.18c-3.19,4.38-5.15,9.65-7.71,14.5-3.77,7.15-7,7.43-14.11,3.9-8.58-4.23-17.73-7.32-26.69-10.75-9.45-3.61-18.74-8-28.52-10.33-19.68-4.62-39.57-8.49-59.52-11.8-14.72-2.44-29.64-3.69-44.51-5.12-22.8-2.2-45.59-4.82-68.45-5.87-17.05-.79-34.23.19-51.31,1.14-21.91,1.21-43.84,2.63-65.65,5-19,2.05-37.92,4.91-56.64,8.64-11.82,2.35-23.26,6.75-34.74,10.64-9.41,3.2-18.64,7-27.89,10.62a22.41,22.41,0,0,0-5,3.23c-4.09,3.1-8.37,2.69-11-1.72-4.06-6.66-7.23-13.89-11.64-20.28-4.93-7.15-10.79-13.66-16.31-20.39-2.1-2.56-4.75-4.74-6.48-7.52-3.68-5.89-2.78-12,3.35-15.67a336.53,336.53,0,0,1,32.57-17.25,386.21,386.21,0,0,1,91.1-28.88c25.19-4.57,50.56-8.21,75.92-11.83,9.35-1.33,18.88-1.43,28.33-2.09ZM410.82,75l1.59-.08c3.18,6.13,6.49,12.19,9.49,18.4,2.44,5.07,4.43,10.35,6.81,15.44a31.94,31.94,0,0,0,3.35,4.84c1.14-1.49,2.67-2.82,3.35-4.49,4.93-12.19,9.45-24.55,14.66-36.61,1.31-3,4.62-5.25,7.1-7.76,1.15-1.16,2.82-1.91,3.69-3.22,1.72-2.57.29-5.21-2.79-5.16q-7.71.13-15.4.79c-1.49.13-2.89,1.16-4.33,1.77.85,1.32,1.61,2.7,2.55,3.94,1.34,1.77,4.28,3.79,4,5.08a138.18,138.18,0,0,1-6.31,19.2c-1.15,2.8-3.85,2.61-5.45,0-5.13-8.4-12.42-15.84-11.91-26.82a5.58,5.58,0,0,0-1.91-4.2c-3.29-2.33-15.69-.2-18.21,2.55,1.87,2.09,5.46,4.34,5.25,6.16-.79,7.15-5.64,12.53-10.23,18.5a97.19,97.19,0,0,1-6.68-18.66c-.27-1.06,1.29-2.64,2.11-3.91s1.62-2.2,2.44-3.3c-1.35-.77-2.75-2.27-4-2.18-6.61.46-13.22,1.22-19.78,2.17-1.1.16-2,1.81-3,2.76,1.21.85,2.45,2.45,3.63,2.42,4.47-.15,6.18,2.37,7.16,6.13,1.39,5.31,2.87,10.6,4.36,15.88,2.22,7.83,4.39,15.67,6.82,23.44.48,1.55,2,2.78,3.06,4.16,1.23-1.23,2.78-2.26,3.61-3.72,1.39-2.44,2.3-5.16,3.45-7.74Q405,87.91,410.82,75ZM217.14,144.69l.08-1.72c-2.17-.81-4.36-1.56-6.51-2.42s-5.53-1.34-6.47-3a55.62,55.62,0,0,1-4.72-13c-.29-1.09,1.11-3.47,2.27-3.94a124.85,124.85,0,0,1,14.62-4.91c1.49-.4,4.43-.06,4.82.8,2.93,6.48,8,12.61,4.69,20.51-1.36,3.24.16,4.72,3.11,4.15a121.58,121.58,0,0,0,13.44-3.7c.92-.29,2.16-1.43,2.18-2.21s-1.32-1.56-2.07-2.35c-2.22-2.34-5.36-4.3-6.51-7.08-4.32-10.42-7.95-21.13-11.94-31.69-1.79-4.73-1.4-8.7,2.86-12,1-.77,1.35-2.38,2-3.6-1.41-.6-3-2-4.2-1.66-7.07,1.8-14.06,3.94-21,6.13-.93.29-2.34,1.69-2.2,2.26A4.25,4.25,0,0,0,203.89,88c9.35,2.68,9.78,11.06,12.55,18.54-3.47,1.07-6.47,1.94-9.44,2.92-11.71,3.83-12.44,3.5-16.05-8.35-1.32-4.34-1.12-8.19,3.78-10.53,1-.48,1.31-2.46,1.94-3.74-1.47-.23-3.23-1.1-4.37-.59q-11.58,5.19-22.89,10.94c-1.33.67-2.1,2.44-3.12,3.7,1.63.89,3.18,2.09,4.93,2.55,1.35.37,3-.13,4.44-.33,3.47-.45,5.65.9,6.89,4.27q5.55,15.14,11.4,30.18c1.21,3.09,1.31,5.4-1.2,8.11-1.18,1.27-.59,4.18-.8,6.35a33.13,33.13,0,0,0,5.29-.29,47.11,47.11,0,0,0,6.16-2C208,148.07,212.56,146.37,217.14,144.69ZM558.1,95c1.87-1.07,4.28-2,6.11-3.6,3.77-3.28,8.94-6.08,7.28-12.43-1.5-5.7-4.86-11.31-10.46-12.29-11.24-2-22.78-2.3-34.21-3.15-1.52-.11-3.11.76-5,1.26,3.29,2.45,7,3.86,8.13,6.41,1.32,2.91.54,6.86.39,10.34-.55,12.54-.29,25.28-8.69,36-.48.61.89,3.94,2,4.27a77.44,77.44,0,0,0,12.67,2.63c1.75.23,3.64-.5,5.38-.78-2.2-2.81-5.64-5.22-5.49-7.4.43-6.66,2.24-13.22,3.44-19.42,10.16-.81,9.95,9.34,15.49,12.76-.14,1.49-1,3.41-.32,4.5,4.28,7.49,8.56,15,13.47,22.1,3.32,4.79,8.21,7.48,15.31,5.87-2.11-2.24-4.2-3.73-5.31-5.76-3.06-5.65-5.72-11.51-8.52-17.29C565.92,111.2,562.14,103.36,558.1,95ZM362.9,51.46c-1.65.88-3.4,1.21-3.73,2.09-2.62,6.91-8.06,6.23-13.68,5.49a42.69,42.69,0,0,0-6-.2c-10.85.08-23.9,8.61-27.56,17.76-5.73,14.34,3.93,38.14,24.26,40.64,10.16,1.25,17.49-3.19,24.88-9,4.51-3.54,1.45-8.13,2.77-12s2.73-7.76,3.79-11.72a10.38,10.38,0,0,0-.28-4.68c-.05-.24-1.79-.32-2.69-.15-5.68,1-11.38,2.06-17,3.34a43.57,43.57,0,0,0-6.34,2.48c.11.54.21,1.08.32,1.62,1.18.34,2.44,1.13,3.53.94,6.33-1.11,7.6,2.93,8.29,7.76.8,5.56-1.13,10.83-4.74,12.76-4.21,2.24-12.13.78-15.69-3-7-7.34-7.83-16.67-7.94-26-.09-7.76,3.61-11.5,11.29-12.6,2.31-.33,4.6-.73,6.9-1.12,5.78-1,10.55.08,13.23,6.06,1.28,2.85,4,2.84,4.7.22C363,65.65,364.65,59,362.9,51.46ZM302.22,99.67c-.49-22.28-13.06-31.42-30.84-32.32-15.81-.79-29.27,11.84-29.87,25.88-.81,18.77,17,35,33.2,34.76C288.24,127.82,304.12,114.41,302.22,99.67ZM495.34,66.25c.81-.49,2.44-.93,2.6-1.68.28-1.34-.18-4.09-.58-4.13-7.4-.9-14.83-1.68-22.27-1.95-1.4-.05-2.89,2.21-4.35,3.41,1.29,1.12,2.44,2.93,3.89,3.23,3.83.78,3.62,2.79,2.26,5.39-3.62,6.92-7.14,13.9-11,20.67a91.74,91.74,0,0,1-9.08,13.49c-2.05,2.44-5.47,3.68-8.13,5.66-2.23,1.66-3.3,4.68,0,5.13,6.2.83,12.59.24,19.61.24-.78-2.11-.94-2.74-1.22-3.3-3.46-6.89,2-16.11,9.49-15.77,6.13.28,12.27.85,18.37,1.64a5.48,5.48,0,0,1,3.58,2.81c2.63,6,4,12-3.18,17.62,7.79.92,14.15,2.89,20.22.53C508.69,101.23,502.07,83.9,495.34,66.25Zm130.43,55.08-1.8-.22A60.85,60.85,0,0,0,620.7,128c-1.11,3.27-1.53,6.8-2.78,10s.2,4,3,4.59,6.14,1,8.32,2.63c9.58,7.33,18.51,8.3,28.34,1.49a13.09,13.09,0,0,0,4.92-8.47c.67-6.53-2-12.33-6.8-17-3.07-3-6.46-5.78-9.24-9-3.2-3.75-2-7.65,2.53-9.59,7.95-3.42,18.11,2.69,18.81,11.3.15,1.85.41,3.7.62,5.55l1.54.31,5.75-13.09c-4-2.41-7.8-4.31-11.17-6.74-6.37-4.59-13.3-5.18-20.43-2.92-6.9,2.2-10.2,8-11.38,14.6-1.11,6.21,2.74,10.25,7.82,13.24,3.44,2,7.22,3.73,10.09,6.39,1.9,1.76,4,5.56,3.27,7.35-1,2.57-4.59,5.87-7,5.83C635,144.19,627.53,141,627,128.19A52.63,52.63,0,0,0,625.77,121.33Zm3.9-19.92a46.21,46.21,0,0,1,2.2-6.38c2.06-4.22.25-5.92-3.64-7.21-12.9-4.27-25.71-8.81-38.62-13-1.06-.35-3.68.73-3.85,1.51-.85,4.06-1.15,8.23-1.76,13.35a76.65,76.65,0,0,1,7.42-3.55c7.54-2.54,10.91.31,9.26,7.86-1.87,8.59-3.89,17.15-6,25.69-1,3.88-2.83,7-7.3,8-1.52.32-2.81,1.72-5.56,3.5l24.65,7.47c.3-.53.6-1.06.91-1.59-.66-1.62-1.4-3.22-1.95-4.88s-1.61-3.58-1.27-5.12c2.3-10.51,4.74-21,7.49-31.39,1.45-5.45,3.55-5.83,8.06-2.19Z"/><path class="cls-1" d="M695,237.05c-3.71-3-6.43-5.58-9.57-7.54-11.25-7-22.47-14.17-34-20.64-8.08-4.51-16.74-8-25.1-12-5.74-2.74-7.68-6.19-6.34-10.84,1.23-4.29,7.35-8,12.34-7.53,7.44.68,14.87,1.47,22.32,1.89,9.16.5,12.78-2.23,17-10.12,4.94-9.21,10.58-18,15.89-27,2.35-4,4.8-3.49,8-.79,15.36,12.78,27.75,28.09,38.68,44.69,1.14,1.73,2.21,3.5,4,6.35-7.22-1-13.21-2-19.24-2.6-8.27-.75-16.56-1.22-24.86-1.61-2.79-.13-3.93,1.14-3.5,4.41,1.66,12.83,3,25.71,4.35,38.58C695.1,233.52,695,234.79,695,237.05Z"/><path class="cls-1" d="M143.49,229.46c1.52-12.47,2.89-25,4.62-37.42.91-6.54.15-8.26-6.33-7.88-11.92.71-23.8,2-35.7,3.11-1.41.13-2.82.24-5,.42a35.34,35.34,0,0,1,2-4.13c11.11-16.23,23.21-31.6,38.64-44.05,5.33-4.29,6.86-4.23,10.56,1.63,5.14,8.14,10.21,16.35,14.72,24.85,3.43,6.44,8.26,9.82,15.45,9.61,7-.21,13.94-1.06,20.89-.94,4,.08,8.4.68,11.77,2.57,5.76,3.24,5.12,10.54-.84,13.49-14,6.92-28.28,13.18-41.93,20.65-8.54,4.67-16.14,11-24.16,16.65-1,.73-2.12,1.39-3.18,2.08Z"/><path class="cls-1" d="M190.32,169.8c4.91-2.1,9.79-4.26,14.74-6.27a46.27,46.27,0,0,1,5.25-1.46c3.15-.87,5.53-.16,6.83,3.11a65.45,65.45,0,0,1,3,8.22c-9.59-4.87-19.55-2.39-29.37-1.64Z"/><path class="cls-1" d="M647.74,176.51c-9.78.28-20.24-5.1-29,3.22l-1.07-1c1.38-3.53,2.63-7.13,4.23-10.56a3.34,3.34,0,0,1,2.91-1.39c7.8,2.37,15.53,5,23.29,7.5C648,175,647.85,175.76,647.74,176.51Z"/><path class="cls-1" d="M66.13,487.68c1.61,2.77,3.44,5.43,4.78,8.32,3,6.46,5.66,13.09,8.72,19.53.71,1.48,2.48,2.46,3.47,3.4l17.75-31.68,1.53.56c0,3.36.13,6.72,0,10.07-.54,11.57.69,22.86,5.23,33.62s10.74,20.45,19.68,28.28c9.84,8.63,19.39,17.59,29.15,26.32,10.63,9.5,21.44,18.81,32,28.36,16.83,15.17,35.2,28.19,54.34,40.27,9,5.71,18.06,11.87,22.9,22.19,2.8,6,2.31,8.9-3.68,11-10.76,3.8-20.6,9-29.09,17.72-3.79-11.14-12.31-15.93-20.86-21.16a286.54,286.54,0,0,1-31.45-21.77c-15.81-12.9-31-26.58-46.2-40.2-8.91-8-17.61-16.22-25.9-24.82C96.33,585.06,86,570.93,79.05,554.76c-5.07-11.85-9.75-24-12.82-36.52-2.36-9.59-1.94-19.86-2.76-29.82Zm85.78,127.37c.11,2.45.44,4.15.21,5.77-.36,2.63-1.77,5.28-1.48,7.78a14.06,14.06,0,0,0,3.4,7.93c1.38,1.38,5.44,2.08,6.82,1.06,3.45-2.53,6.41-3,10.08-1.05s1.78,4.58,1.53,7.29c-.14,1.44,1.34,3,2.1,4.56,1-1.14,2.45-2.11,3-3.44,2.63-6.42,5-12.92,7.45-19.43.31-.83.64-2.17.22-2.69-2.66-3.33-5.69-6.19-11.63-6.82l3.63,9.5c-6.21,2.47-12.4,5.09-18.73,7.31-.82.29-3.06-1.16-3.43-2.23-2.14-6.08,1-10.24,7.66-10.54,7.73-.34,11.15-6.22,6.2-12.08-3.61-4.27-9.12-6.93-14.87-11.1.51,13.17-9.49,15.64-16.6,20.61C141,621.12,141,621.12,151.91,615.05ZM118,595.15c1.41,2.49,2.4,4.86,3.94,6.77s3.46,4.29,5.69,5.05c7.59,2.6,17.05-1.7,20.75-8.87,2.41-4.67,1.58-9.12-2.31-12.61-3.33-3-6.59-6-10-8.94-.71-.6-1.89-.65-3.07-1C133.55,582.69,127.49,590.49,118,595.15Zm94,45.53c-5.69-2.67-10.57-5.16-15.62-7.21-1.35-.55-3.3,0-4.87.44-6.42,1.76-12.78,11.24-11.92,18.79a9.71,9.71,0,0,0,4.56,6.63,7.13,7.13,0,0,0,9.57-2.81c.59-1-.28-2.85-.48-4.31a26.74,26.74,0,0,0-4.12,1c-.56.23-.8,1.21-1.38,2.16-.9-.76-1.79-1.14-2-1.76-2.15-5.64,4.78-15.58,10.91-15.54,2.38,0,4.55.8,2.76,4-1,1.83-1.54,4.19,1.28,3.57C204.26,644.83,207.62,642.64,211.93,640.68Zm-13.74,22.57c0,5.9,2.48,8.64,8.13,9.15,8,.71,17.49-7.24,17.84-15.28.19-4.34-1.69-7.86-6.09-9.16C208.63,645.18,198.11,653.36,198.19,663.25Z"/><path class="cls-1" d="M726.5,495.53c4.37,7,8.81,13.86,13.07,20.87,3.43,5.66,5.28,6,8.63.25,5.66-9.77,10.67-19.9,16-29.87a9.08,9.08,0,0,1,3.53-4.07c-.17,3.46-.19,6.94-.52,10.39-2.26,23.79-6.23,47.42-17.52,68.59-7,13.2-16.9,25.09-26.56,36.69-14.82,17.81-32.23,33.18-50.48,47.34-17,13.21-35.19,25-52.76,37.49-9.14,6.52-19.32,11.86-25.28,22.11-.48.82-3.48,1.16-4.53.49-9.79-6.18-19.38-12.65-29.07-19-3.67-2.4-4.4-5.25-2.54-9.32,4.36-9.53,11.45-16.91,19.73-22.67,18.39-12.8,37.4-24.72,56-37.17,21.44-14.31,42.12-29.68,60.58-47.73,9.5-9.29,18.24-19.52,23.68-31.8s8.81-25.43,6.48-39.26a16.81,16.81,0,0,1,0-2.75Zm-25.8,94c-5.26-.46-9.47-1.16-13.67-1.07-2,0-4.15,1.43-6,2.57-.3.19.4,3.21.88,3.28,6.86,1,10.07,6.44,14.12,11a10.92,10.92,0,0,0,4.89,2.75c.63.2,2.62-1.48,2.51-1.8a16.3,16.3,0,0,0-2.63-5c-1.76-2.16-3.86-4-5.82-6l.75-1.16,18.16-.94c.06-.55.11-1.09.16-1.63-5.31-5.39-13.82-7-17.72-14.51,3.08-.38,6.24-.75,8.56.48a63,63,0,0,1,11.73,8.23c2.29,2,3.61,1.58,5.4-.25,5.74-5.89,5.41-13.93-.88-19.78-4.1-3.82-14.2-2.56-18.58,2-3.41,3.51-5.2,9-11.22,9.62-.84.1-1.45,2.18-2.37,3.67C693.69,582.57,698.42,583.08,700.7,589.56ZM589.64,665.41l.36-1.71c6.88,2.73,12.55,6.95,16.23,13.77.5.93,2.1,2.26,2.58,2a15.76,15.76,0,0,0,4.68-3.39c.24-.25-.82-2.16-1.62-3-4.45-4.35-9.36-8.29-13.42-13s-6.63-5-10.77-.18a11.49,11.49,0,0,1-4.56,2.74c-7.82,3.11-13,9.12-17.27,16a4.26,4.26,0,0,0,.52,4,5.29,5.29,0,0,0,4,1.29c.51,0,1.23-2.06,1.29-3.22.21-3.85,2.7-3.53,4.88-2.45,5.54,2.75,10.29,6.46,12.94,12.37a5.37,5.37,0,0,0,2.52,2.16c2.77-2.24,5.38-4.7,8-7.11l-.31-1.2c-9.92.76-13.27-7.55-19.48-12.64ZM630.41,629c.61,1.06.7,1.45.94,1.61,7.28,4.75,15,9,18.89,17.49.27.61,2.44.83,3.49.5a13.5,13.5,0,0,0,4.26-2.55c5.84-4.81,11.65-9.66,17.36-14.63a3.36,3.36,0,0,0,1-2.94,4.82,4.82,0,0,0-2.82-2.35c-.54-.16-1.74,1.12-2.28,2-3,4.72-5.31,4.86-8.37.34-2.24-3.3-4.28-6.75-6.71-9.9-1.26-1.64-3.53-4.17-4.69-3.86-2.23.6-4,2.93-6.73,5.17C655,621.93,658,629,661.53,635a42,42,0,0,0-4,4.76c-1.78,3-3.33,3.19-5.64.43-1.46-1.75-3.58-2.92-5.34-4.44-3.48-3-6.91-6.11-11.22-9.92Zm67.52-17.3c-.54-.68-.84-1.4-1.36-1.64-7.64-3.49-15.21-7.21-23.07-10.13-1.73-.64-4.92,1.2-6.76,2.72s-2.22,3.65,1.39,4.39a6.65,6.65,0,0,1,4,3.12c2.18,4.06,3.82,8.41,5.9,12.53.75,1.49,2.13,3.67,3.27,3.69,1.66.05,3.35-1.57,5-2.49-.72-1.25-.82-1.62-1.06-1.8-3-2.34-3.73-5-1.13-8.08s5.07-3.14,8-.4S696.37,613.9,697.93,611.71Zm26.75-66.51c-1.27.16-1.94.22-2.59.34-3.59.62-7.73,1-8.66,5.28s1,7.63,5,10.32c4.42,3,9,3.86,14,3.84,1.94,0,5.2.19,5.58-.68,1.14-2.68,2.48-6.46,1.4-8.68C736.52,549.52,730.65,546.62,724.68,545.2ZM612.22,647.84a56.17,56.17,0,0,0,6.27-2.94c.8-.51,1.19-1.65,1.76-2.51-.93-.53-1.92-1.6-2.78-1.49-7.18.86-12.48,5.09-17.06,10.27-.57.64.34,2.58.56,3.91,1.23-.25,3-.07,3.59-.82,2.64-3.6,4.81-2.06,6.8.4,2.6,3.22,5.1,6.54,7.42,10,3.68,5.43,5.78,5.55,9.15,1.22ZM737.38,545.15l-.33,2.34c2.82.52,6.06,2.18,8.36,1.32,4-1.5,4.79-9.23,2-12.83-2.3-3-6.39-2.5-10.37,1.16-.71.66-1.55,1.73-2.3,1.7-1.38-.06-2.73-.79-4.61-1.42l3.82-3.58c-2.17-3.82-4.75-5.58-8.66-3.53.14,2.35.39,4.31.36,6.26-.08,5.59,4,8.6,9.19,6.53,2.15-.85,4.09-2.28,6.28-3,.92-.28,2.23.68,3.37,1.08-.63,1-1,2.62-2,3C741,544.93,739.12,544.89,737.38,545.15ZM619.89,637.86c3.38,2.56,6.79,4.53,9.37,7.27s4.28,6.66,6.87,9.59c1.1,1.25,3.49,1.36,5.3,2,0-1.58.38-3.27,0-4.73a10.94,10.94,0,0,0-2.47-3.68c-3-3.51-6.32-6.79-9.07-10.49C626.11,632.79,623.6,632.72,619.89,637.86Z"/><path class="cls-1" d="M627.3,701.44c-9.48,2.59-17.36,4.87-25.33,6.82-1.26.3-2.88-.87-4.34-1.36.48-1.34.58-3.08,1.5-3.94,3.63-3.38,7.47-6.52,11.33-9.63a3.09,3.09,0,0,1,2.65-.6C617.48,695.25,621.72,698,627.3,701.44Z"/><path class="cls-1" d="M281.28,743.92c4.07-1.77.85-10,8.51-7.28,2.94,1.05,3.18,3.2,2.25,5.62C290.72,745.7,286.62,746.57,281.28,743.92Z"/><path class="cls-1" d="M512.33,756.31c-2.19,1.64-4,3.8-6.27,4.38-1.34.35-4.21-1.37-4.84-2.84a27.59,27.59,0,0,1-2-9.58c-.07-1.78,1.28-5.13,2-5.15,2.05,0,4.92.77,6,2.28C509.33,748.26,510.36,751.85,512.33,756.31Z"/><path class="cls-1" d="M233.34,731.06c1.76-2.6,3.29-5,4.94-7.25a80.2,80.2,0,0,1,7-9c.71-.73,4.35-.18,4.51.39,1.73,6-2.35,10-5.62,14.08C241.78,732.23,238.23,733.31,233.34,731.06Z"/><path class="cls-1" d="M549.46,730.45l3.65,6.31c-1.61.51-3.83,2-4.72,1.36C545.38,736.15,546.62,733.5,549.46,730.45Z"/><path class="cls-1" d="M271.84,729.38c-.38,5.45-7.42,13.1-11.91,13.76-2.88.42-4.67-1.14-3.37-3.6a83.91,83.91,0,0,1,8.62-12.94c.68-.86,3.47-.62,5,0C271.13,726.94,271.54,728.83,271.84,729.38Z"/><path d="M338.74,471.81c-10.42,2.06-12.47,1.91-14-1.32h14.33Z"/><path d="M364.11,380.62h45.05c.38.59.76,1.18,1.15,1.77-2.41,1.91-4.86,3.78-7.22,5.76-4.3,3.62-7,7.81-5.74,13.91.59,2.88.13,6,0,9-.09,2.73,1.13,4,3.85,4,10.32,0,20.64.25,31,0,1.29,0,3.35-2.4,3.6-3.92a66.15,66.15,0,0,0,.74-12.89,9.4,9.4,0,0,0-2.25-5.57c-3.34-3.65-7.09-6.93-11.68-11.3h45l.89,1.25c-1.34,1.64-2.38,3.75-4.08,4.83-6.67,4.26-8.91,10.46-9.57,18-1.58,18.22-3.73,36.4-5.41,54.61-.17,1.87.93,4.15,2.08,5.78,2.44,3.44,5.31,6.57,8.65,10.6h-33c2.7-4.07,5-7,6.71-10.29a19.16,19.16,0,0,0,2.5-7.8c.28-7.81,0-15.65,0-23.48,0-3.85-1.56-5.53-5.77-5.44-9.29.2-18.6,0-27.89-.3-4.12-.11-6.2,1.07-6,5.67a138.8,138.8,0,0,1-.13,18.47A22.25,22.25,0,0,0,403,471.39c1,1,1.58,2.45,3,4.69H373.91c1.78-2.43,2.93-4.59,4.62-6.18,4.64-4.36,5.9-9.36,5-15.68-1.51-11-2.2-22.11-3.31-33.16-.83-8.22-1.28-16.53-2.91-24.59-.64-3.17-3.92-5.89-6.21-8.63C369.31,385.65,367.16,383.72,364.11,380.62Z"/><path d="M410.82,75Q405,87.9,399.25,100.79c-1.15,2.58-2.06,5.3-3.45,7.74-.83,1.46-2.38,2.49-3.61,3.72-1.05-1.38-2.58-2.61-3.06-4.16-2.43-7.77-4.6-15.61-6.82-23.44-1.49-5.28-3-10.57-4.36-15.88-1-3.76-2.69-6.28-7.16-6.13-1.18,0-2.42-1.57-3.63-2.42,1-.95,1.87-2.6,3-2.76,6.56-1,13.17-1.71,19.78-2.17,1.3-.09,2.7,1.41,4,2.18-.82,1.1-1.7,2.15-2.44,3.3s-2.38,2.85-2.11,3.91a97.19,97.19,0,0,0,6.68,18.66c4.59-6,9.44-11.35,10.23-18.5.21-1.82-3.38-4.07-5.25-6.16,2.52-2.75,14.92-4.88,18.21-2.55a5.58,5.58,0,0,1,1.91,4.2c-.51,11,6.78,18.42,11.91,26.82,1.6,2.63,4.3,2.82,5.45,0A138.18,138.18,0,0,0,444.86,68c.31-1.29-2.63-3.31-4-5.08-.94-1.24-1.7-2.62-2.55-3.94,1.44-.61,2.84-1.64,4.33-1.77q7.68-.66,15.4-.79c3.08,0,4.51,2.59,2.79,5.16-.87,1.31-2.54,2.06-3.69,3.22-2.48,2.51-5.79,4.71-7.1,7.76-5.21,12.06-9.73,24.42-14.66,36.61-.68,1.67-2.21,3-3.35,4.49a31.94,31.94,0,0,1-3.35-4.84c-2.38-5.09-4.37-10.37-6.81-15.44-3-6.21-6.31-12.27-9.49-18.4Z"/><path d="M217.14,144.69c-4.58,1.68-9.15,3.38-13.74,5a47.11,47.11,0,0,1-6.16,2A33.13,33.13,0,0,1,192,152c.21-2.17-.38-5.08.8-6.35,2.51-2.71,2.41-5,1.2-8.11q-5.88-15-11.4-30.18c-1.24-3.37-3.42-4.72-6.89-4.27-1.48.2-3.09.7-4.44.33-1.75-.46-3.3-1.66-4.93-2.55,1-1.26,1.79-3,3.12-3.7q11.31-5.73,22.89-10.94c1.14-.51,2.9.36,4.37.59-.63,1.28-.93,3.26-1.94,3.74-4.9,2.34-5.1,6.19-3.78,10.53,3.61,11.85,4.34,12.18,16.05,8.35,3-1,6-1.85,9.44-2.92-2.77-7.48-3.2-15.86-12.55-18.54a4.25,4.25,0,0,1-2.33-2.78c-.14-.57,1.27-2,2.2-2.26,7-2.19,14-4.33,21-6.13,1.18-.31,2.79,1.06,4.2,1.66-.65,1.22-1,2.83-2,3.6-4.26,3.31-4.65,7.28-2.86,12,4,10.56,7.62,21.27,11.94,31.69,1.15,2.78,4.29,4.74,6.51,7.08.75.79,2.09,1.58,2.07,2.35s-1.26,1.92-2.18,2.21a121.58,121.58,0,0,1-13.44,3.7c-2.95.57-4.47-.91-3.11-4.15,3.3-7.9-1.76-14-4.69-20.51-.39-.86-3.33-1.2-4.82-.8a124.85,124.85,0,0,0-14.62,4.91c-1.16.47-2.56,2.85-2.27,3.94a55.62,55.62,0,0,0,4.72,13c.94,1.69,4.22,2.12,6.47,3s4.34,1.61,6.51,2.42Z"/><path d="M558.1,95c4,8.36,7.82,16.2,11.61,24,2.8,5.78,5.46,11.64,8.52,17.29,1.11,2,3.2,3.52,5.31,5.76-7.1,1.61-12-1.08-15.31-5.87-4.91-7.08-9.19-14.61-13.47-22.1-.63-1.09.18-3,.32-4.5-5.54-3.42-5.33-13.57-15.49-12.76-1.2,6.2-3,12.76-3.44,19.42-.15,2.18,3.29,4.59,5.49,7.4-1.74.28-3.63,1-5.38.78a77.44,77.44,0,0,1-12.67-2.63c-1.06-.33-2.43-3.66-2-4.27,8.4-10.73,8.14-23.47,8.69-36,.15-3.48.93-7.43-.39-10.34-1.15-2.55-4.84-4-8.13-6.41,1.9-.5,3.49-1.37,5-1.26,11.43.85,23,1.18,34.21,3.15,5.6,1,9,6.59,10.46,12.29,1.66,6.35-3.51,9.15-7.28,12.43C562.38,93,560,93.93,558.1,95Zm-18.38-3.36c3.92,0,7.24.42,10.41-.08,7.69-1.22,12.57-9.23,9.36-15.45-2.66-5.16-7.8-6.25-13.13-6.5-2.7-.12-4.43.87-4.71,3.86C541.13,79.06,540.47,84.65,539.72,91.64Z"/><path d="M362.9,51.46c1.75,7.55.06,14.19-1.7,20.65-.71,2.62-3.42,2.63-4.7-.22-2.68-6-7.45-7-13.23-6.06-2.3.39-4.59.79-6.9,1.12-7.68,1.1-11.38,4.84-11.29,12.6.11,9.37,1,18.7,7.94,26,3.56,3.75,11.48,5.21,15.69,3,3.61-1.93,5.54-7.2,4.74-12.76-.69-4.83-2-8.87-8.29-7.76-1.09.19-2.35-.6-3.53-.94-.11-.54-.21-1.08-.32-1.62A43.57,43.57,0,0,1,347.65,83c5.64-1.28,11.34-2.3,17-3.34.9-.17,2.64-.09,2.69.15a10.38,10.38,0,0,1,.28,4.68c-1.06,4-2.46,7.83-3.79,11.72s1.74,8.49-2.77,12c-7.39,5.81-14.72,10.25-24.88,9-20.33-2.5-30-26.3-24.26-40.64,3.66-9.15,16.71-17.68,27.56-17.76a42.69,42.69,0,0,1,6,.2c5.62.74,11.06,1.42,13.68-5.49C359.5,52.67,361.25,52.34,362.9,51.46Z"/><path d="M302.22,99.67c1.9,14.74-14,28.15-27.51,28.32-16.17.2-34-16-33.2-34.76.6-14,14.06-26.67,29.87-25.88C289.16,68.25,301.73,77.39,302.22,99.67ZM256.09,87.89l-1.19.33c2.32,8.44,4.26,17,7.16,25.24,1.11,3.15,3.95,6.19,6.78,8.14,7.6,5.23,18.54,1.25,20-7.67,2.13-13,.07-25.43-8.7-35.92-4.54-5.44-10.68-6.91-16.5-4.53C257,76.21,255.53,79,256.09,87.89Z"/><path d="M495.34,66.25c6.73,17.65,13.35,35,20.23,53-6.07,2.36-12.43.39-20.22-.53,7.21-5.64,5.81-11.65,3.18-17.62A5.48,5.48,0,0,0,495,98.28c-6.1-.79-12.24-1.36-18.37-1.64-7.51-.34-12.95,8.88-9.49,15.77.28.56.44,1.19,1.22,3.3-7,0-13.41.59-19.61-.24-3.34-.45-2.27-3.47,0-5.13,2.66-2,6.08-3.22,8.13-5.66a91.74,91.74,0,0,0,9.08-13.49c3.88-6.77,7.4-13.75,11-20.67,1.36-2.6,1.57-4.61-2.26-5.39-1.45-.3-2.6-2.11-3.89-3.23,1.46-1.2,2.95-3.46,4.35-3.41,7.44.27,14.87,1,22.27,1.95.4,0,.86,2.79.58,4.13C497.78,65.32,496.15,65.76,495.34,66.25Zm1.05,24.9a53.56,53.56,0,0,0-12.75-25c-3.87,8.88-7.2,16.54-10.91,25Z"/><path d="M625.77,121.33a52.63,52.63,0,0,1,1.18,6.86c.58,12.83,8,16,19.94,16.22,2.42,0,6-3.26,7-5.83.72-1.79-1.37-5.59-3.27-7.35-2.87-2.66-6.65-4.37-10.09-6.39-5.08-3-8.93-7-7.82-13.24C633.9,105,637.2,99.2,644.1,97c7.13-2.26,14.06-1.67,20.43,2.92,3.37,2.43,7.13,4.33,11.17,6.74L670,119.75l-1.54-.31c-.21-1.85-.47-3.7-.62-5.55-.7-8.61-10.86-14.72-18.81-11.3-4.5,1.94-5.73,5.84-2.53,9.59,2.78,3.27,6.17,6,9.24,9,4.75,4.68,7.47,10.48,6.8,17a13.09,13.09,0,0,1-4.92,8.47c-9.83,6.81-18.76,5.84-28.34-1.49-2.18-1.67-5.47-2.05-8.32-2.63s-4.28-1.25-3-4.59,1.67-6.74,2.78-10a60.85,60.85,0,0,1,3.27-6.88Z"/><path d="M629.67,101.41l-9.95-8c-4.51-3.64-6.61-3.26-8.06,2.19-2.75,10.4-5.19,20.88-7.49,31.39-.34,1.54.71,3.44,1.27,5.12s1.29,3.26,1.95,4.88c-.31.53-.61,1.06-.91,1.59l-24.65-7.47c2.75-1.78,4-3.18,5.56-3.5,4.47-1,6.34-4.08,7.3-8,2.1-8.54,4.12-17.1,6-25.69,1.65-7.55-1.72-10.4-9.26-7.86A76.65,76.65,0,0,0,584,89.65c.61-5.12.91-9.29,1.76-13.35.17-.78,2.79-1.86,3.85-1.51,12.91,4.22,25.72,8.76,38.62,13,3.89,1.29,5.7,3,3.64,7.21A46.21,46.21,0,0,0,629.67,101.41Z"/><path d="M151.91,615.05c-10.87,6.07-10.87,6.07-14.45,2.43,7.11-5,17.11-7.44,16.6-20.61,5.75,4.17,11.26,6.83,14.87,11.1,4.95,5.86,1.53,11.74-6.2,12.08-6.65.3-9.8,4.46-7.66,10.54.37,1.07,2.61,2.52,3.43,2.23,6.33-2.22,12.52-4.84,18.73-7.31L173.6,616c5.94.63,9,3.49,11.63,6.82.42.52.09,1.86-.22,2.69-2.41,6.51-4.82,13-7.45,19.43-.54,1.33-2,2.3-3,3.44-.76-1.53-2.24-3.12-2.1-4.56.25-2.71,2.12-5.38-1.53-7.29s-6.63-1.48-10.08,1.05c-1.38,1-5.44.32-6.82-1.06a14.06,14.06,0,0,1-3.4-7.93c-.29-2.5,1.12-5.15,1.48-7.78C152.35,619.2,152,617.5,151.91,615.05Zm8.37,1.16,6.88-5.82c-2.26-1.57-4.59-4.44-6.78-4.34s-4.25,3.18-6.37,5Z"/><path d="M118,595.15c9.52-4.66,15.58-12.46,15-19.63,1.18.38,2.36.43,3.07,1,3.4,2.9,6.66,6,10,8.94,3.89,3.49,4.72,7.94,2.31,12.61-3.7,7.17-13.16,11.47-20.75,8.87-2.23-.76-4.1-3.09-5.69-5.05S119.38,597.64,118,595.15ZM129.8,604c8.2.46,14.68-7.84,15.24-13.7.17-1.74-1.83-4.43-3.56-5.36-1.18-.64-4,.51-5.37,1.72a74.69,74.69,0,0,0-8.33,9.25c-1.22,1.55-2.87,4.31-2.27,5.38C126.44,602.92,129.12,603.6,129.8,604Z"/><path d="M211.93,640.68c-4.31,2-7.67,4.15-11.34,5-2.82.62-2.31-1.74-1.28-3.57,1.79-3.15-.38-3.93-2.76-4-6.13,0-13.06,9.9-10.91,15.54.24.62,1.13,1,2,1.76.58-.95.82-1.93,1.38-2.16a26.74,26.74,0,0,1,4.12-1c.2,1.46,1.07,3.33.48,4.31a7.13,7.13,0,0,1-9.57,2.81,9.71,9.71,0,0,1-4.56-6.63c-.86-7.55,5.5-17,11.92-18.79,1.57-.43,3.52-1,4.87-.44C201.36,635.52,206.24,638,211.93,640.68Z"/><path d="M198.19,663.25c-.08-9.89,10.44-18.07,19.88-15.29,4.4,1.3,6.28,4.82,6.09,9.16-.35,8-9.81,16-17.84,15.28C200.67,671.89,198.23,669.15,198.19,663.25Zm4.24,4.15c.95.52,2.52,2.1,4,2.05,4.86-.14,12.85-10.14,12.62-15-.15-3.25-1.85-4-4.61-3.31C210.19,652.13,202.48,661.69,202.43,667.4Z"/><path d="M700.7,589.56c-2.28-6.48-7-7-11.73-8.6.92-1.49,1.53-3.57,2.37-3.67,6-.67,7.81-6.11,11.22-9.62,4.38-4.53,14.48-5.79,18.58-2,6.29,5.85,6.62,13.89.88,19.78-1.79,1.83-3.11,2.23-5.4.25a63,63,0,0,0-11.73-8.23c-2.32-1.23-5.48-.86-8.56-.48,3.9,7.51,12.41,9.12,17.72,14.51,0,.54-.1,1.08-.16,1.63l-18.16.94-.75,1.16c2,2,4.06,3.87,5.82,6a16.3,16.3,0,0,1,2.63,5c.11.32-1.88,2-2.51,1.8a10.92,10.92,0,0,1-4.89-2.75c-4-4.54-7.26-10-14.12-11-.48-.07-1.18-3.09-.88-3.28,1.85-1.14,4-2.52,6-2.57C691.23,588.4,695.44,589.1,700.7,589.56Zm2.69-18.69c5.42,3.21,10.26,6.19,15.28,8.82.46.25,3.05-1.77,3-2.6-.35-4.17-2.92-6.75-6.91-8.05C711,567.84,707.5,567.24,703.39,570.87Z"/><path d="M589.64,665.41l-9.44,6.46c6.21,5.09,9.56,13.4,19.48,12.64l.31,1.2c-2.64,2.41-5.25,4.87-8,7.11a5.37,5.37,0,0,1-2.52-2.16c-2.65-5.91-7.4-9.62-12.94-12.37-2.18-1.08-4.67-1.4-4.88,2.45-.06,1.16-.78,3.19-1.29,3.22a5.29,5.29,0,0,1-4-1.29,4.26,4.26,0,0,1-.52-4c4.31-6.83,9.45-12.84,17.27-16a11.49,11.49,0,0,0,4.56-2.74c4.14-4.86,6.63-4.58,10.77.18s9,8.62,13.42,13c.8.79,1.86,2.7,1.62,3a15.76,15.76,0,0,1-4.68,3.39c-.48.22-2.08-1.11-2.58-2-3.68-6.82-9.35-11-16.23-13.77Z"/><path d="M630.41,629l4.94-3.21c4.31,3.81,7.74,6.89,11.22,9.92,1.76,1.52,3.88,2.69,5.34,4.44,2.31,2.76,3.86,2.6,5.64-.43a42,42,0,0,1,4-4.76c-3.54-5.94-6.58-13-16.82-15.1,2.73-2.24,4.5-4.57,6.73-5.17,1.16-.31,3.43,2.22,4.69,3.86,2.43,3.15,4.47,6.6,6.71,9.9,3.06,4.52,5.39,4.38,8.37-.34.54-.86,1.74-2.14,2.28-2a4.82,4.82,0,0,1,2.82,2.35,3.36,3.36,0,0,1-1,2.94c-5.71,5-11.52,9.82-17.36,14.63a13.5,13.5,0,0,1-4.26,2.55c-1.05.33-3.22.11-3.49-.5-3.85-8.53-11.61-12.74-18.89-17.49C631.11,630.46,631,630.07,630.41,629Z"/><path d="M697.93,611.71c-1.56,2.19-2.95,4.6-5.82,1.91s-5.48-2.62-8,.4-1.85,5.74,1.13,8.08c.24.18.34.55,1.06,1.8-1.69.92-3.38,2.54-5,2.49-1.14,0-2.52-2.2-3.27-3.69-2.08-4.12-3.72-8.47-5.9-12.53a6.65,6.65,0,0,0-4-3.12c-3.61-.74-3.3-2.81-1.39-4.39s5-3.36,6.76-2.72c7.86,2.92,15.43,6.64,23.07,10.13C697.09,610.31,697.39,611,697.93,611.71Zm-22.19-6.6-1,1.92c1.6,1.5,3,3.4,4.9,4.29.68.33,2.5-1.7,4.87-3.45Z"/><path d="M724.68,545.2c6,1.42,11.84,4.32,14.82,10.42,1.08,2.22-.26,6-1.4,8.68-.38.87-3.64.67-5.58.68-5,0-9.63-.87-14-3.84-4-2.69-6-5.9-5-10.32s5.07-4.66,8.66-5.28C722.74,545.42,723.41,545.36,724.68,545.2Zm8.55,16.61c1.23-.69,3.16-1.16,3.46-2.13a4.15,4.15,0,0,0-1.55-3.7,72.54,72.54,0,0,0-12.16-5.5c-1.56-.5-4.8.33-5.39,1.49-1.29,2.57-.3,5.33,2.89,6.31C724.59,559.55,728.77,560.59,733.23,561.81Z"/><path d="M612.22,647.84l15.71,18c-3.37,4.33-5.47,4.21-9.15-1.22-2.32-3.43-4.82-6.75-7.42-10-2-2.46-4.16-4-6.8-.4-.55.75-2.36.57-3.59.82-.22-1.33-1.13-3.27-.56-3.91,4.58-5.18,9.88-9.41,17.06-10.27.86-.11,1.85,1,2.78,1.49-.57.86-1,2-1.76,2.51A56.17,56.17,0,0,1,612.22,647.84Z"/><path d="M737.38,545.15c1.74-.26,3.62-.22,5.17-.91.92-.4,1.32-2,2-3-1.14-.4-2.45-1.36-3.37-1.08-2.19.68-4.13,2.11-6.28,3-5.18,2.07-9.27-.94-9.19-6.53,0-2-.22-3.91-.36-6.26,3.91-2,6.49-.29,8.66,3.53l-3.82,3.58c1.88.63,3.23,1.36,4.61,1.42.75,0,1.59-1,2.3-1.7,4-3.66,8.07-4.13,10.37-1.16,2.78,3.6,2,11.33-2,12.83-2.3.86-5.54-.8-8.36-1.32Z"/><path d="M619.89,637.86c3.71-5.14,6.22-5.07,10-.05,2.75,3.7,6.07,7,9.07,10.49a10.94,10.94,0,0,1,2.47,3.68c.42,1.46.06,3.15,0,4.73-1.81-.63-4.2-.74-5.3-2-2.59-2.93-4.2-6.75-6.87-9.59S623.27,640.42,619.89,637.86Z"/><path class="cls-1" d="M539.72,91.64c.75-7,1.41-12.58,1.93-18.17.28-3,2-4,4.71-3.86,5.33.25,10.47,1.34,13.13,6.5,3.21,6.22-1.67,14.23-9.36,15.45C547,92.06,543.64,91.64,539.72,91.64Z"/><path class="cls-1" d="M256.09,87.89c-.56-8.87.92-11.68,7.56-14.41,5.82-2.38,12-.91,16.5,4.53,8.77,10.49,10.83,22.95,8.7,35.92-1.47,8.92-12.41,12.9-20,7.67-2.83-1.95-5.67-5-6.78-8.14-2.9-8.23-4.84-16.8-7.16-25.24Z"/><path class="cls-1" d="M496.39,91.15H472.73c3.71-8.5,7-16.16,10.91-25A53.56,53.56,0,0,1,496.39,91.15Z"/><path class="cls-1" d="M160.28,616.21,154,611c2.12-1.77,4.17-4.84,6.37-5s4.52,2.77,6.78,4.34Z"/><path class="cls-1" d="M129.8,604c-.68-.38-3.36-1.06-4.29-2.71-.6-1.07,1-3.83,2.27-5.38a74.69,74.69,0,0,1,8.33-9.25c1.33-1.21,4.19-2.36,5.37-1.72,1.73.93,3.73,3.62,3.56,5.36C144.48,596.14,138,604.44,129.8,604Z"/><path class="cls-1" d="M202.43,667.4c0-5.71,7.76-15.27,12-16.3,2.76-.66,4.46.06,4.61,3.31.23,4.9-7.76,14.9-12.62,15C205,669.5,203.38,667.92,202.43,667.4Z"/><path class="cls-1" d="M703.39,570.87c4.11-3.63,7.65-3,11.35-1.83,4,1.3,6.56,3.88,6.91,8.05.07.83-2.52,2.85-3,2.6C713.65,577.06,708.81,574.08,703.39,570.87Z"/><path class="cls-1" d="M675.74,605.11l8.74,2.76c-2.37,1.75-4.19,3.78-4.87,3.45-1.89-.89-3.3-2.79-4.9-4.29Z"/><path class="cls-1" d="M733.23,561.81c-4.46-1.22-8.64-2.26-12.75-3.53-3.19-1-4.18-3.74-2.89-6.31.59-1.16,3.83-2,5.39-1.49a72.54,72.54,0,0,1,12.16,5.5,4.15,4.15,0,0,1,1.55,3.7C736.39,560.65,734.46,561.12,733.23,561.81Z"/></g></g></svg>