<svg xmlns="http://www.w3.org/2000/svg" width="709.35" height="761.97" viewBox="0 0 709.35 761.97"><g id="Layer_2" data-name="Layer 2"><g id="Layer_1-2" data-name="Layer 1"><path d="M583.26,237.78c-3.11.59-5,1-6.9,1.3-25.56,3.65-45.66,15.84-58.83,38.31-5,8.49-7.6,17.89-8.83,27.8-2.05,16.48.95,32.28,5,48.06,4.45,17.18,12.3,32.95,20.79,48.29a180.51,180.51,0,0,0,31.66,41.35A195.78,195.78,0,0,0,604,472.42c9.77,5.75,10.14,5.57,2.91,14C593.46,502,579.78,517.46,566.24,533c-5.67,6.51-11.25,13.1-16.94,19.73l-3.53-2.89c-.51.9-1.07,1.42-1.08,2-.25,12.36-11,17.75-17.4,26-.41.53-3.4-.27-4.67-1.17-6.22-4.44-12.36-9-18.35-13.76-4-3.14-7.22-3.17-11.52-.08C463.17,584.09,431.47,602,399.85,620c-13.39,7.64-22.22,19.73-28.31,33.79-1.12,2.57-1.57,5.47-2.89,7.92a5.84,5.84,0,0,1-4,2.76c-6.31.42-12.67.17-19,.62-3.64.26-4.72-1.54-5.94-4.45-4.94-11.8-10.16-23.61-20.18-32.09-5.27-4.46-11.4-8-17.38-11.55-22-13-44.14-25.79-66.06-39-7.23-4.34-14-9.46-20.81-14.47-3.35-2.46-6.28-1.8-9.13.35-5.84,4.41-11.65,8.88-17.3,13.54-4.53,3.74-6,3.92-9.86-.66-10.42-12.29-20.65-24.76-31.06-37.06-10.93-12.93-22-25.72-33-38.6-6.44-7.56-12.79-15.17-19.59-23.24a66.89,66.89,0,0,1,5.68-3.6c17.51-8.71,32.16-21.1,45.46-35.2,4.35-4.62,5.06-4.67,8.68.55a5.68,5.68,0,0,0,3.26,1.82c-1.42-3.85,2.86-8.94-3.48-11.36,4.27-5.77,8.38-11.13,12.3-16.63,15.63-22,25.86-46.44,32-72.51,5.16-22.07,5.49-44.16-4.25-65.44-7.08-15.48-19.19-25.92-33.67-34a75.58,75.58,0,0,0-28.86-9c-1.39-.15-2.72-.93-5.23-1.83,5.68-6.61,10.86-12.57,16-18.59,10.3-12.13,20.54-24.31,30.85-36.43,5.58-6.56,11.26-13,16.91-19.54,4-4.54,9.44-4,14.45-3.58a110.34,110.34,0,0,1,48.41,15.53c11.37,6.81,21.73,15.34,33.27,21.8,9,5,19,8.36,28.77,11.87,5.43,2,11.27,2.81,17,4,8.26,1.77,14.33,6.38,19,13.41,3.21,4.87,4.32,4.66,7.38,0,4.73-7.25,11.34-11,19.89-12.73,12.65-2.61,25.38-5.54,37.41-10.06,7.56-2.84,14-8.79,20.81-13.47a165.25,165.25,0,0,1,52.42-23.65c7.11-1.83,14.85-1.59,22.29-1.52a11.51,11.51,0,0,1,7.57,3.77c14.33,16.59,28.42,33.4,42.48,50.23C569,220,575.64,228.39,583.26,237.78Zm-333,151.82,20.67,1.86c-7-.61-11.13-3.84-11.85-11.1-.09-.93-1.52-1.66-2-2.64-1.2-2.54-2.79-5.45.84-7.22,5.31-2.58,7.06-5.55,5.83-12.29.4,10-6.9,10.77-13.59,11.92-3.07.53-6.38-.38-9.44.17A56.61,56.61,0,0,0,228.05,374c-1.34.58-1.68,3.46-2.48,5.29a30.67,30.67,0,0,0,5,1,16.41,16.41,0,0,0,4.41-.69c10-2.45,14.13.22,15.42,10.15l-8.6-1.89c-.93-.21-2-.86-2.76-.58-3.33,1.27-6.56,2.8-10.28,4.44a16.91,16.91,0,0,0,3.12.29c4.92-.56,9.75-3.37,14.84-.22C247.21,392.05,249,390.35,250.25,389.6Zm24.88,156.76a53.87,53.87,0,0,0-5.91-5.89c-.68-.52-2.52.5-3.82.82,2.68,2.23-.94,3-1.68,5.05l6.73-1.71-4,3.6,8.83-2c-1.08.92-2.07,2.46-3.27,2.65-9.81,1.55-19.65,2.92-29.5,4.18a9.77,9.77,0,0,1-4.91-.63c-6.54-2.78-13-5.77-19.63-8.77,3-4.65,4-5,9.43-4,9.86,1.75,14.66-.68,19.26-9.1,2.53-4.64,5.67-9,8.61-13.54-6.43-3.42-14.63-3.32-22.67-2.81-17.28,1.09-28.6,13.25-40.73,23.39-4.07,3.41-8.06,4.46-12.58,5.19-3.4-7.41,1.17-11.89,5-16.38,6-7.14,11.83-14.31,14.68-23.45,2.05-6.56,2-6.12-3.93-9.58-10.79-6.28-18.3-15.45-23.09-27.11-3-7.28-7-14.15-10.66-21.14-1.21-2.31-3-2.47-4.8-.54-2.54,2.65-4.87,5.55-7.7,7.85q-16.23,13.19-32.77,26c-2.92,2.26-3.56,3.79-.76,6.66,3.8,3.9,7.2,8.21,10.72,12.38,10,11.82,19.87,23.68,29.87,35.46,8.71,10.25,17.57,20.38,26.26,30.65,2.26,2.66,4.25,2.4,6.84.53,5.91-4.27,11.86-8.48,18-12.44,5.11-3.31,8.19-2.74,12.69,1.59a17.68,17.68,0,0,0,2.44,1.7c9.89,6.76,19.82,13.46,29.63,20.32,1.39,1,3.2,2.75,3.16,4.09-.11,3.36,1.88,3.77,4.22,4.43,4.38,1.23,9.05,2,13,4.06,12.34,6.54,24.19,14,36.62,20.4a80.3,80.3,0,0,1,34.32,32.94c1.8,3.22,3.42,6.54,5.13,9.81a7.1,7.1,0,0,0,1.42-4.51c.25-15.58.6-31.16.68-46.75.14-27.14.13-54.27.17-81.41,0-18.66,0-37.32.08-56,0-3.91-.89-5.6-5.43-5.09-13.69,1.56-27.5,2.35-40.41,7.79-2.77,1.16-4.21.62-6.14-1.89a184.78,184.78,0,0,0-14.36-16.4c-3.14-3.21-3.39-6.09-2.11-10.27,3.39-11.07,6.56-22.25,9-33.55,1.58-7.22.64-7.63-6.68-7.52q-22.18.35-44.36.53c-15.14.13-30.29.08-45.43.37-2,0-4.83,1.07-5.83,2.59-4.28,6.51-7.61,13.67-12.09,20-3.93,5.59-6.5,12.79-14.53,14.73l3.12,8.5c3-3.52,5.06-2.31,7.18.17,6.88,8.05,12.71,17.3,23.25,20.9,1.38-4.14,2.84-8.54,4.51-13.58l5.14,2.45.83-1.13c-1.39-1.2-3.07-2.21-4.07-3.68s-1.4-3.5-2.06-5.28l1.13-.29,2.41,3.84,1.37-.3c0-2.18.87-5-.17-6.41-2.77-3.77-2.06-8-2.36-12-.13-1.75,1.8-4.41,3.51-5.38,3.22-1.83,7-2.63,10.47-4.05a9.86,9.86,0,0,0,2.93-2.34c.85-.84,1.36-2.46,2.3-2.72,7.9-2.12,15.52.16,23.21,2.09l-4.62.41c0,.52,0,1,0,1.55,3.61,0,7.79,1.15,10.71-.28a11.64,11.64,0,0,1,11.27.14c4.42,2.22,8.73,3.15,13.7,2,1.44-.32,3.41,1.73,5.14,2.7-1.55,1.43-3,3.85-4.69,4.07-3,.39-7,.49-9.24-1.11-7.46-5.22-11.41,3.12-17.46,2.53l.26,1.38,10.83-2.45c-.1,1.84.19,3.14-.28,4-2.58,4.77-2.24,5.67,3,5.95,3.62.2,7.26,0,10.9,0l.14,1.52c-1.84.53-3.67,1.16-5.54,1.58-5.34,1.19-10.7,2.29-16,3.45-3,.65-6.74,1.66-6.25,5.18.42,3,2.43,6.9,4.92,8.33,4.18,2.41,9.23,3.55,14.06,4.53,3.68.73,6.26,1.93,6.71,5.35l-11.83-1.47a3.54,3.54,0,0,0,1.83,2.37c5.36,3.43,12.47,3.28,17.07,8.36a2.86,2.86,0,0,0,2.57,0c2.24-4.8,4.62-1.17,6.63,0,4.6,2.62,9,5.57,13.52,8.33,2.3,1.41,5.22,2.21,6.92,4.13,2.89,3.26,5.07,7.17,7.48,10.86a2.17,2.17,0,0,1,.2,1.88c-2.68,3.4.37,5.64,1.41,8.4a42.43,42.43,0,0,1,2.27,9.45,71.35,71.35,0,0,1,.08,8.9l2.45.16c.47-3.42.95-6.83,1.42-10.25l1.62.14c0,6.39-1.12,13,.32,19.09s5.44,11.7,8.86,18.61c-3.3-.52-6.48-2.08-8.4-1.12-5.45,2.72-10.12,0-14.73-1.43-2.9-.87-3.38-.39-4.82,1.8A86.45,86.45,0,0,1,297,566.77c-7.78,7.91-19.47,8.38-28.63,14-2,1.21-7.16-.69-9.45-2.74-3.13-2.82.26-5.9,2.38-7.8a62.67,62.67,0,0,1,10.5-7.26C277.29,559.8,279.16,551.1,275.13,546.36ZM526.88,409.73c-2-3.2-2.94-5.91-4.83-7.6-2.16-1.93-5.11-4.12-7.77-4.19-29.94-.73-59.9-1.05-89.85-1.53-6.89-.11-6.76-.16-7.58,6.4-.16,1.22-1.82,2.26-2.79,3.39-1-.88-2.33-1.58-2.89-2.67s-.42-2.6-.46-3.92c-.66-21.28,3.19-41.59,13.27-60.49,1.25-2.36.89-3.82-.87-5.62-4-4-7.52-8.47-11.67-12.28a7.7,7.7,0,0,0-6.11-1.38c-7.08,1.75-14.05,4-21,6.14-25.1,7.75-49.64,4.37-73.86-3.85-12.19-4.14-12.11-4.38-21.06,5.51-6.59,7.29-6.36,7.19-2.34,16a108.89,108.89,0,0,1,10.18,42.47c.46,17.81-2.26,35.1-9.22,51.65-.59,1.39.46,4.07,1.6,5.46,3.57,4.35,8,8.07,11.23,12.62,2,2.84,3.75,2.74,6.64,2.27,14.86-2.45,29.69-5.57,44.66-6.64,16.09-1.16,32.17,1,47.82,5.31,3.78,1,6.12.2,8.38-3.08,2.44-3.52,5.23-7.12,8.68-9.54,3.73-2.63,3.47-5.14,1.91-8.45a65.19,65.19,0,0,1-6.32-27.47c6.64-2.11,13-4.72,20.16-1.46,3.76,1.72,7.29,1.87,9.15-3.21.51-1.39,2.88-3.11,4.26-3,10.67.83,19.6,4.82,24.37,15.21,2.75,6,5.24,12.12,8,18.1,2.19,4.65,7.68,7.93,11.56,7.27,4.63-.8,7.55-4.36,8.14-10a26.8,26.8,0,0,1,.14-3.49c1.17-4.85,1.22-10.61,4-14.33C508.54,405.06,517.25,404.94,526.88,409.73ZM313.62,287.65c5.53-6.44,14.82-7.08,18-15.11.14-.35.9-.41,1.27-.74,1.66-1.47,3.59-2.78,4.86-4.55,2.63-3.67,5.19-4.62,10.2-2.58-1.8,1-3.21,1.7-4.57,2.5-2.6,1.51-2.95,3.44-.94,5.7,2.39,2.69,4.81,5.35,7.75,8.6.19-2.06.49-3.75.48-5.44-.05-11.32-.1-22.64-.33-34a14.08,14.08,0,0,0-1.49-6.69,107.89,107.89,0,0,0-9.58-14,15.38,15.38,0,0,0-7.34-4.47c-8.15-2.33-16.59-3.7-24.66-6.25-10.73-3.4-21.3-7.1-30.38-14.4-21.15-17-44.2-30.17-72-32.56a10.6,10.6,0,0,0-7.59,3.11c-9.85,10.81-19.31,22-28.9,33L147.83,223.6c2.14,1.2,3.61,2.17,5.19,2.88,6.19,2.79,12.78,4.89,18.57,8.34,26.5,15.83,39.86,39.77,41.64,70.26,1.61,27.77-6.1,53.65-17,78.78-.63,1.45-1,3-1.75,5.18h21.71c-1.34-4.58-2.89-8.72-3.68-13a10.54,10.54,0,0,1,1.16-6.53c1.43-2.57,3.74-4.63,5.63-6.94a5,5,0,0,0,.49-1.55l-3.91-1.25-.35-1.4c1.91-.85,3.76-2,5.76-2.44a20.91,20.91,0,0,1,6-.11c4.2.29,6.78-1.8,6.38-5.74-.79-7.7-2.3-15.32-3.54-23-.05-.3-.34-.56-.54-.83-9.14-12.18-9.56-26.23-6.8-40.07,2.65-13.29,8.08-26,11-39.28,1.81-8.1,1.62-16.74,1.52-25.14,0-2.53-2.44-5.4-4.45-7.41-1-1-4.24-1.33-5.34-.5a7.07,7.07,0,0,0-2.09,5.48c.72,8.59,2.27,17.13,2.71,25.72a25.7,25.7,0,0,1-5.06,16.8c-.94-3.31-1.37-5.37-2.1-7.32-1.15-3.05-.62-7.25-5.41-8-.62-.1-1.19-1.53-1.51-2.44-2.05-5.74-3-12.25-6.29-17.08-4-5.79-1.29-10.35-.11-15.51,1-4.24,3.67-6.12,7.77-7.29,7-2,12.8,1.27,18.3,4.26,3.55,1.93,7.65,5.46,8.6,9,2.12,8.06,3.88,16.54,1.5,25.05-2.77,9.94-6.2,19.75-8.13,29.84-2.05,10.71-2.92,21.66-3.68,32.55-.15,2.09,2.19,5.65,4.08,6.21s5.57-1.14,6.83-3c4.21-6.13,8.31-12.52,8.53-20.37.06-2.37-1-4.95-.34-7.08A118.16,118.16,0,0,1,255.39,264c1.58-3.35,1.09-5.06-3.11-6.08L262,243.31l-6.71-2.42c5.14-5.38,9.64-10.12,14.16-14.82,1.93-2,3.58-4.78,5.95-5.76,6.09-2.54,12.49-.9,18.1,1.52,6.34,2.73,12.18,6.72,18,10.58,2.55,1.69,5.29,4.05,6.39,6.74,1.64,4,3.27,7.3,7.46,9.39,1.29.65,2.05,4.5,1.43,6.36-1,2.93-3.56,1.71-5.89.8a50.54,50.54,0,0,0-7.43-1.75,48.25,48.25,0,0,0,9.57,7c1.06.57,3.19.15,4.29-.61,1.26-.87,1.82-2.71,2.88-3.95a8.59,8.59,0,0,1,2.38-1.4c.48.94,1.6,2.22,1.32,2.77-1.24,2.37-2.44,5.67-4.5,6.49-2.52,1-5.91,0-8.89-.41-.79-.11-1.31-1.68-2.15-1.94a13.49,13.49,0,0,0-4.92-.61c-.59.05-1.65,2-1.52,2.12a17.23,17.23,0,0,0,4,3.33c.94.53,2.65,0,3.34.6,1.12,1,1.69,2.67,2.49,4.05a13.62,13.62,0,0,1-3.63,1c-1.28,0-2.54-.74-3.85-1-5.47-.87-7.35,1.32-5.3,6.38C310.18,281,311.87,284.06,313.62,287.65Zm249-57.4c-1.11-1.63-1.76-2.78-2.58-3.77-15.13-18.08-30.22-36.2-45.51-54.15-1.68-2-4.67-4.24-6.89-4.09A108.82,108.82,0,0,0,486,171.6c-18.83,5.27-35.36,15.13-50.89,26.84-3.82,2.88-7.7,6.29-12.11,7.68-13.28,4.17-26.72,8-40.32,10.88-6.79,1.44-11.61,4.51-15.22,10-2.47,3.74-4.73,7.63-6.93,11.53A10,10,0,0,0,359,243c-.11,14.82-.09,29.63,0,44.45,0,3.41.3,6.83.49,11,4.91-3.2,7.45-6.21,8.16-11.51.87-6.47,3.34-12.74,5.22-19.06.42-1.41,2.05-2.92,1.75-4-1.91-6.82,3.28-8.55,6.75-10.41-.74-2-2.15-3.83-1.78-5.15,1.37-4.88,5.5-6.2,8.66-6.13-.73-1.49-2.64-3.85-2.14-4.61,4.93-7.45,9.68-15.22,20-16.4,6.82-.79,13.83-.86,19.91-5.17,2.54-1.81,6-2.3,9.69-3.61.55-3.13,4-4.18,8.89-2.34,1.77-1.33,2.88-2.72,4.24-3.05a21.46,21.46,0,0,1,6.46-.35c8.05.53,16,1.31,18.85,10.93.2.66,1.26,1,1.79,1.63,1.35,1.56,3.09,3,3.83,4.82a84.39,84.39,0,0,1,3.67,11.63c2.54,10.27-.81,19.26-6.07,27.94-7,11.54-18.72,16.81-29.82,22.77-6.57,3.53-13.62,6.22-20.57,9-7.3,2.87-12.49,7.45-13.8,15.48a5.39,5.39,0,0,0,.84,4c4.63,5.22,9.49,10.22,14.24,15.33,2.79,3,5.15,3.24,8.9.7,8.08-5.49,16.31-11.11,25.23-14.89,10.54-4.46,21.82-5.79,32.4,1.1a6.82,6.82,0,0,0,2.2.42C497.17,272.2,520.46,244.24,562.58,230.25ZM439,550.35l-7.23,4.82V536.1c-3.23,2.24-7,3.46-8.17,5.92-4.28,9-10.24,17.09-13.26,26.82-2.25,7.26-6.3,14-9.74,20.85-.58,1.16-2.07,1.86-2.59,2.31-1.41-4.19-2.87-7.72-3.78-11.38-3.29-13.2-6.68-26.38-9.45-39.69-1.19-5.74-5.09-11.56,0-18.27l-6.52,1.67c.23-4.48.13-8.42.69-12.25q3.46-23.66,7.32-47.25c.62-3.77-.28-5.67-4.35-5.92s-8.24-1.08-12.38-1.35c-11.26-.73-11.13-.67-11.11,10.67q0,39.91-.16,79.82c-.08,15.14-.38,30.28-.55,45.41-.2,18.46-.4,36.91-.5,55.37,0,1.59.73,3.18,1.21,5.09,1.15-.68,1.74-.83,1.94-1.19a41.28,41.28,0,0,0,2-4c5.19-12.14,12.65-22.74,22.89-31,9.21-7.43,19.13-13.66,30.7-17.51,6.24-2.08,11.48-7.36,16.94-11.5,2.72-2.06,4.88-2.83,8-.76,2.39,1.58,2.7,1.17,3.74-2.36l-5,.35c.28-1.65.47-2.8.57-3.41-8.57-.95-12.12,5.32-16.37,10.62a28.67,28.67,0,0,1-2.3,2.63c-2.45,2.41-5.26,2-6.73-.56-.64-1.11.82-5,2-5.36a24.16,24.16,0,0,0,12.41-9,4.23,4.23,0,0,1,2.08-1.31c4.48-1.43,5.25-4.6,5.21-9-.05-5.88-1.95-12.22,2.84-17.43C439.78,552.78,439.16,551.46,439,550.35Zm-70.1-254.54c-2.9,1.87-5.72,3.52-8.33,5.47a4.25,4.25,0,0,0-1.23,3c-.13,5.32-.27,10.66.05,16,.08,1.23,2,3.41,2.95,3.34a124.55,124.55,0,0,0,15.22-2.2c1-.21,2.72-2.27,2.49-2.87-2.33-6.12,1.35-10.61,3.94-15.32,4.51-8.21,9.95-15.52,18.09-20.76,13.23-8.5,27.45-14.76,42.19-20,7.16-2.54,13.57-6.12,17.16-13.38a73.39,73.39,0,0,1,4.24-6.92,52.18,52.18,0,0,1-5.94-4.32c-2.05-1.91-3.31-5.57-5.54-6.19a83.09,83.09,0,0,0-17.52-2.5c-3.46-.17-6.26,1.1-5.9,6a10.81,10.81,0,0,1-3.2,7.81,31.91,31.91,0,0,1-10.74,6c-9,3-17.5,6.4-24.93,12.64-3.14,2.64-8,3.19-12,4.88a8.17,8.17,0,0,0-3.77,2.68c-4.95,8-7.1,16.4-3.39,25.58.69,1.7,1.12,3.51,1.67,5.26l-1.47.79C371.5,299.07,370.09,297.34,368.86,295.81ZM533.33,538.67l-2.19-.56q1.08-12.15,2.14-24.29l-1.44-.33q-4.12,8.73-8.27,17.45l-1.78-.36L520.56,506l-1-.47-9.76,17.83-1.76-.79q1-7.65,2-15.31l-1.4-.26q-3.41,6.54-6.83,13.08l-1.34-.44V503.86l-.87-.44-6.38,9.28-2.52-9.21c-1.6,2.74-2.62,4.2-3.35,5.78-3.86,8.45-7.72,16.9-11.43,25.41-1.75,4-7.73,7.56-1.87,12.78.22.18,0,1-.14,1.42-1.05,3.5,1.38,4.51,3.77,4.1a41.45,41.45,0,0,0,11.74-3.48c3.91-2,6.46-2.2,8,3.07,4.11-5.34,7.58-2.3,11,.07,4.22,2.92,8.42,5.89,12.51,9,2.77,2.11,4.7,2,7.15-.8,5-5.7,10.52-11,15.7-16.51.64-.68.68-2.07.7-3.14q.24-11.72.33-23.44a18.32,18.32,0,0,0-.93-3.44C540,523.24,536.68,531,533.33,538.67Zm16.8-3c3.19-3.86,6.37-7.86,9.72-11.72q17.28-19.9,34.71-39.72c2.23-2.53,1.47-3.85-1-5.41A94.19,94.19,0,0,1,582,471c-10.77-9.17-21.31-18.6-32.28-28.23,1.13,9.44,2.39,19,3.38,28.57.36,3.59.07,7.25.11,10.88.09,9.1.7,18.23.17,27.3C552.87,518.42,551.22,527.25,550.13,535.71ZM474.82,390.59h41.35c-3.19-7.43-7-14.18-9-21.43-2.41-9-9.88-17.61-3-28.18l-6,.38c2.94,2.93,3.07,3.1.53,5.07-3.71,2.87-7.63,5.47-11.57,8.27,2.27,6.08,6.24,12.5.48,19.43C483.29,379.44,479.18,385,474.82,390.59ZM350.54,290.41c-3.13-1.64-5.14-2.52-7-3.68-2.71-1.73-5.24-2.24-7.46.61-2.42,3.12-3.26,7.12-8.08,8.73-4,1.32-7,5.31-10.58,7.88-3.2,2.29-3.89,6.5-.67,8.72,5.73,3.95,12,6.69,19.11,3.77,3.12-1.28,5.14-.47,6.49,2.45.56,1.2.68,2.8,1.55,3.62a6.27,6.27,0,0,0,4.07,1.81c.9-.05,2.42-1.83,2.44-2.85C350.61,310.83,350.54,300.2,350.54,290.41Zm89.53,267.68c4.18,4.25,4.13,4.26,5.79,11.93.2.94,1.26,2.38,2,2.42a86.52,86.52,0,0,0,13,0c1.57-.15,3.24-1.75,4.41-3.08,5.85-6.65,4.41-14.58,3.69-22.37-.36-3.88-.45-6.82-5.65-8.58-4.14-1.4-5.28-.49-6.92,2.29-.75,1.28-1.39,2.62-1.55,2.91C445.5,545.17,446.49,555.29,440.07,558.09ZM259,336.64l.92,1.48c2.46-4,6.59-5.18,9.82-3.1a13,13,0,0,1,5.09,8.77c.48,5.18-1,10.52-1.14,15.8-.12,4.2-.26,8.69,1,12.58,1.94,5.85,5.1,11.3,8,17.39a24.39,24.39,0,0,1,4.68-.61c4.18.15,4.46-2.27,4.09-5.48-1.74-15.08-5.47-29.63-12.19-43.25-2.26-4.57-3.09-8.28,1.53-11.69.45-.33.4-1.34.33-1.06-5.8,2-11.76,4-17.63,6.21C261.81,334.3,260.45,335.64,259,336.64Zm200.88,55.09,4.32-5L468.1,382c-4.07.55-8.23.64-12.12,1.74-9.16,2.57-17.09-.7-18.76-9.92-1.36-7.55-4.67-9.68-11.68-9.57-3.6,0-5.32,1-5.87,4.34q-1.34,8.12-2.68,16.24c-.57,3.46.82,4.79,4.36,4.77,9.81,0,19.63,0,29.44.34C453.65,390.07,456.49,391.05,459.84,391.73Zm-42,20.72c2.16,7.13,3.67,13.57,6.07,19.66,3.79,9.57,4,9.47-3.14,16.64-.21.2-.21.6-.37,1.12l3.76,2.15c2.66-3.27,5-6.24,7.45-9.16,8.5-10.21,8.32-17-.57-26.39-.86-.91-1-2.46-1.65-4Zm-19.08,80.44-1-.16C394,501.87,390.13,511,386,521c5.85-2.17,3-12.39,10.66-11.29Zm66.59-74.53c.26-.55.53-1.1.79-1.64L454,406.38c-1,3.25-1.7,5.33-2.42,7.57ZM207.68,475c-2,1.24-4.19,8.32-2.55,11.22.72,1.27,2.26,2.08,3.43,3.09,1.19-1.61,2.92-3.07,3.41-4.87.36-1.32-.77-3.14-1.47-4.63A55.69,55.69,0,0,0,207.68,475Zm255.15-127.8c6.12-6.56,11.18.24,16.9-.07-2.35-4.29-7.84-2.55-11.17-5.57.1-.7.25-1.72.56-3.81C466.23,341,460.82,341,462.83,347.18ZM219.17,434.4l.28,1.78,26.12-6.83c-.16-.62-.31-1.24-.46-1.86Zm-31.51,35-.08,2.13,10.85,6.17c-1-3.83-.94-7.68-2.52-8.56C193.84,468,190.47,469.18,187.66,469.37ZM208,446.21c0,4-.1,7.68.09,11.37,0,.69,1.13,1.58,1.92,1.89a2.33,2.33,0,0,0,2-.88C213.49,456.44,210.89,447.92,208,446.21Zm289.5,37.24c1-.22,3.2-1.16,5.36-1.09s4.43,1.12,6.64,1.74l.83-.69-6.79-6ZM223.06,460l1.19-1.45c-.6-2.54-1.19-5.08-1.81-7.73-4.74,1.42-3.4,4.68-3.09,7.13C219.46,458.75,221.76,459.29,223.06,460ZM207.9,429.32l1.17,1.51,8.47-6.36-.65-1-9.71,1.14.07,1.36h3.08Zm200.8,55.8c4.9.64,8.9-4.68,8.14-10.19Zm22.63,21.57v-2.78c-4.7,5.19-5.11.09-7.09-1.21l-1.16.72,2.84,7.56ZM239.23,420.8l0,.93h18.19v-.93ZM460.49,575.5a53.86,53.86,0,0,1-6.95,1.62c-4.72.5-4.73.37-4.33,3.51C460.59,577.32,460.59,577.32,460.49,575.5ZM304.89,298.2l-.46,1.87c.23.44.34,1.09.7,1.28,2.45,1.31,5,2.51,7.45,3.75l-3.12-4.85c-.08-.14-.08-.4-.19-.44C307.82,299.25,306.35,298.73,304.89,298.2ZM240.1,443.67l-6.7,3.76c.61.77,1.53,2.3,1.77,2.2,2.45-1,4.79-2.32,7.16-3.53Zm216.52-72.28c.1.57.21,1.15.32,1.72,4.14-.83,8.29-1.66,12.4-2.63,0,0-.36-1.87-.45-2.3ZM280,478.81l.42-1.63-14.2-4.38-.43,1.39Zm-45.14-56.93-.07-1.77-13.54,1.8.15,1.33Zm205.66-64.69,7.37-7.84C440.07,351.6,440.07,351.6,440.48,357.19ZM233.45,425l-9,.62C227.42,430.69,229.08,430.67,233.45,425ZM476.26,563.65c5.77,1.19,9.39-.46,9.6-3.58ZM246.88,493.82l-.53,1.37,11.91,5,.72-1.88Zm265.67-47.74-3.64,9.21C514.11,455.74,514.43,455.09,512.55,446.08Zm-55.72-4-4.76,8.13,7.56-3C458.6,445.34,457.79,443.84,456.83,442.07Z"/><path d="M682.5,161.59c-14.23-7-29.24-6.42-43.86-8-3.66-.39-5.86.9-5.38,5.51,1.47,14.21,2.53,28.47,3.72,42.71a24.48,24.48,0,0,1,.13,5.47,3.66,3.66,0,0,1-1.92,2.37c-.47.21-2-.71-2.22-1.4-5.25-14.28-18-20.42-30-27-13.52-7.44-27.5-14-41.27-21a51,51,0,0,1-4.77-2.72c-7.13-4.68-8.54-8.35-6-16.47,1.13-3.64,2.73-7.13,4.1-10.7,2-5.23,1.65-6.54-3.55-8.1-12.9-3.86-25.68-8.55-38.86-10.89-26.18-4.65-52.53-8.59-78.95-11.6-25.1-2.86-50.36-4.57-75.6-6-11.74-.65-23.59.41-35.37,1.07-17.91,1-35.83,2.16-53.71,3.62-30.71,2.51-61.21,6.6-91.16,14.06-5.48,1.37-10.81,3.33-16.19,5.09-2.87.94-4.67,2.31-2.84,5.84a128.12,128.12,0,0,1,5.2,11.81c3.28,8.25,1.53,13.85-6.23,18s-16.06,7.31-23.78,11.51c-14.26,7.76-28.53,15.56-42.21,24.24-4.09,2.59-6.2,8.24-9.33,12.41a19.19,19.19,0,0,1-3,2.63c-.62-1-1.82-2.12-1.78-3.15.28-7.12.66-14.25,1.32-21.35.78-8.42,2-16.79,2.79-25.2.51-5.6-.54-6.56-6.13-6-11.07,1.22-22.14,2.53-33.17,4.05-2.4.33-4.63,1.8-7,2.48a17.66,17.66,0,0,1-4.07.24c.15-1.23-.1-2.75.53-3.65,9-12.76,17.54-25.85,27.29-38,5.73-7.15,13.33-12.83,20.19-19.05,2-1.83,1.8-3.22.06-5a50.27,50.27,0,0,1-5.31-5.91c-6.62-9.27-4.52-19.34,5.35-25a358.61,358.61,0,0,1,69.12-30.89A524.36,524.36,0,0,1,236.93,7.38c26.26-3.64,52.54-6.28,79-6.76,14.47-.27,29-.37,43.44-.41,16.61,0,33.25-.56,49.83.23C426.13,1.24,443,3,459.84,5A471.89,471.89,0,0,1,541.2,22.21c18.54,5.71,36.71,12.78,54.6,20.31,12.67,5.33,24.65,12.33,36.81,18.83,12.87,6.88,14.44,20.48,3.82,31-1.36,1.35-2.6,2.83-4.26,4.66,21.1,16.55,36.59,37.18,50.13,59.41a7.09,7.09,0,0,1,.83,2.84A7.44,7.44,0,0,1,682.5,161.59ZM308.1,3.5v.44c-9.45.66-19,.76-28.34,2.1C254.41,9.65,229,13.29,203.85,17.87a385.8,385.8,0,0,0-91.11,28.87A337.7,337.7,0,0,0,80.17,64c-6.13,3.66-7,9.78-3.35,15.68,1.74,2.77,4.39,5,6.48,7.51,5.52,6.74,11.39,13.24,16.31,20.39,4.41,6.39,7.58,13.63,11.64,20.28,2.69,4.42,7,4.82,11,1.72a22.47,22.47,0,0,1,5-3.23c9.25-3.66,18.47-7.41,27.89-10.61,11.47-3.9,22.92-8.29,34.74-10.65,18.71-3.73,37.66-6.58,56.64-8.64,21.81-2.36,43.74-3.78,65.65-5,17.08-1,34.25-1.93,51.3-1.14,22.86,1,45.66,3.67,68.45,5.87,14.87,1.43,29.8,2.68,44.51,5.12,19.95,3.31,39.84,7.18,59.53,11.81,9.77,2.29,19.06,6.71,28.52,10.33,9,3.42,18.11,6.51,26.68,10.75,7.13,3.52,10.34,3.24,14.11-3.91,2.56-4.84,4.52-10.12,7.71-14.5a332.31,332.31,0,0,1,21.55-27.17c9.76-10.82,5.44-18.67-4.47-24.11-10.6-5.82-21.43-11.24-32.32-16.53C566.94,33,534.41,23,501,15.9A570,570,0,0,0,399,3.68C368.72,2.82,338.4,3.5,308.1,3.5ZM633,197.46c0-2.26.12-3.52,0-4.76-1.39-12.87-2.68-25.74-4.35-38.57-.43-3.28.71-4.55,3.51-4.42,8.29.39,16.58.86,24.85,1.62,6,.55,12,1.6,19.24,2.59-1.79-2.84-2.87-4.61-4-6.34-10.92-16.6-23.31-31.92-38.68-44.7-3.24-2.69-5.69-3.18-8,.79-5.32,9-11,17.83-15.89,27-4.24,7.89-7.86,10.62-17,10.12-7.46-.41-14.89-1.21-22.32-1.89-5-.45-11.11,3.24-12.35,7.54-1.34,4.65.6,8.09,6.34,10.84,8.36,4,17,7.46,25.1,12,11.58,6.47,22.8,13.6,34,20.64C626.54,191.88,629.26,194.51,633,197.46Zm-551.5-7.58,1.52.63c1.06-.69,2.14-1.35,3.18-2.08,8-5.6,15.62-12,24.16-16.65,13.66-7.46,28-13.73,41.94-20.65,5.95-2.95,6.6-10.25.83-13.49-3.37-1.89-7.79-2.49-11.76-2.56-7-.13-13.93.72-20.9.93-7.18.21-12-3.16-15.44-9.61-4.51-8.49-9.59-16.7-14.72-24.84-3.7-5.87-5.24-5.93-10.57-1.63-15.43,12.44-27.52,27.81-38.64,44a36.47,36.47,0,0,0-2,4.14l5-.42c11.89-1.07,23.78-2.41,35.7-3.12,6.48-.38,7.23,1.34,6.33,7.89C84.37,164.9,83,177.4,81.47,189.88Zm46.84-59.67.42,2c9.83-.75,19.78-3.24,29.37,1.63a64.46,64.46,0,0,0-3-8.22c-1.3-3.27-3.68-4-6.83-3.11a46.27,46.27,0,0,0-5.25,1.46C138.09,126,133.21,128.11,128.31,130.21Zm457.41,6.71c.11-.74.21-1.48.32-2.23-7.75-2.53-15.49-5.13-23.29-7.5a3.34,3.34,0,0,0-2.91,1.4c-1.6,3.43-2.85,7-4.22,10.55l1.07,1C565.48,131.82,576,137.2,585.72,136.92Z"/><path d="M137.08,653.68l7.48-7.54c-10.37-7.78-20.08-14.65-29.3-22.12-11.67-9.44-23-19.29-34.38-29.12-8.49-7.35-17.07-14.65-25.06-22.53-7.07-7-14.07-14.22-19.86-22.24a373,373,0,0,1-22.73-35.55c-6.4-11.39-9.29-24.07-11.49-37.05A145.9,145.9,0,0,1,.17,447.11c0-1-.28-2.12.09-3a20.26,20.26,0,0,1,2.35-3.48c1,.95,2.33,1.74,2.88,2.9C9.44,452,13.2,460.5,17.1,469c.72,1.56,1.78,3,3.14,5.23C28.39,461,35,447.92,44.44,436.78l1.74.67c-.59,2.91-1.11,5.85-1.8,8.74-5.44,22.91.2,43.36,13.66,62.12,10.15,14.15,25.25,23,37.38,35.05,8.11,8.06,16.66,15.71,25.29,23.22,20.34,17.69,41.37,34.42,64.61,48.35,7.11,4.26,12.65,11.13,18.88,16.84a8.65,8.65,0,0,1,1.45,2c4.53,7.61,2.31,14-5.74,17.11-1.86.72-3.42,2.21-5.11,3.35,1.29,1.43,2.38,3.15,3.91,4.25,12.46,9,26,15.9,40.11,22,19.85,8.59,40.42,14.3,61.53,18.4a239,239,0,0,0,75,2.68,389.55,389.55,0,0,0,76.75-17.32A186,186,0,0,0,498.79,661a77.85,77.85,0,0,0,6.34-5.53c-4-3-7.38-5.52-10.82-8-3.21-2.32-3-5.16-1.59-8.39A56.37,56.37,0,0,1,512.27,615c17.84-12.43,36.29-24,54.25-36.24,19.63-13.39,39.05-27.07,56.64-43.19,9.49-8.7,18.33-17.84,25.25-28.78,10.25-16.21,15.27-33.36,10.49-52.55a10.32,10.32,0,0,1,.26-5.38c11.14,6.4,15.22,18.28,22.94,28.47,11.42-14.28,16.75-31.45,24.81-47.06l1.9.33c.18,2.79.7,5.6.49,8.36-1.54,20.22-4.21,40.27-9.58,59.9-4.62,16.9-12.94,31.78-23.32,45.84A277.4,277.4,0,0,1,632,591.7c-17.84,15.07-37,28.52-55.79,42.5-6.12,4.56-12.66,8.55-19,12.82-1.23.83-2.41,1.71-4.62,3.29,6.1,3.75,10.94,6.82,15.86,9.73,6.62,3.92,7.69,8.16,3.6,14.77-6,9.75-14.76,16.88-24.41,22.33-17.46,9.88-35.12,19.63-53.46,27.7-20.33,8.95-41.46,16.08-62.31,23.79s-42.48,11-64.37,12.64a356.41,356.41,0,0,1-41.86.17c-7.63-.33-15.19-2.55-22.63-4.73,8.23,1,16.43,2.26,24.69,2.81a212.92,212.92,0,0,0,25.88.45c12.27-.7,24.73-1.15,36.69-3.7,18-3.84,36-8.31,53.32-14.5,22.34-8,44.11-17.63,65.86-27.16a219.19,219.19,0,0,0,50.29-30.14c4.4-3.56,7.59-8.69,11-13.36.83-1.15.95-3.89.14-4.85s-3.35-1.53-4.89-1.18q-11.69,2.61-23.22,5.83c-8.73,2.45-15.5-1.41-22-6.29a14.74,14.74,0,0,1-1.32-1.5c-7.5-7.42-8.73-7.24-17.3-1-13,9.38-27.24,16.3-42.21,22a353.21,353.21,0,0,1-77.17,19.43,258.28,258.28,0,0,1-70.91.16c-23.19-3.15-45.51-9.41-67.28-17.64-16.29-6.16-32-13.73-46.26-24a17.12,17.12,0,0,1-1.89-1.63c-6.1-6-8-6.06-14.58-.7-1.16,1-2.25,2-3.31,3-10.67,10.62-18.92,12-32.41,5.61a46.51,46.51,0,0,0-7.8-3.27c-2.24-.61-4.7-.4-7.06-.55l-1,1.42c2.27,4.06,4,8.62,6.91,12.09,12.22,14.36,27.33,25,44.45,32.83,12.71,5.79,25.57,11.25,38.38,16.8a11.68,11.68,0,0,0,5.2.85c-6.88-4.36.4-14-7.7-18-3.1,3.32-6.81,4.72-11.45,2.73,3-3.51,6-6.53,8.33-10.06,2.1-3.22,3.28-7,5-10.49a4.1,4.1,0,0,1,2.13-2.15c4.54-1,12.47,2.87,14.05,6.73,1.77,4.3-1,10.14-6.14,13.12-3.09,1.78-4.6,9.7-2.25,12.48,1.54,1.83,3.25,2.41,4.67-.27,2.94-5.58,5.92-11.14,8.81-16.75a3.83,3.83,0,0,0,.35-2.37c-.41-1.88-2.82-4.15,1.14-4.93,2.88-.57,7.14,2.32,7.52,5.09.35,2.58.52,5.19.78,7.79l1.33.92c1.93-1.72,4.48-3.1,5.67-5.23,2.33-4.18,5.22-2.12,7.66-1,2.94,1.33.91,3,.1,5.11-2.26,5.79-3.68,11.91-5.46,17.89-.44,1.49-.7,3.18-1.61,4.31-.35.43-3-.07-3.39-.8a7.42,7.42,0,0,1-.87-5c.94-3.49,2.47-6.83,3.76-10.23l-1.57-.9c-1.88,1.71-3.74,3.43-5.64,5.12s-3.65,3.16-5.48,4.73l-1.11-.91q.38-5.41.76-10.84l-1.35-.49c-1.86,2.93-3.43,6.11-5.64,8.74s-5.19,4.89-8.63,8l42.38,16.37-.2.73c-7.63-2.31-15.38-4.29-22.86-7-19.18-7-38.47-13.76-57.26-21.68-14.16-6-27.88-13.4-39.76-23.18-7.93-6.53-16.41-13.14-20.83-23.08-4-9-3.42-11.28,4.31-17.34.91-.71,1.74-1.53,2.6-2.3-1.52,2.47-3,4.94-4.45,7.19,6.15,2.11,12.07,4.17,18,6.15,2.83.95,5.68,2.17,8.6,2.43,2,.19,5.07-.43,6.05-1.82s.71-4.57-.2-6.35c-3.42-6.7-10.22-9.64-16.28-13.24-1-.62-3.42.47-4.92,1.27C141.63,650.43,139.4,652.14,137.08,653.68ZM4.12,448.09l-2.66.74c.81,10,.4,20.24,2.76,29.82C7.29,491.13,12,503.32,17,515.17c6.93,16.17,17.28,30.31,29.46,43,8.3,8.6,17,16.84,25.9,24.81,15.2,13.62,30.39,27.31,46.21,40.2a285.59,285.59,0,0,0,31.45,21.77c8.55,5.23,17.07,10,20.85,21.16,8.49-8.74,18.33-13.92,29.09-17.72,6-2.11,6.49-5.05,3.69-11-4.85-10.31-13.86-16.48-22.9-22.18-19.14-12.09-37.52-25.11-54.35-40.28-10.59-9.55-21.39-18.86-32-28.36-9.77-8.72-19.32-17.69-29.16-26.31-8.93-7.83-15.11-17.49-19.67-28.29s-5.78-22.05-5.24-33.62c.15-3.35,0-6.71,0-10.07l-1.53-.56C33.07,458,27.3,468.24,21.09,479.34c-1-.94-2.77-1.92-3.48-3.4-3.06-6.43-5.71-13.06-8.71-19.53C7.55,453.52,5.72,450.86,4.12,448.09ZM664.49,456l-1.57.59a17,17,0,0,0,0,2.76c2.34,13.83-1,26.86-6.48,39.25s-14.18,22.51-23.68,31.8c-18.46,18-39.13,33.42-60.58,47.73-18.64,12.45-37.65,24.37-56,37.18-8.28,5.76-15.36,13.13-19.73,22.67-1.86,4.06-1.12,6.91,2.54,9.31,9.69,6.33,19.29,12.8,29.07,19,1.05.67,4.06.33,4.53-.49,6-10.25,16.15-15.59,25.28-22.1,17.57-12.53,35.73-24.29,52.77-37.5,18.25-14.16,35.65-29.53,50.48-47.34,9.65-11.6,19.51-23.48,26.55-36.69,11.3-21.17,15.26-44.8,17.53-68.59.33-3.45.35-6.93.51-10.39a9.2,9.2,0,0,0-3.53,4.07c-5.29,10-10.31,20.11-16,29.87-3.35,5.79-5.2,5.41-8.63-.24C673.29,469.8,668.85,462.9,664.49,456Zm-99.21,205.9c-5.57-3.46-9.82-6.18-14.19-8.7-.59-.35-2,.07-2.65.59-3.86,3.11-7.7,6.26-11.32,9.63-.93.86-1,2.6-1.51,3.94,1.46.49,3.08,1.67,4.35,1.36C547.92,666.72,555.8,664.45,565.28,661.85Zm-346,42.48c5.34,2.65,9.44,1.78,10.76-1.66.93-2.42.69-4.56-2.25-5.62C220.11,694.29,223.33,702.56,219.26,704.33Z"/><path d="M359.41,735.38a55.89,55.89,0,0,0-.42,7.73c.27,3.5-1.8,4.81-4.52,5.52a3.93,3.93,0,0,1-3.19-.65c-.46-.42-.1-2.07.3-3,3.13-7.27,4.16-14.57,1.09-22.17-.55-1.36-.93-3.8-.22-4.42a5.81,5.81,0,0,1,4.9-1.15c1.5.52,2.82,2.34,3.63,3.9,1.76,3.39,3.16,7,5.41,10.23,2.2-4.45,1.62-8.13-2.72-11.12,1-1,1.62-2.33,2.47-2.48A110.62,110.62,0,0,1,380.61,716c.89,0,2.34,2.7,2.74,4.35,1.12,4.66,1.4,9.57,2.88,14.09.66,2,3.4,3.4,5.2,5.06,1.52-1.72,4-3.27,4.37-5.22a39.85,39.85,0,0,0,.37-12.38c-.2-1.62-2.67-3.06-4.26-4.38a23.26,23.26,0,0,0-3.74-2.06c4.42-4.1,9.83-4,10.43.14a94.68,94.68,0,0,1,.74,21.21c-.36,4.49-4.14,7.11-9,6.79-5.49-.36-10.29-4.3-11.09-9.06-.59-3.43-.58-7-1.44-10.34-.41-1.6-2.23-2.84-3.42-4.24-.68,1.37-1.94,2.73-2,4.1-.08,5.8.35,11.6.26,17.39,0,1.52-1.25,3-1.92,4.52-1.41-.93-3.14-1.6-4.18-2.84-2.09-2.51-3.8-5.32-5.67-8Z"/><path d="M302.66,731.52c-.4,1.81-.74,3.62-1.21,5.41-.37,1.44-.53,3.16-1.43,4.19-1,1.2-2.77,1.79-4.21,2.64-.16-1.46-.71-3-.41-4.36,1.22-5.45,2.71-10.84,3.74-14.82-3-2.36-4.68-4.05-6.68-5.15a15.41,15.41,0,0,0-5.9-1.76c-.57-.06-2,2-1.86,2.86.24,1.31,1.46,3.4,2.39,3.47,4.93.36,4.29,2.94,3,6.39-3.25-.29-7-2.86-8.85,2.23-1.48,4.13-.18,6.11,4.19,5.77a19.28,19.28,0,0,0,2-.33l4.52-.82c.05.75.43,1.94.1,2.18-1.5,1.11-3.31,2.89-4.79,2.7-4.68-.6-9.27-2-14.23-3.14,1.88-5.07,3.73-9.3,5-13.7a19.63,19.63,0,0,0,.51-8.14c-.61-3.83,1-5.18,4.3-4.6,7,1.24,13.94,2.73,20.84,4.4,1.19.28,2.19,1.87,3,3,1,1.44,1.65,3.08,3,5.67,2.12-2.68,3.36-4.85,5.17-6.32,1.1-.89,3.08-.68,4.66-1a34.82,34.82,0,0,1-1.15,4.09c-1.48,3.57-3.42,7-4.53,10.67-.89,3-.65,6.28-1.3,9.36-.22,1-1.66,1.79-2.54,2.67-.79-.9-1.94-1.69-2.28-2.73-1.21-3.64-2.13-7.38-3.16-11.08Z"/><path d="M401.12,711.33c9.21-5.22,13.54,5.21,21.54,6.53l-5.49-9.78a26,26,0,0,1,5.06-2.59c.35-.11,1.73,2.44,2.36,3.88,2,4.57,4,9.13,5.67,13.81a87.17,87.17,0,0,1,2.29,9.24l-1.63,1.14-18.5-12.84c-2.77,5.4,0,9.4,1.46,13.39,1.09,3,.48,4.88-2.3,6-3,1.21-4.63.35-5-3.18-.58-5.74-1.38-11.47-2.44-17.14C403.66,717.15,402.35,714.67,401.12,711.33Z"/><path d="M515.21,687.43l-5.73-1.26-.83.65c1.52,1.66,3.06,3.31,4.56,5,1,1.11,1.91,2.27,2.86,3.4a20.55,20.55,0,0,1-3.82,2.78,15.25,15.25,0,0,1-4.05.65c-3.31-8.84-7.93-15.95-16.83-19.35,2.53-3.75,3-3.76,18-.31,0-3.55-.19-7,.09-10.36.12-1.49,1-3.93,1.88-4.11a6,6,0,0,1,4.61,1.66c5.25,5.22,10.26,10.68,16,16.7l-5.78,3.5-10-12.21-1.94.83C514.5,678.78,514.81,682.58,515.21,687.43Z"/><path d="M460.58,728c.47-.33-.23.59-.81.52-6.2-.77-12.81-.6-18.46-2.84-6.84-2.71-10.38-8.8-10-16.74.23-4.37,1.33-7.89,5.82-9.37,4.65-1.53,9.43-1.95,12.67,2.49,2.1,2.87,3.38,6.38,4.73,9.73C456.57,716.76,458.32,721.86,460.58,728Zm-10.27-11.26c-2-4.46-3-8.05-5-10.91-1.09-1.51-4-2.31-6-2.27-.76,0-2.12,3.36-2,5.15a27.36,27.36,0,0,0,2,9.58c.63,1.46,3.5,3.19,4.85,2.84C446.29,720.52,448.12,718.36,450.31,716.72Z"/><path d="M181.3,666.16c12.88,3.53,15.88,13.09,9.53,21.58a36.26,36.26,0,0,1-8.22,7.85c-5.67,4-16.43.74-19.05-5.48a3.06,3.06,0,0,1,.79-2.84C172.78,682.43,177,674.3,181.3,666.16Zm-10,25.32c4.89,2.24,8.44,1.17,10.85-1.8,3.27-4,7.35-8.09,5.62-14.08-.16-.57-3.8-1.12-4.51-.39a79.33,79.33,0,0,0-7,9C174.61,686.5,173.09,688.88,171.32,691.48Z"/><path d="M481.68,714.32c0-6.24.22-11.16-.09-16a20.9,20.9,0,0,0-2-8.55c-1.19-2.18-1.67-3.82.45-4.94a10,10,0,0,1,6.11-1.25c1.95.4,3.74,2.09,5.34,3.51,3.83,3.39,7.68,6.79,11.18,10.51,1.34,1.43,1.73,3.74,2.55,5.65-2.26-.16-4.88.34-6.72-.63-3.71-2-6.93-1.84-9.38,1.44a2.33,2.33,0,0,0-.6,1.72C490.44,711.82,485.29,711.68,481.68,714.32Zm5.76-23.45c-2.84,3-4.08,5.69-1.07,7.67.89.58,3.11-.86,4.73-1.37Z"/><path d="M450.48,698.59c1.06-.84,2.45-2.47,4.22-3.27,4.24-1.92,5.15-1.15,4.83,3.51-.31,4.4,4.89,12.86,8.77,14.31,3.26,1.21,6.68-2,5.47-5.88-1.71-5.36-4.25-10.46-6.86-16.67l5-2.31c.59,1.67,1.2,3.34,1.78,5,.91,2.65,1.86,5.29,2.68,8,.68,2.22,1.24,4.48,1.79,6.73,1.17,4.82-.41,8.53-4.7,11-3,1.71-8.94.08-11.59-3.35-1.91-2.47-3.31-5.34-5-8S453.15,702.38,450.48,698.59Z"/><path d="M189.49,699c0-8.26,9.19-17.25,17.89-17.58,4.37-.17,6.2,2.73,6.71,6.52,1,7.24-6.61,18-13.78,19.85C193.87,709.4,189.28,705.66,189.49,699Zm20.34-9.19c-.31-.55-.72-2.43-1.71-2.82-1.49-.58-4.28-.81-5,0A84.7,84.7,0,0,0,194.54,700c-1.29,2.47.5,4,3.37,3.6C202.41,702.9,209.44,695.24,209.83,689.79Z"/><path d="M330.76,730.83c2.69,8-.45,16-7.47,17.34-2.64.5-6-1-8.47-2.51-.83-.52-.21-4,.34-5.91.26-.92,1.92-1.44,2.94-2.14.57,1,1.21,2.06,1.69,3.15.61,1.4,1.1,2.84,1.64,4.27,1.25-1.17,2.86-2.12,3.69-3.53,2.32-3.92,1.88-7.5-1.73-10.67-2.59-2.28-5.23-5.66-2.27-8.5,2.24-2.15,6.35-2.71,9.74-3.13,1.3-.16,4.22,2.14,4.12,3.09-.28,2.89-1.68,5.67-2.64,8.5Z"/><path d="M277.05,711.19c-.44,1.2-.47,1.82-.8,2.1-5.82,4.94-4.7,12.53-7,18.78-1.09,2.92-2.62,4-5,2.81-.82-.41-.9-3.36-.47-4.92,1.68-6.22,3.61-12.37,5.67-18.47.35-1.06,1.88-2.59,2.66-2.47C273.81,709.27,275.42,710.42,277.05,711.19Z"/><path d="M276.72,432.23c-10.42,2-12.47,1.9-14-1.33h14.33Z"/><path d="M302.1,341h45l1.15,1.77c-2.41,1.92-4.86,3.78-7.21,5.76-4.31,3.63-7,7.81-5.74,13.91.58,2.88.13,6,0,9-.09,2.73,1.12,3.95,3.84,4,10.32,0,20.65.25,31,0,1.29,0,3.36-2.39,3.61-3.92a66.89,66.89,0,0,0,.74-12.89,9.41,9.41,0,0,0-2.25-5.56c-3.34-3.66-7.1-6.94-11.68-11.31h45l.89,1.25c-1.34,1.64-2.38,3.75-4.07,4.83-6.68,4.26-8.92,10.46-9.57,18-1.59,18.23-3.74,36.4-5.41,54.61-.17,1.87.92,4.15,2.08,5.78,2.44,3.44,5.31,6.57,8.65,10.61h-33c2.7-4.07,5-7,6.71-10.3a19.16,19.16,0,0,0,2.5-7.8c.29-7.81,0-15.65,0-23.47,0-3.86-1.57-5.54-5.78-5.44-9.29.2-18.59-.05-27.89-.31-4.12-.11-6.2,1.08-6,5.67a138.8,138.8,0,0,1-.13,18.47A22.28,22.28,0,0,0,341,431.8c1,1.05,1.59,2.45,3,4.69H311.9c1.77-2.42,2.92-4.59,4.61-6.18,4.64-4.35,5.91-9.35,5-15.68-1.52-11-2.21-22.1-3.32-33.16-.82-8.22-1.27-16.53-2.9-24.59-.64-3.17-3.92-5.88-6.21-8.63C307.29,346.06,305.14,344.13,302.1,341Z"/><path d="M348.8,35.44Q343,48.33,337.24,61.2c-1.16,2.59-2.07,5.3-3.46,7.75-.83,1.45-2.38,2.49-3.61,3.71-1.05-1.38-2.58-2.61-3.06-4.16-2.42-7.76-4.6-15.61-6.81-23.44-1.5-5.28-3-10.57-4.36-15.88-1-3.76-2.7-6.27-7.17-6.13-1.18,0-2.42-1.56-3.63-2.41,1-1,1.87-2.61,3-2.77,6.57-.95,13.17-1.7,19.79-2.16,1.29-.09,2.69,1.41,4.05,2.17-.82,1.1-1.7,2.15-2.44,3.3s-2.39,2.86-2.12,3.91a97.24,97.24,0,0,0,6.69,18.66c4.58-6,9.43-11.35,10.23-18.5.2-1.82-3.38-4.07-5.26-6.15,2.53-2.76,14.92-4.89,18.21-2.56a5.63,5.63,0,0,1,1.92,4.21c-.52,11,6.78,18.41,11.9,26.81,1.61,2.63,4.31,2.82,5.45,0a136.86,136.86,0,0,0,6.31-19.2c.32-1.28-2.63-3.31-4-5.08-.94-1.24-1.7-2.62-2.54-3.94,1.43-.61,2.84-1.63,4.32-1.76,5.12-.45,10.27-.71,15.41-.79,3.07-.06,4.5,2.59,2.78,5.16-.87,1.3-2.54,2.05-3.69,3.21-2.47,2.51-5.78,4.72-7.1,7.76-5.21,12.06-9.73,24.42-14.66,36.61-.68,1.68-2.21,3-3.35,4.49a33.91,33.91,0,0,1-3.35-4.83c-2.38-5.1-4.36-10.38-6.81-15.44-3-6.22-6.31-12.28-9.48-18.41Z"/><path d="M155.13,105.1c-4.58,1.68-9.16,3.38-13.75,5a48.61,48.61,0,0,1-6.16,2,33.13,33.13,0,0,1-5.29.29c.21-2.16-.37-5.07.8-6.35,2.52-2.71,2.42-5,1.21-8.1-3.93-10-7.7-20.09-11.41-30.19-1.23-3.36-3.41-4.71-6.88-4.26-1.49.19-3.09.69-4.45.33-1.74-.47-3.29-1.67-4.93-2.55,1-1.27,1.8-3,3.12-3.71q11.31-5.73,22.89-10.94c1.14-.51,2.9.36,4.37.59-.62,1.28-.92,3.26-1.93,3.74-4.91,2.34-5.11,6.2-3.79,10.53,3.61,11.85,4.34,12.18,16,8.35,3-1,6-1.85,9.45-2.92-2.78-7.48-3.21-15.86-12.56-18.54a4.28,4.28,0,0,1-2.33-2.78c-.13-.57,1.27-2,2.2-2.26,7-2.19,14-4.33,21-6.13,1.18-.3,2.79,1.07,4.21,1.66-.65,1.23-1,2.83-2,3.6-4.26,3.31-4.66,7.28-2.87,12,4,10.56,7.62,21.27,11.94,31.69,1.16,2.78,4.29,4.75,6.51,7.08.75.79,2.09,1.59,2.07,2.35s-1.25,1.92-2.17,2.21A124.67,124.67,0,0,1,167,101.55c-2.95.57-4.46-.92-3.11-4.15,3.31-7.91-1.75-14-4.69-20.52-.39-.86-3.33-1.2-4.81-.8A126.89,126.89,0,0,0,139.77,81c-1.16.48-2.56,2.85-2.27,3.94a55.86,55.86,0,0,0,4.72,13c.94,1.68,4.22,2.11,6.47,3s4.34,1.62,6.52,2.42Z"/><path d="M496.08,55.41c4,8.36,7.82,16.2,11.62,24,2.8,5.78,5.46,11.65,8.52,17.29,1.1,2,3.19,3.53,5.3,5.76-7.1,1.61-12-1.08-15.3-5.86C501.3,89.54,497,82,492.74,74.52c-.63-1.09.18-3,.32-4.5-5.54-3.42-5.33-13.57-15.49-12.76-1.19,6.2-3,12.77-3.44,19.42-.14,2.18,3.3,4.59,5.49,7.4-1.74.28-3.62,1-5.38.78a76.62,76.62,0,0,1-12.67-2.63c-1.05-.33-2.43-3.65-1.95-4.27,8.4-10.73,8.14-23.46,8.69-36,.15-3.48.93-7.43-.38-10.34-1.15-2.55-4.85-4-8.14-6.4,1.9-.51,3.49-1.38,5-1.26,11.42.84,23,1.17,34.2,3.14,5.6,1,9,6.59,10.46,12.29,1.67,6.36-3.51,9.15-7.28,12.44C500.36,53.41,498,54.34,496.08,55.41ZM477.7,52.05c3.93,0,7.24.42,10.41-.08,7.69-1.22,12.57-9.23,9.36-15.45-2.66-5.16-7.8-6.25-13.13-6.49-2.7-.13-4.42.87-4.7,3.85C479.11,39.48,478.45,45.06,477.7,52.05Z"/><path d="M300.89,11.87c1.74,7.56.05,14.2-1.7,20.65-.72,2.63-3.43,2.63-4.71-.22-2.67-6-7.44-7-13.23-6-2.3.39-4.59.78-6.9,1.11C266.68,28.47,263,32.2,263.06,40c.11,9.37,1,18.7,7.94,26,3.56,3.75,11.49,5.22,15.69,3,3.62-1.92,5.54-7.2,4.75-12.75-.69-4.83-2-8.87-8.3-7.77-1.09.19-2.35-.6-3.53-.94-.1-.54-.21-1.08-.31-1.61a42.83,42.83,0,0,1,6.33-2.49c5.64-1.28,11.34-2.3,17-3.34.89-.16,2.63-.09,2.68.15a10.4,10.4,0,0,1,.29,4.68c-1.07,4-2.47,7.84-3.79,11.73s1.74,8.48-2.78,12c-7.39,5.81-14.72,10.24-24.88,9-20.33-2.5-30-26.29-24.26-40.64,3.66-9.14,16.72-17.67,27.57-17.76a44.37,44.37,0,0,1,6,.2c5.61.74,11,1.42,13.67-5.49C297.48,13.09,299.23,12.75,300.89,11.87Z"/><path d="M240.2,60.08c1.9,14.74-14,28.15-27.5,28.32-16.17.2-34-16-33.21-34.75.6-14,14.07-26.68,29.88-25.88C227.15,28.66,239.71,37.8,240.2,60.08ZM194.07,48.3l-1.19.33c2.32,8.44,4.27,17,7.17,25.24,1.1,3.15,3.94,6.19,6.77,8.14,7.6,5.23,18.55,1.25,20-7.67,2.13-13,.07-25.43-8.69-35.92-4.55-5.43-10.69-6.91-16.51-4.52C195,36.62,193.52,39.43,194.07,48.3Z"/><path d="M433.32,26.66c6.74,17.65,13.35,35,20.23,53-6.07,2.36-12.43.39-20.22-.53,7.22-5.63,5.82-11.65,3.18-17.61a5.47,5.47,0,0,0-3.58-2.82c-6.09-.78-12.23-1.35-18.37-1.63-7.51-.34-12.94,8.88-9.49,15.76.28.57.45,1.19,1.22,3.3-7,0-13.4.59-19.6-.24-3.35-.44-2.28-3.47-.05-5.13,2.66-2,6.08-3.22,8.13-5.66a91,91,0,0,0,9.08-13.49c3.89-6.77,7.4-13.75,11-20.67,1.36-2.6,1.58-4.61-2.25-5.39-1.46-.3-2.6-2.11-3.89-3.23,1.45-1.2,2.94-3.46,4.34-3.41,7.45.27,14.87,1.05,22.27,2,.41,0,.87,2.79.58,4.13C435.77,25.73,434.14,26.17,433.32,26.66Zm1.06,24.9a53.72,53.72,0,0,0-12.75-25l-10.92,25Z"/><path d="M563.75,81.75a52.19,52.19,0,0,1,1.18,6.85c.59,12.83,8,16,20,16.22,2.42,0,6-3.26,7-5.82.72-1.8-1.37-5.6-3.27-7.36-2.87-2.66-6.64-4.36-10.08-6.39-5.09-3-8.94-7-7.83-13.24,1.18-6.62,4.48-12.4,11.39-14.6,7.13-2.26,14-1.66,20.42,2.93,3.38,2.42,7.13,4.32,11.17,6.73l-5.75,13.09-1.54-.31c-.21-1.85-.47-3.7-.62-5.55C605.08,65.69,594.91,59.58,587,63c-4.5,1.94-5.72,5.85-2.53,9.59,2.79,3.27,6.17,6,9.25,9.06,4.74,4.67,7.47,10.47,6.79,17a13.14,13.14,0,0,1-4.92,8.47c-9.83,6.8-18.76,5.84-28.34-1.5-2.18-1.67-5.46-2-8.32-2.63s-4.28-1.25-3-4.58,1.66-6.75,2.77-10A63.59,63.59,0,0,1,562,81.52Z"/><path d="M567.66,61.82l-9.95-8c-4.52-3.64-6.62-3.25-8.06,2.19-2.76,10.4-5.19,20.88-7.49,31.39-.34,1.55.7,3.44,1.26,5.13s1.29,3.25,2,4.87L544.46,99l-24.65-7.47c2.75-1.78,4.05-3.18,5.56-3.5,4.47-.94,6.34-4.08,7.3-8,2.1-8.54,4.12-17.1,6-25.69,1.65-7.55-1.73-10.4-9.26-7.86-2.14.72-4.1,1.94-7.42,3.56.6-5.12.9-9.3,1.76-13.36.16-.78,2.78-1.86,3.84-1.51,12.92,4.22,25.73,8.77,38.63,13,3.88,1.28,5.69,3,3.63,7.2A44.67,44.67,0,0,0,567.66,61.82Z"/><path d="M89.89,575.46C79,581.53,79,581.53,75.44,577.89c7.12-5,17.11-7.44,16.6-20.61,5.75,4.17,11.26,6.84,14.87,11.11,5,5.85,1.53,11.73-6.2,12.08-6.65.29-9.8,4.46-7.66,10.54.38,1.06,2.61,2.51,3.44,2.22,6.32-2.22,12.52-4.83,18.72-7.31l-3.63-9.5c5.94.63,9,3.5,11.64,6.83.41.51.09,1.85-.22,2.69-2.42,6.5-4.83,13-7.46,19.43-.54,1.33-2,2.29-3,3.43-.75-1.52-2.23-3.12-2.1-4.56.25-2.7,2.12-5.38-1.53-7.29s-6.63-1.48-10.08,1c-1.38,1-5.44.32-6.82-1.06A14.09,14.09,0,0,1,88.63,589c-.3-2.49,1.11-5.15,1.48-7.78A35.7,35.7,0,0,0,89.89,575.46Zm8.37,1.16,6.88-5.82c-2.26-1.57-4.59-4.44-6.77-4.34s-4.26,3.18-6.37,5Z"/><path d="M56,555.57c9.53-4.66,15.59-12.47,15-19.64,1.19.38,2.36.43,3.07,1,3.4,2.9,6.66,6,10,8.94,3.89,3.48,4.72,7.94,2.31,12.6-3.7,7.17-13.16,11.47-20.75,8.87-2.23-.76-4.09-3.09-5.69-5S57.37,558.06,56,555.57Zm11.84,8.83c8.19.45,14.68-7.85,15.23-13.71.17-1.74-1.83-4.43-3.55-5.36-1.18-.64-4,.51-5.37,1.72a74,74,0,0,0-8.34,9.25c-1.21,1.55-2.86,4.31-2.26,5.38C64.42,563.34,67.1,564,67.79,564.4Z"/><path d="M149.92,601.09c-4.31,2-7.68,4.16-11.35,5-2.82.62-2.31-1.74-1.27-3.56,1.78-3.16-.39-3.94-2.77-4-6.13,0-13.06,9.91-10.9,15.54.23.62,1.12,1,2,1.76.57-.94.81-1.92,1.37-2.16a27,27,0,0,1,4.12-1c.2,1.46,1.07,3.33.48,4.31a7.12,7.12,0,0,1-9.56,2.81,9.72,9.72,0,0,1-4.57-6.63c-.86-7.55,5.5-17,11.92-18.79,1.57-.43,3.52-1,4.87-.44C139.35,595.93,144.23,598.42,149.92,601.09Z"/><path d="M136.17,623.66c-.07-9.88,10.44-18.06,19.88-15.29,4.4,1.3,6.28,4.82,6.1,9.16-.35,8-9.82,16-17.85,15.28C138.65,632.31,136.21,629.56,136.17,623.66Zm4.24,4.15c1,.52,2.53,2.1,4.05,2.06,4.85-.15,12.84-10.15,12.62-15-.15-3.26-1.85-4-4.62-3.32C148.17,612.54,140.46,622.11,140.41,627.81Z"/><path d="M638.68,550c-2.27-6.48-7-7-11.73-8.6.92-1.49,1.53-3.57,2.37-3.67,6-.67,7.81-6.11,11.22-9.62,4.39-4.52,14.48-5.78,18.58-2,6.29,5.85,6.63,13.89.88,19.78-1.79,1.84-3.11,2.23-5.4.25a63,63,0,0,0-11.72-8.23c-2.33-1.22-5.49-.86-8.57-.47,3.9,7.5,12.41,9.12,17.73,14.5-.06.54-.11,1.09-.17,1.63l-18.15.94-.75,1.17c1.95,2,4.06,3.87,5.82,6a16.5,16.5,0,0,1,2.62,5c.11.32-1.88,2-2.51,1.8a11,11,0,0,1-4.89-2.75c-4-4.54-7.26-10-14.12-11-.48-.07-1.18-3.09-.88-3.28,1.86-1.13,4-2.52,6-2.57C629.21,548.81,633.42,549.51,638.68,550Zm2.69-18.69c5.43,3.21,10.26,6.19,15.28,8.82.46.25,3.05-1.77,3-2.6-.34-4.16-2.92-6.75-6.91-8C649,528.25,645.48,527.65,641.37,531.28Z"/><path d="M527.62,625.82l-9.43,6.46c6.2,5.09,9.55,13.4,19.48,12.64l.31,1.2c-2.65,2.41-5.25,4.87-8,7.12a5.45,5.45,0,0,1-2.52-2.17c-2.64-5.91-7.4-9.61-12.94-12.37-2.18-1.08-4.67-1.39-4.87,2.46-.07,1.15-.78,3.18-1.3,3.21a5.35,5.35,0,0,1-4-1.28,4.28,4.28,0,0,1-.52-4c4.31-6.82,9.45-12.84,17.28-15.94a11.47,11.47,0,0,0,4.55-2.75c4.15-4.86,6.63-4.58,10.77.18s9,8.62,13.42,13c.81.78,1.86,2.7,1.62,2.94a15.41,15.41,0,0,1-4.68,3.39c-.48.22-2.08-1.11-2.58-2-3.68-6.82-9.35-11-16.23-13.77Z"/><path d="M568.39,589.42l5-3.21c4.3,3.81,7.73,6.89,11.22,9.92,1.75,1.52,3.88,2.7,5.34,4.44,2.3,2.76,3.85,2.6,5.63-.43a41.12,41.12,0,0,1,4-4.75c-3.54-5.95-6.57-13-16.81-15.11,2.72-2.24,4.49-4.57,6.73-5.17,1.16-.31,3.43,2.22,4.69,3.86,2.42,3.16,4.47,6.6,6.7,9.9,3.06,4.52,5.39,4.38,8.37-.34.54-.86,1.75-2.14,2.29-2a4.85,4.85,0,0,1,2.82,2.35,3.37,3.37,0,0,1-1,2.94c-5.71,5-11.52,9.82-17.36,14.63a13.39,13.39,0,0,1-4.26,2.55c-1.05.34-3.21.11-3.49-.5-3.85-8.53-11.6-12.73-18.88-17.49C569.09,590.87,569,590.48,568.39,589.42Z"/><path d="M635.91,572.12c-1.56,2.19-2.94,4.6-5.81,1.92s-5.48-2.63-8,.4-1.86,5.73,1.13,8.07a10.69,10.69,0,0,1,1.06,1.8c-1.69.92-3.39,2.54-5,2.5-1.14,0-2.53-2.21-3.28-3.69-2.08-4.12-3.71-8.47-5.89-12.54a6.75,6.75,0,0,0-4-3.12c-3.62-.74-3.3-2.81-1.4-4.38s5-3.37,6.76-2.72c7.87,2.91,15.43,6.63,23.07,10.12C635.07,570.72,635.37,571.45,635.91,572.12Zm-22.18-6.59-1,1.91c1.6,1.5,3,3.4,4.9,4.3.69.33,2.5-1.71,4.88-3.46Z"/><path d="M662.67,505.61c6,1.42,11.84,4.32,14.81,10.43,1.08,2.21-.25,6-1.4,8.67-.37.87-3.63.67-5.58.68-5,0-9.63-.87-14-3.84-4-2.69-6-5.9-5-10.32s5.07-4.65,8.67-5.28C660.73,505.83,661.39,505.77,662.67,505.61Zm8.54,16.61c1.23-.69,3.16-1.16,3.46-2.12a4.15,4.15,0,0,0-1.54-3.71A72.59,72.59,0,0,0,661,510.9c-1.55-.51-4.8.32-5.39,1.49-1.29,2.57-.3,5.33,2.9,6.31C662.58,520,666.75,521,671.21,522.22Z"/><path d="M550.2,608.26l15.71,18c-3.36,4.33-5.46,4.21-9.15-1.22-2.32-3.43-4.82-6.75-7.42-10-2-2.46-4.16-4-6.8-.4-.55.75-2.36.57-3.58.82-.23-1.33-1.13-3.27-.57-3.91,4.58-5.18,9.88-9.41,17.07-10.27.85-.1,1.84,1,2.77,1.49-.57.86-1,2-1.75,2.51A58,58,0,0,1,550.2,608.26Z"/><path d="M675.36,505.56c1.74-.26,3.62-.21,5.18-.9.91-.41,1.31-2,1.94-3-1.14-.39-2.45-1.36-3.37-1.07-2.19.68-4.13,2.1-6.28,3-5.18,2.06-9.27-.94-9.19-6.53,0-2-.21-3.92-.36-6.27,3.91-2,6.49-.29,8.67,3.53l-3.83,3.59c1.89.62,3.24,1.35,4.61,1.41.75,0,1.59-1,2.31-1.69,4-3.67,8.06-4.14,10.36-1.17,2.78,3.6,2,11.33-2,12.83-2.3.86-5.54-.8-8.35-1.32C675.14,507.12,675.25,506.34,675.36,505.56Z"/><path d="M557.87,598.27c3.72-5.14,6.22-5.07,10,0,2.75,3.7,6.07,7,9.08,10.49a10.78,10.78,0,0,1,2.46,3.67c.42,1.47.06,3.15,0,4.73-1.8-.62-4.2-.73-5.3-2-2.58-2.94-4.2-6.76-6.86-9.59S561.25,600.83,557.87,598.27Z"/></g></g></svg>